<?xml version="1.0" encoding="UTF-8"?><svg xmlns="http://www.w3.org/2000/svg" viewBox="0 0 727.44 466.92"><defs><style>.cls-1{opacity:.2;}.cls-2{opacity:.8;}.cls-2,.cls-3{fill:#fff;}.cls-4{fill:#737373;}.cls-4,.cls-3,.cls-5,.cls-6,.cls-7,.cls-8,.cls-9,.cls-10{stroke:#263238;stroke-linecap:round;stroke-linejoin:round;}.cls-5{fill:#51bfa1;}.cls-11{fill:#92e3a9;}.cls-12{opacity:.1;}.cls-6{stroke-width:2px;}.cls-6,.cls-7{fill:none;}.cls-8,.cls-13{fill:#263238;}.cls-9{fill:#7d7d7d;}.cls-10{fill:#636363;}</style></defs><g id="Background_Simple"><g><path class="cls-11" d="M718.45,196.49c-16.9-76.77-75.72-137.36-155.82-157.65-21.06-5.34-43.46-8.03-65.74-5.74-91.09,9.38-199.75,70.67-256.13,83.52-56.38,12.85-122.49-38.55-197.46,40.39C-31.69,235.94-14.37,418.6,135.55,454.39c149.92,35.8,233.36-52.32,299.95-33.04,66.59,19.28,185.81,11.01,256.21-45.89,41.74-33.74,41.41-112.35,26.74-178.97Z"/><path class="cls-2" d="M718.45,196.49c-16.9-76.77-75.72-137.36-155.82-157.65-21.06-5.34-43.46-8.03-65.74-5.74-91.09,9.38-199.75,70.67-256.13,83.52-56.38,12.85-122.49-38.55-197.46,40.39C-31.69,235.94-14.37,418.6,135.55,454.39c149.92,35.8,233.36-52.32,299.95-33.04,66.59,19.28,185.81,11.01,256.21-45.89,41.74-33.74,41.41-112.35,26.74-178.97Z"/></g></g><g id="Bricks"><g><rect class="cls-1" x="366.85" y="214.28" width="30.88" height="12.5"/><rect class="cls-1" x="355.09" y="169.8" width="30.88" height="12.5"/><rect class="cls-1" x="243.35" y="213.91" width="30.88" height="12.5"/><rect class="cls-1" x="288.2" y="126.95" width="30.88" height="12.5"/><rect class="cls-1" x="322.01" y="126.95" width="30.88" height="12.5"/><rect class="cls-1" x="190.42" y="306.32" width="30.88" height="12.5"/><rect class="cls-1" x="174.25" y="321.76" width="30.88" height="12.5"/><rect class="cls-12" x="338.18" y="187.08" width="30.88" height="12.5"/><rect class="cls-12" x="384.5" y="257.28" width="30.88" height="12.5"/><rect class="cls-12" x="203.66" y="276.4" width="30.88" height="12.5"/><rect class="cls-12" x="238.94" y="276.4" width="30.88" height="12.5"/><rect class="cls-12" x="241.88" y="258.75" width="30.88" height="12.5"/><rect class="cls-12" x="373.47" y="187.08" width="30.88" height="12.5"/><rect class="cls-1" x="357.95" y="87.56" width="30.88" height="12.5"/><rect class="cls-1" x="346.19" y="43.08" width="30.88" height="12.5"/><rect class="cls-12" x="329.28" y="60.36" width="30.88" height="12.5"/><rect class="cls-12" x="364.56" y="60.36" width="30.88" height="12.5"/><rect class="cls-1" x="281.58" y="320.5" width="30.88" height="12.5"/><rect class="cls-12" x="264.67" y="337.78" width="30.88" height="12.5"/><rect class="cls-12" x="299.96" y="337.78" width="30.88" height="12.5"/><rect class="cls-1" x="131.9" y="164.96" width="30.88" height="12.5"/><rect class="cls-12" x="115" y="182.23" width="30.88" height="12.5"/><rect class="cls-12" x="150.28" y="182.23" width="30.88" height="12.5"/><rect class="cls-1" x="119.85" y="258.02" width="30.88" height="12.5"/><rect class="cls-12" x="256.59" y="198.26" width="30.88" height="12.5"/><rect class="cls-12" x="210.27" y="321.03" width="30.88" height="12.5"/><rect class="cls-12" x="305.84" y="111.51" width="30.88" height="12.5"/><rect class="cls-1" x="102.21" y="216.64" width="30.88" height="12.5"/><rect class="cls-12" x="119.85" y="201.2" width="30.88" height="12.5"/><rect class="cls-12" x="198.51" y="126.06" width="30.88" height="12.5"/><rect class="cls-1" x="305.84" y="214.28" width="30.88" height="12.5"/><rect class="cls-1" x="472.24" y="214.28" width="30.88" height="12.5" transform="translate(975.36 441.05) rotate(180)"/><rect class="cls-1" x="484.01" y="169.8" width="30.88" height="12.5" transform="translate(998.89 352.1) rotate(180)"/><rect class="cls-1" x="595.75" y="213.91" width="30.88" height="12.5" transform="translate(1222.37 440.32) rotate(180)"/><rect class="cls-1" x="550.9" y="126.95" width="30.88" height="12.5" transform="translate(1132.68 266.4) rotate(180)"/><rect class="cls-1" x="517.09" y="126.95" width="30.88" height="12.5" transform="translate(1065.05 266.4) rotate(180)"/><rect class="cls-12" x="500.91" y="187.08" width="30.88" height="12.5" transform="translate(1032.7 386.65) rotate(180)"/><rect class="cls-12" x="454.6" y="257.28" width="30.88" height="12.5" transform="translate(940.08 527.06) rotate(180)"/><rect class="cls-12" x="635.44" y="276.4" width="30.88" height="12.5" transform="translate(1301.76 565.29) rotate(180)"/><rect class="cls-12" x="600.16" y="276.4" width="30.88" height="12.5" transform="translate(1231.19 565.29) rotate(180)"/><rect class="cls-12" x="597.22" y="258.75" width="30.88" height="12.5" transform="translate(1225.31 530) rotate(180)"/><rect class="cls-12" x="465.63" y="187.08" width="30.88" height="12.5" transform="translate(962.13 386.65) rotate(180)"/><rect class="cls-1" x="224.84" y="370.23" width="30.88" height="12.5" transform="translate(480.55 752.95) rotate(180)"/><rect class="cls-12" x="241.75" y="387.5" width="30.88" height="12.5" transform="translate(514.37 787.5) rotate(180)"/><rect class="cls-12" x="206.46" y="387.5" width="30.88" height="12.5" transform="translate(443.8 787.5) rotate(180)"/><rect class="cls-1" x="75.39" y="370.23" width="30.88" height="12.5" transform="translate(181.65 752.95) rotate(180)"/><rect class="cls-12" x="92.29" y="387.5" width="30.88" height="12.5" transform="translate(215.46 787.5) rotate(180)"/><rect class="cls-12" x="57.01" y="387.5" width="30.88" height="12.5" transform="translate(144.89 787.5) rotate(180)"/><rect class="cls-1" x="557.52" y="320.5" width="30.88" height="12.5" transform="translate(1145.91 653.5) rotate(180)"/><rect class="cls-12" x="574.43" y="337.78" width="30.88" height="12.5" transform="translate(1179.73 688.05) rotate(180)"/><rect class="cls-12" x="539.14" y="337.78" width="30.88" height="12.5" transform="translate(1109.16 688.05) rotate(180)"/><rect class="cls-12" x="582.51" y="198.26" width="30.88" height="12.5" transform="translate(1195.9 409.02) rotate(180)"/><rect class="cls-12" x="628.83" y="321.03" width="30.88" height="12.5" transform="translate(1288.53 654.55) rotate(180)"/><rect class="cls-12" x="478.21" y="338.6" width="30.88" height="12.5" transform="translate(987.3 689.69) rotate(180)"/><rect class="cls-12" x="442.93" y="338.6" width="30.88" height="12.5" transform="translate(916.73 689.69) rotate(180)"/><rect class="cls-1" x="400.29" y="382.7" width="30.88" height="12.5" transform="translate(831.46 777.9) rotate(180)"/><rect class="cls-12" x="664.06" y="399.98" width="30.88" height="12.5" transform="translate(1359 812.45) rotate(180)"/><rect class="cls-12" x="664.06" y="368.01" width="30.88" height="12.5" transform="translate(1359 748.53) rotate(180)"/><rect class="cls-12" x="679.88" y="383.56" width="30.88" height="12.5" transform="translate(1390.64 779.63) rotate(180)"/><rect class="cls-12" x="644.47" y="383.56" width="30.88" height="12.5" transform="translate(1319.81 779.63) rotate(180)"/><rect class="cls-12" x="471.6" y="383.23" width="30.88" height="12.5" transform="translate(974.07 778.95) rotate(180)"/><rect class="cls-1" x="512.05" y="424.67" width="30.88" height="12.5"/><rect class="cls-12" x="495.15" y="441.95" width="30.88" height="12.5"/><rect class="cls-12" x="530.43" y="441.95" width="30.88" height="12.5"/><rect class="cls-1" x="614.86" y="413.65" width="30.88" height="12.5"/><rect class="cls-12" x="597.95" y="441.95" width="30.88" height="12.5"/><rect class="cls-12" x="633.23" y="441.95" width="30.88" height="12.5"/><rect class="cls-12" x="61.39" y="454.43" width="30.88" height="12.5"/><rect class="cls-12" x="162.67" y="438.01" width="30.88" height="12.5"/><rect class="cls-12" x="105.66" y="422.46" width="30.88" height="12.5"/><rect class="cls-12" x="89.84" y="438.01" width="30.88" height="12.5"/><rect class="cls-12" x="125.25" y="438.01" width="30.88" height="12.5"/><rect class="cls-12" x="533.26" y="111.51" width="30.88" height="12.5" transform="translate(1097.39 235.53) rotate(180)"/><rect class="cls-12" x="516.85" y="58.82" width="30.88" height="12.5" transform="translate(1064.57 130.13) rotate(180)"/><rect class="cls-12" x="640.59" y="126.06" width="30.88" height="12.5" transform="translate(1312.05 264.62) rotate(180)"/><rect class="cls-1" x="533.26" y="214.28" width="30.88" height="12.5" transform="translate(1097.39 441.05) rotate(180)"/><rect class="cls-1" x="188.29" y="41.21" width="30.88" height="12.5"/><rect class="cls-12" x="63.54" y="129.76" width="30.88" height="12.5"/><rect class="cls-12" x="102.05" y="140.54" width="30.88" height="12.5"/><rect class="cls-12" x="26.58" y="152.86" width="30.88" height="12.5"/><rect class="cls-12" x="82.36" y="153.42" width="30.88" height="12.5"/><rect class="cls-1" x="169.39" y="58.73" width="30.88" height="12.5"/><rect class="cls-1" x="500.15" y="41.21" width="30.88" height="12.5"/><rect class="cls-1" x="481.26" y="58.73" width="30.88" height="12.5"/></g></g><g id="Pipes"><g><path class="cls-3" d="M83.3,206.14H3.66v-13H76.8V4.96h13V199.64c0,3.59-2.91,6.5-6.5,6.5Z"/><g><path class="cls-3" d="M686.35,.5V74.93H89.53v13H665.46V402.13h-153.62c-3.59,0-6.5,2.91-6.5,6.5v47.86h13v-41.36h147.12v43.97h13V87.93h14.39c3.59,0,6.5-2.91,6.5-6.5V.5h-13Z"/><rect class="cls-3" x="686.54" y="40.56" width="12.7" height="5.9"/><rect class="cls-3" x="554.9" y="405.74" width="12.7" height="5.9" transform="translate(969.93 -152.56) rotate(90)"/><rect class="cls-3" x="567.75" y="405.74" width="12.7" height="5.9" transform="translate(982.78 -165.41) rotate(90)"/></g><g><g><rect class="cls-3" x="22.04" y="425.83" width="209.64" height="13"/><g><rect class="cls-3" x="22.04" y="407.91" width="209.64" height="13"/><rect class="cls-3" x="111.47" y="408.16" width="8.97" height="12.63"/><rect class="cls-3" x="130.15" y="408.16" width="8.97" height="12.63"/></g></g><rect class="cls-3" x="111.47" y="426.07" width="8.97" height="12.63"/><rect class="cls-3" x="130.15" y="426.07" width="8.97" height="12.63"/></g></g></g><g id="Gears"><path class="cls-3" d="M260.17,165.25v-17.15h-10.44c-.5-2.87-1.24-5.66-2.22-8.34l9.02-5.21-8.57-14.85-9.04,5.22c-1.85-2.2-3.89-4.24-6.1-6.1l5.22-9.04-14.85-8.57-5.21,9.03c-2.68-.97-5.47-1.71-8.34-2.21v-10.44h-17.15v10.44c-2.87,.5-5.66,1.24-8.34,2.22l-5.21-9.02-14.85,8.57,5.22,9.04c-2.2,1.85-4.24,3.89-6.1,6.1l-9.04-5.22-8.57,14.85,9.03,5.21c-.97,2.68-1.71,5.47-2.21,8.34h-10.44v17.15h10.44c.5,2.87,1.24,5.66,2.22,8.34l-9.02,5.21,8.57,14.85,9.04-5.22c1.85,2.2,3.89,4.24,6.1,6.1l-5.22,9.04,14.85,8.57,5.21-9.03c2.68,.97,5.47,1.71,8.34,2.21v10.44h17.15v-10.44c2.87-.5,5.66-1.24,8.34-2.22l5.21,9.02,14.85-8.57-5.22-9.04c2.2-1.85,4.24-3.89,6.1-6.1l9.04,5.22,8.57-14.85-9.03-5.21c.97-2.68,1.71-5.47,2.21-8.34h10.44Zm-59.09,23.39c-17.64,0-31.95-14.3-31.95-31.95s14.3-31.95,31.95-31.95,31.95,14.3,31.95,31.95-14.3,31.95-31.95,31.95Z"/><path class="cls-3" d="M182.22,322.67v-17.15h-10.44c-.5-2.87-1.24-5.66-2.22-8.34l9.02-5.21-8.57-14.85-9.04,5.22c-1.85-2.2-3.89-4.24-6.1-6.1l5.22-9.04-14.85-8.57-5.21,9.03c-2.68-.97-5.47-1.71-8.34-2.21v-10.44h-17.15v10.44c-2.87,.5-5.66,1.24-8.34,2.22l-5.21-9.02-14.85,8.57,5.22,9.04c-2.2,1.85-4.24,3.89-6.1,6.1l-9.04-5.22-8.57,14.85,9.03,5.21c-.97,2.68-1.71,5.47-2.21,8.34h-10.44v17.15h10.44c.5,2.87,1.24,5.66,2.22,8.34l-9.02,5.21,8.57,14.85,9.04-5.22c1.85,2.2,3.89,4.24,6.1,6.1l-5.22,9.04,14.85,8.57,5.21-9.03c2.68,.97,5.47,1.71,8.34,2.21v10.44h17.15v-10.44c2.87-.5,5.66-1.24,8.34-2.22l5.21,9.02,14.85-8.57-5.22-9.04c2.2-1.85,4.24-3.89,6.1-6.1l9.04,5.22,8.57-14.85-9.03-5.21c.97-2.68,1.71-5.47,2.21-8.34h10.44Zm-59.09,23.39c-17.64,0-31.95-14.3-31.95-31.95s14.3-31.95,31.95-31.95,31.95,14.3,31.95,31.95-14.3,31.95-31.95,31.95Z"/><path class="cls-3" d="M617.34,320.22v-11.57h-7.05c-.34-1.94-.84-3.82-1.5-5.63l6.09-3.52-5.79-10.02-6.1,3.52c-1.25-1.49-2.63-2.87-4.12-4.12l3.52-6.1-10.02-5.79-3.52,6.09c-1.81-.66-3.69-1.16-5.63-1.49v-7.05h-11.57v7.05c-1.94,.34-3.82,.84-5.63,1.5l-3.52-6.09-10.02,5.79,3.52,6.11c-1.49,1.25-2.87,2.63-4.12,4.12l-6.1-3.52-5.79,10.02,6.09,3.52c-.66,1.81-1.16,3.69-1.49,5.63h-7.05v11.58h7.05c.34,1.94,.84,3.82,1.5,5.63l-6.09,3.52,5.79,10.02,6.1-3.52c1.25,1.49,2.63,2.87,4.12,4.12l-3.52,6.1,10.02,5.79,3.52-6.09c1.81,.66,3.69,1.16,5.63,1.49v7.05h11.57v-7.05c1.94-.34,3.82-.84,5.63-1.5l3.52,6.09,10.02-5.79-3.52-6.11c1.49-1.25,2.87-2.63,4.12-4.12l6.1,3.52,5.79-10.02-6.09-3.52c.66-1.81,1.16-3.69,1.49-5.63h7.05Zm-39.89,15.79c-11.91,0-21.57-9.66-21.57-21.57s9.66-21.57,21.57-21.57,21.57,9.66,21.57,21.57-9.66,21.57-21.57,21.57Z"/><path class="cls-3" d="M560.76,156.27v-11.57h-7.05c-.34-1.94-.84-3.82-1.5-5.63l6.09-3.52-5.79-10.02-6.1,3.52c-1.25-1.49-2.63-2.87-4.12-4.12l3.52-6.1-10.02-5.79-3.52,6.09c-1.81-.66-3.69-1.16-5.63-1.49v-7.05h-11.57v7.05c-1.94,.34-3.82,.84-5.63,1.5l-3.52-6.09-10.02,5.79,3.52,6.1c-1.49,1.25-2.87,2.63-4.12,4.12l-6.1-3.52-5.79,10.02,6.09,3.52c-.66,1.81-1.16,3.69-1.49,5.63h-7.05v11.57h7.05c.34,1.94,.84,3.82,1.5,5.63l-6.09,3.52,5.79,10.02,6.1-3.52c1.25,1.49,2.63,2.87,4.12,4.12l-3.52,6.1,10.02,5.79,3.52-6.09c1.81,.66,3.69,1.16,5.63,1.49v7.05h11.57v-7.05c1.94-.34,3.82-.84,5.63-1.5l3.52,6.09,10.02-5.79-3.52-6.11c1.49-1.25,2.87-2.63,4.12-4.12l6.1,3.52,5.79-10.02-6.09-3.52c.66-1.81,1.16-3.69,1.49-5.63h7.05Zm-39.89,15.79c-11.91,0-21.57-9.66-21.57-21.57s9.66-21.57,21.57-21.57,21.57,9.66,21.57,21.57-9.66,21.57-21.57,21.57Z"/></g><g id="Text"><g><g><path class="cls-13" d="M141.64,383.17v-80.18H37.28v-51.33L126.79,39.55h76.36V252.94h33.09v50.06h-33.09v80.18h-61.51Zm-52.6-130.24h52.6V107l-52.6,145.94Z"/><path class="cls-13" d="M203.15,383.67h-61.51c-.28,0-.5-.22-.5-.5v-79.68H37.28c-.28,0-.5-.22-.5-.5v-51.33c0-.07,.01-.13,.04-.19L126.33,39.35c.08-.19,.26-.31,.46-.31h76.36c.28,0,.5,.22,.5,.5V252.44h32.59c.28,0,.5,.22,.5,.5v50.06c0,.28-.22,.5-.5,.5h-32.59v79.68c0,.28-.22,.5-.5,.5Zm-61.01-1h60.51v-79.68c0-.28,.22-.5,.5-.5h32.59v-49.06h-32.59c-.28,0-.5-.22-.5-.5V40.05H127.12L37.78,251.76v50.73h103.86c.28,0,.5,.22,.5,.5v79.68Zm-.5-129.24h-52.6c-.16,0-.32-.08-.41-.21-.09-.13-.12-.3-.06-.46l52.6-145.93c.08-.23,.32-.36,.56-.32,.24,.04,.41,.25,.41,.49V252.94c0,.28-.22,.5-.5,.5Zm-51.89-1h51.39V109.86l-51.39,142.57Z"/></g><g><path class="cls-13" d="M359.27,389.11c-20.65,0-37.76-4.24-51.33-12.73-13.58-8.48-23.76-20.15-30.54-35-6.79-14.85-10.18-32.03-10.18-51.54V135.85c0-20.08,3.25-37.68,9.76-52.82,6.5-15.13,16.54-26.94,30.12-35.42,13.58-8.48,30.97-12.73,52.18-12.73s38.11,4.24,51.54,12.73c13.43,8.48,23.4,20.3,29.91,35.42,6.5,15.13,9.76,32.74,9.76,52.82v154c0,19.51-3.39,36.7-10.18,51.54-6.79,14.85-16.97,26.51-30.55,35-13.58,8.49-30.41,12.73-50.48,12.73Zm0-57.7c7.64,0,13.15-2.4,16.54-7.21,3.39-4.81,5.65-10.53,6.79-17.18,1.13-6.64,1.7-12.79,1.7-18.45V137.12c0-6.22-.5-12.73-1.48-19.51-.99-6.79-3.18-12.65-6.58-17.61-3.39-4.94-9.05-7.42-16.97-7.42s-13.65,2.48-17.18,7.42c-3.54,4.95-5.8,10.82-6.79,17.61-.99,6.79-1.48,13.3-1.48,19.51v151.45c0,5.66,.56,11.81,1.7,18.45,1.13,6.65,3.53,12.38,7.21,17.18,3.67,4.81,9.19,7.21,16.54,7.21Z"/><path class="cls-13" d="M359.27,389.61c-20.64,0-38-4.31-51.6-12.8-13.6-8.5-23.94-20.35-30.73-35.21-6.79-14.84-10.23-32.26-10.23-51.75V135.85c0-20.06,3.3-37.9,9.8-53.01,6.52-15.16,16.72-27.15,30.31-35.65,13.59-8.5,31.24-12.8,52.45-12.8s38.36,4.31,51.81,12.8c13.45,8.5,23.58,20.49,30.1,35.65,6.5,15.13,9.8,32.97,9.8,53.01v154c0,19.49-3.44,36.91-10.23,51.75-6.8,14.87-17.14,26.72-30.73,35.21-13.59,8.5-30.67,12.8-50.75,12.8Zm0-354.23c-21.02,0-38.48,4.26-51.92,12.65-13.42,8.39-23.49,20.23-29.93,35.2-6.45,14.99-9.72,32.69-9.72,52.62v154c0,19.35,3.41,36.62,10.14,51.34,6.71,14.69,16.93,26.39,30.35,34.78,13.43,8.39,30.61,12.65,51.07,12.65s36.79-4.26,50.22-12.65c13.43-8.39,23.64-20.09,30.35-34.78,6.73-14.71,10.14-31.99,10.14-51.34V135.85c0-19.91-3.27-37.61-9.72-52.62-6.44-14.97-16.44-26.81-29.72-35.2-13.29-8.39-30.54-12.65-51.28-12.65Zm0,296.54c-7.49,0-13.19-2.49-16.94-7.41-3.71-4.85-6.17-10.71-7.31-17.4-1.13-6.63-1.7-12.86-1.7-18.54V137.12c0-6.25,.5-12.84,1.49-19.59,.99-6.84,3.31-12.83,6.88-17.82,3.62-5.07,9.54-7.63,17.59-7.63s13.9,2.57,17.38,7.64c3.42,4.98,5.66,10.98,6.66,17.82,.99,6.79,1.49,13.38,1.49,19.59v151.45c0,5.63-.57,11.87-1.7,18.54-1.14,6.7-3.45,12.55-6.87,17.39-3.47,4.93-9.18,7.42-16.95,7.42Zm0-238.84c-7.71,0-13.35,2.43-16.77,7.21-3.47,4.86-5.73,10.71-6.7,17.39-.98,6.7-1.48,13.24-1.48,19.44v151.45c0,5.62,.57,11.8,1.69,18.37,1.11,6.53,3.5,12.24,7.12,16.96,3.55,4.66,8.99,7.02,16.15,7.02s12.86-2.36,16.14-7c3.33-4.72,5.59-10.43,6.7-16.98,1.12-6.61,1.69-12.79,1.69-18.37V137.12c0-6.15-.5-12.7-1.48-19.44-.98-6.68-3.16-12.54-6.49-17.39-3.28-4.78-8.85-7.21-16.56-7.21Z"/></g><g><path class="cls-13" d="M590.47,383.17v-80.18h-104.36v-51.33l89.51-212.12h76.36V252.94h33.09v50.06h-33.09v80.18h-61.51Zm-52.6-130.24h52.6V107l-52.6,145.94Z"/><path class="cls-13" d="M651.99,383.67h-61.51c-.28,0-.5-.22-.5-.5v-79.68h-103.86c-.28,0-.5-.22-.5-.5v-51.33c0-.07,.01-.13,.04-.19l89.51-212.12c.08-.19,.26-.31,.46-.31h76.36c.28,0,.5,.22,.5,.5V252.44h32.59c.28,0,.5,.22,.5,.5v50.06c0,.28-.22,.5-.5,.5h-32.59v79.68c0,.28-.22,.5-.5,.5Zm-61.01-1h60.51v-79.68c0-.28,.22-.5,.5-.5h32.59v-49.06h-32.59c-.28,0-.5-.22-.5-.5V40.05h-75.53l-89.34,211.72v50.73h103.86c.28,0,.5,.22,.5,.5v79.68Zm-.5-129.24h-52.6c-.16,0-.32-.08-.41-.21-.09-.13-.12-.3-.06-.46l52.6-145.93c.08-.23,.31-.37,.56-.32,.24,.04,.41,.25,.41,.49V252.94c0,.28-.22,.5-.5,.5Zm-51.89-1h51.39V109.86l-51.39,142.57Z"/></g></g><g><path class="cls-13" d="M283.84,460.05v-51.81h18.74v3.77h-13.82v19.45h11.26v3.58h-11.26v21.36h13.94v3.65h-18.87Z"/><path class="cls-13" d="M309.36,460.05v-51.81h11.71c3.24,0,5.79,.52,7.64,1.57,1.85,1.04,3.19,2.56,4,4.54,.81,1.98,1.22,4.34,1.22,7.07,0,1.92-.21,3.73-.64,5.44-.43,1.71-1.15,3.16-2.17,4.35-1.02,1.19-2.47,1.98-4.35,2.37l7.93,26.48h-4.73l-7.61-25.46h-8.12v25.46h-4.86Zm4.86-29.04h6.59c2.17,0,3.86-.36,5.05-1.09,1.19-.72,2.05-1.79,2.56-3.2,.51-1.41,.77-3.18,.77-5.31,0-3.2-.55-5.58-1.66-7.16-1.11-1.58-3.3-2.37-6.59-2.37h-6.72v19.12Z"/><path class="cls-13" d="M342.11,460.05v-51.81h11.7c3.24,0,5.79,.52,7.64,1.57s3.19,2.56,4,4.54c.81,1.98,1.22,4.34,1.22,7.07,0,1.92-.21,3.73-.64,5.44-.43,1.71-1.15,3.16-2.17,4.35-1.02,1.19-2.47,1.98-4.35,2.37l7.93,26.48h-4.73l-7.61-25.46h-8.12v25.46h-4.86Zm4.86-29.04h6.59c2.17,0,3.86-.36,5.05-1.09,1.19-.72,2.05-1.79,2.56-3.2,.51-1.41,.77-3.18,.77-5.31,0-3.2-.55-5.58-1.66-7.16-1.11-1.58-3.3-2.37-6.59-2.37h-6.72v19.12Z"/><path class="cls-13" d="M387.08,460.69c-3.41,0-6.09-.67-8.03-2.01-1.94-1.34-3.31-3.22-4.09-5.63-.79-2.41-1.18-5.17-1.18-8.28v-21.49c0-3.16,.42-5.89,1.25-8.22,.83-2.32,2.22-4.12,4.16-5.4,1.94-1.28,4.57-1.92,7.9-1.92s6.02,.64,7.96,1.92c1.94,1.28,3.31,3.08,4.13,5.4,.81,2.33,1.22,5.06,1.22,8.22v21.56c0,3.11-.39,5.86-1.18,8.25-.79,2.39-2.14,4.25-4.06,5.6-1.92,1.34-4.6,2.01-8.06,2.01Zm0-3.9c2.3,0,4.05-.46,5.24-1.38,1.19-.92,2.02-2.2,2.46-3.84,.45-1.64,.67-3.55,.67-5.72v-23.47c0-2.17-.22-4.07-.67-5.69-.45-1.62-1.27-2.87-2.46-3.74-1.19-.87-2.94-1.31-5.24-1.31s-4,.44-5.21,1.31c-1.22,.87-2.05,2.12-2.49,3.74-.45,1.62-.67,3.52-.67,5.69v23.47c0,2.17,.22,4.08,.67,5.72,.45,1.64,1.28,2.92,2.49,3.84,1.22,.92,2.95,1.38,5.21,1.38Z"/><path class="cls-13" d="M408.44,460.05v-51.81h11.71c3.24,0,5.79,.52,7.64,1.57,1.86,1.04,3.19,2.56,4,4.54,.81,1.98,1.21,4.34,1.21,7.07,0,1.92-.21,3.73-.64,5.44-.43,1.71-1.15,3.16-2.17,4.35-1.02,1.19-2.47,1.98-4.35,2.37l7.93,26.48h-4.73l-7.61-25.46h-8.12v25.46h-4.86Zm4.86-29.04h6.59c2.17,0,3.86-.36,5.05-1.09,1.19-.72,2.05-1.79,2.56-3.2,.51-1.41,.77-3.18,.77-5.31,0-3.2-.55-5.58-1.66-7.16-1.11-1.58-3.3-2.37-6.59-2.37h-6.72v19.12Z"/></g></g><g id="Character"><g><path class="cls-5" d="M267.25,211.55l3.71,53.51-23.2-10.83-5.88,23.51s49.8,27.84,54.75,26.91c4.95-.93-7.42-109.18-7.42-109.18l-21.96,16.08Z"/><path class="cls-5" d="M300.68,340.63s26.71-9.18,37.15-17.95c10.43-8.77-44.24-114.78-44.24-114.78,0,0,.83,97.25,7.1,132.73Z"/><path class="cls-4" d="M412.51,306.38l-3.09,.46c.02,.19,.04,.35,.03,.46-.23,3.97-21.7,14.54-36.86,20.26-3.31,2.57-7.75,3.86-13.33,3.86-.05,0-.1,0-.15,0-11.7,1.13-34.17-4.02-39.25-7.5l-5.48,56.04s0,0,0,0c.88,.43,1.78,.85,2.69,1.26,11.87,5.26,25.93,7.9,42.19,7.9,18.75,0,34.67-3.7,47.75-11.11,.1-.05,.19-.11,.29-.16,.83-.47,1.64-.96,2.44-1.46,.97-.6,1.91-1.23,2.85-1.87,.29-.19,.56-.4,.85-.59,.65-.46,1.3-.92,1.94-1.4,.3-.23,.6-.45,.9-.68,.64-.49,1.26-.99,1.88-1.49,.25-.21,.51-.41,.75-.62,.85-.71,1.69-1.44,2.5-2.18,0,0,0,0,0,0-3.49-24.79-8.93-61.16-8.93-61.16Z"/><path class="cls-3" d="M292.74,241.31s24.75,60.49,25.05,62.63c.31,2.14-2.44,15.89,1.53,19.55,3.97,3.67,30.55,9.78,41.86,7.64,11.3-2.14,47.97-18.64,48.27-23.83,.31-5.19-36.36-106.63-40.94-118.85-4.58-12.22-23.22-16.5-35.75-15.28-12.53,1.22-42.77,9.17-48.27,16.8s8.25,51.33,8.25,51.33Z"/><g><path class="cls-3" d="M294.88,185.09s-3.06,27.8-1.22,33.61c1.83,5.81,10.17,21.77,10.17,21.77,0,0,13.96-17.5,16.71-19.33,2.75-1.83,28.11,14.36,28.11,14.36,0,0,.92-17.42-2.75-31.77-3.67-14.36-10.08-29.94-12.22-32.69-2.14-2.75-2.14,7.33-10.08,14.05-7.94,6.72-28.72,0-28.72,0Z"/><g><path class="cls-3" d="M292.62,189.93s3.63,9.23,11.54,20.45,18.8,19.46,18.8,19.46c0,0,8.58-22.1,10.88-35.29,2.31-13.19-1.65-26.39-1.65-26.39,0,0-1.65,19.79-8.58,23.75-6.93,3.96-31-1.98-31-1.98Z"/><path class="cls-8" d="M310.74,193.02c-8.73-.78-18.11-3.09-18.11-3.09,0,0,3.63,9.23,11.54,20.45,.76,1.08,1.56,2.13,2.37,3.15l13.64-15.79-9.44-4.72Z"/></g></g><g><path class="cls-5" d="M332.2,168.16s10.03,40.15,13.7,70.39c3.67,30.25,12.53,119.77,12.53,119.77,0,0,27.5-7.94,41.86-18.33,14.36-10.39,18.94-17.42,18.94-17.42,0,0-23.53-102.96-23.53-104.49s2.44-16.8,2.44-16.8c0,0,41.55-19.55,57.44-31.47,15.89-11.92,11.92-18.33,4.28-21.39s-31.47,.31-44.61,3.97c-13.14,3.67-19.86,6.11-19.86,6.11,0,0-14.67-1.22-28.11,1.83s-35.09,7.82-35.09,7.82Z"/><path class="cls-3" d="M353.3,270.88c-.48,1.52-1.01,3.16-1.6,4.95"/><path class="cls-7" d="M358.01,202.88l4.69,2.99s-1.55,24.34-3.67,39.72c-1.28,9.26-2.39,14.34-4.46,21.2"/><path class="cls-7" d="M349.71,173.89c3.08,5.65,7.49,13.98,7.49,15.17,0,1.83-4.58,10.39-4.58,10.39l2.86,1.82"/><path class="cls-3" d="M346.81,168.62s.49,.87,1.25,2.25"/><path class="cls-7" d="M403.07,303.21c-3.4,2.35-8.55,5.36-15.62,8.07-14.36,5.5-16.8,6.42-16.8,6.42l2.14,7.33s25.05-4.58,36.66-17.72"/><path class="cls-3" d="M408.23,299.05s-.67,.7-2.05,1.83"/><polyline class="cls-7" points="403.63 185.06 398.15 201.28 410.98 182.03"/><line class="cls-3" x1="406.09" y1="177.76" x2="404.83" y2="181.5"/></g><g><path class="cls-5" d="M294.88,185.09s3.06,55.61,6.42,82.8,8.86,94.41,8.86,94.41c0,0-10.69-.92-17.72-9.47-7.03-8.55-10.39-14.97-10.39-14.97v-60.49c0-2.44-4.89-30.25-9.47-44-4.58-13.75-11.3-29.64-7.33-36.36,3.97-6.72,16.5-16.8,21.08-18.03s8.25,0,8.55,6.11Z"/><path class="cls-3" d="M293.16,254.93c1.73,5.4,3.4,10.19,4.77,13.27"/><path class="cls-7" d="M282.72,195.68c-.52,3.97-.76,7.04-.37,7.44,1.22,1.22,6.11,5.5,6.11,5.5,0,0-6.11,7.64-5.19,11.61,.6,2.61,4.63,17.75,8.72,30.95"/><path class="cls-3" d="M286.02,175.31s-1.61,8.76-2.75,16.45"/><line class="cls-3" x1="289.59" y1="316.56" x2="284.19" y2="314.02"/><polyline class="cls-7" points="284.19 305.77 299.16 311.88 299.16 321.05 292.31 317.83"/></g><g><path class="cls-3" d="M272.05,148.33l5.22,12.79s-6.79-7.05-8.36-.78,3.13,13.58,6.27,13.58,6.79,.26,6.79,.26c0,0,10.97,19.32,17.76,22.98,6.79,3.66,15.93,6.79,21.67,3.66,5.74-3.13,8.88-11.75,10.71-18.28s.52-26.11,.52-26.11l-9.4-38.64s6.53-2.35,6.53-6.79-15.14-5.74-15.14-5.74c0,0,6.01-7.05-1.57-8.09-7.57-1.04-32.12,13.58-32.9,14.1-.78,.52,4.18-9.14-2.09-5.74-6.27,3.39-13.58,20.11-12.79,24.02,.78,3.92,6.79,18.8,6.79,18.8Z"/><path class="cls-4" d="M314.61,105.24s6.01-7.05-1.57-8.09c-7.57-1.04-32.12,13.58-32.9,14.1-.78,.52,4.18-9.14-2.09-5.74-6.27,3.39-13.58,20.11-12.79,24.02,.78,3.92,6.79,18.8,6.79,18.8l5.22,12.79s6.01,5.48,3.92,1.31-6.27-13.58-5.22-14.88c1.04-1.31,6.27-3.39,6.53-6.27,.26-2.87-4.96-11.23-3.39-13.32,1.57-2.09,23.76,1.83,27.68-.52,3.92-2.35-1.04-8.09-1.04-8.09l17.49-1.57s6.53-2.35,6.53-6.79-15.14-5.74-15.14-5.74Z"/><path class="cls-3" d="M318.01,169.74s-2.35,4.44-6.01,4.7"/><path class="cls-13" d="M301.82,157.73c.73,1.57,.42,3.26-.69,3.78-1.11,.52-2.6-.34-3.33-1.91-.73-1.57-.42-3.26,.69-3.78,1.11-.52,2.6,.34,3.33,1.91Z"/><path class="cls-13" d="M322.63,153.61c.27,1.71-.49,3.25-1.7,3.44s-2.41-1.04-2.68-2.75c-.27-1.71,.49-3.25,1.7-3.44,1.21-.19,2.41,1.04,2.68,2.75Z"/><path class="cls-3" d="M312,184.36s4.44,0,7.57-2.35"/><path class="cls-6" d="M288.76,154.33s3.66-5.22,13.58-2.09"/><path class="cls-6" d="M315.14,149.37s1.83-6.01,8.88-6.53"/><path class="cls-3" d="M329.76,144.15s1.83-4.18,3.92-1.57c2.09,2.61,2.87,7.83,1.57,11.23-1.31,3.39-2.09,6.27-2.09,6.27l-.52-3.66-2.87-12.27Z"/></g><g><path class="cls-3" d="M377.8,123.78s-28.72-5.22-30.55-5.22-23.24,3.92-26.37,5.22c-3.13,1.31-26.89,8.09-26.37,9.66,.52,1.57,3.39,2.09,3.39,2.09,0,0,.52,2.35,8.88,3.39,8.36,1.04,27.94-1.57,28.2,.26,.26,1.83-1.31,3.39-1.31,3.39l2.35,4.18s8.62-1.31,11.49-3.39c2.87-2.09,10.97-8.62,10.97-8.62l17.49,1.31,1.83-12.27Z"/><path class="cls-3" d="M314.09,127.44s-11.75,4.96-13.58,6.01c-1.83,1.04,3.39,3.13,6.53,2.61,3.13-.52,15.14-5.22,16.97-5.74,1.83-.52,10.18,1.57,16.19,2.35,6.01,.78,10.18-1.04,11.23-1.57"/></g><path class="cls-5" d="M448.56,165.53s-9.17,2.44-20.16,0c-11-2.44-40.02-16.8-40.02-16.8l-19.86-5.81,4.58-23.22s50.11,6.11,64.16,11.3c14.05,5.19,34.52,17.11,33.91,21.39-.61,4.28-11.92,13.44-11.92,13.44"/><path class="cls-7" d="M276.46,265.36s18.38,21.07,33.9,13.98c15.51-7.09,23.17-52.47,23.17-52.47"/><path class="cls-7" d="M252.33,249.47s14.55,18.19,33.9,16.47c19.34-1.72,25.85-24.13,25.66-35.24"/><g><g><rect class="cls-9" x="249.59" y="236.26" width="6.48" height="30.38" transform="translate(93.24 -67.43) rotate(18.57)"/><rect class="cls-8" x="253" y="233.75" width="10.05" height="4.47" transform="translate(88.59 -69.89) rotate(18.57)"/></g><g><rect class="cls-9" x="263.14" y="240.81" width="6.48" height="30.38" transform="translate(95.4 -71.51) rotate(18.57)"/><rect class="cls-8" x="266.55" y="238.31" width="10.05" height="4.47" transform="translate(90.75 -73.96) rotate(18.57)"/></g><rect class="cls-8" x="247.87" y="245.46" width="21" height="23.23" transform="translate(95.32 -68.9) rotate(18.57)"/><g><polygon class="cls-9" points="246.41 279.45 227.85 273.21 237.69 256.96 248.38 260.55 246.41 279.45"/><rect class="cls-10" x="224.03" y="275.79" width="19.59" height="20.79" transform="translate(103.32 -59.56) rotate(18.57)"/><rect class="cls-10" x="237.86" y="238.74" width="16.82" height="20.79" transform="translate(92.16 -65.46) rotate(18.57)"/></g><g><polygon class="cls-9" points="273.52 288.56 254.95 282.32 264.79 266.07 275.48 269.66 273.52 288.56"/><rect class="cls-10" x="251.13" y="284.9" width="19.59" height="20.79" transform="translate(107.63 -67.72) rotate(18.57)"/><rect class="cls-10" x="264.96" y="247.84" width="16.82" height="20.79" transform="translate(96.47 -73.62) rotate(18.57)"/></g></g><g><path class="cls-3" d="M235.3,235.29s-2.16,3.56-1.53,4.58c.64,1.02,6.87,4.45,7.76,4.71,.89,.25,3.31-1.02,3.18-2.67s-4.96-5.22-6.49-6.11c-1.53-.89-2.29-1.02-2.93-.51Z"/><path class="cls-3" d="M231.87,242.33s-1.04,4.04-.14,4.83,7.87,2.28,8.79,2.27,2.87-1.93,2.28-3.48c-.6-1.55-6.26-3.56-7.98-3.98-1.72-.41-2.49-.31-2.95,.36Z"/><path class="cls-3" d="M229.96,249.33s-1.04,4.04-.14,4.83,7.87,2.28,8.79,2.27c.93-.01,2.87-1.93,2.28-3.48-.6-1.55-6.26-3.56-7.98-3.98-1.72-.41-2.49-.31-2.95,.36Z"/><path class="cls-3" d="M230.85,256.07s-1.04,4.04-.14,4.83,7.87,2.28,8.79,2.27c.93-.01,2.87-1.93,2.28-3.48-.6-1.55-6.26-3.56-7.98-3.98-1.72-.41-2.49-.31-2.95,.36Z"/></g></g></g></svg>