<?xml version="1.0" encoding="UTF-8"?><svg xmlns="http://www.w3.org/2000/svg" viewBox="0 0 1095.62 736.25"><defs><style>.cls-1,.cls-2,.cls-3,.cls-4,.cls-5,.cls-6,.cls-7,.cls-8,.cls-9,.cls-10,.cls-11,.cls-12,.cls-13,.cls-14{stroke-miterlimit:10;}.cls-1,.cls-2,.cls-3,.cls-4,.cls-5,.cls-7,.cls-8,.cls-10,.cls-12,.cls-13,.cls-14{stroke-width:2.5px;}.cls-1,.cls-3,.cls-4,.cls-5,.cls-6,.cls-8,.cls-10,.cls-12,.cls-13{stroke:#1e344a;}.cls-1,.cls-9,.cls-11,.cls-14{fill:none;}.cls-2{fill:#fff;}.cls-2,.cls-7,.cls-11,.cls-14{stroke:#4d4b4c;}.cls-15{mix-blend-mode:overlay;opacity:.29;}.cls-15,.cls-16,.cls-7{fill:#f5f5f5;}.cls-17{fill:#1e344a;}.cls-3{fill:#e6af41;}.cls-18,.cls-13{fill:#d8d8d8;}.cls-4{fill:#d65555;}.cls-5,.cls-19{fill:#66b4bf;}.cls-6{fill:#f3f3f3;stroke-width:2.73px;}.cls-20{isolation:isolate;}.cls-8{fill:#9b9b9a;}.cls-21{fill:#264366;}.cls-21,.cls-19{opacity:.2;}.cls-9{stroke:#fff;stroke-width:2px;}.cls-10{fill:#eed58c;}.cls-11{stroke-width:.96px;}.cls-12{fill:#a6d97d;}.cls-22{fill:#51bfa1;opacity:.5;}.cls-23{fill:#c4c4c4;}</style></defs><g class="cls-20"><g id="Layer_2"><g id="OBJECTS"><g><g><polygon class="cls-6" points="1091.11 718.3 3.48 718.3 93.84 634.73 965.51 634.73 1091.11 718.3"/><rect class="cls-17" x="3.48" y="718.17" width="1088.56" height="18.07"/><ellipse class="cls-18" cx="451.72" cy="688.94" rx="46.16" ry="11.01"/><ellipse class="cls-18" cx="358.97" cy="665.22" rx="17.79" ry="7.62"/></g><circle class="cls-22" cx="347.39" cy="251.29" r="251.29"/><g><path class="cls-7" d="M95.53,669.18l39.34-26.54h163.76l1.39,1.44c5.4,5.59,6.37,14.11,2.37,20.77h0l-39.53,29.36"/><path class="cls-7" d="M292.8,677.49c-.83,0-1.5-.67-1.5-1.5s.67-1.5,1.5-1.5c8.26,0,14.98-6.72,14.98-14.98s-6.72-14.98-14.98-14.98c-1.05,0-2.1,.11-3.12,.33-.8,.16-1.61-.35-1.78-1.16-.17-.81,.35-1.61,1.16-1.78,1.22-.26,2.48-.39,3.74-.39,9.92,0,17.98,8.07,17.98,17.98s-8.07,17.98-17.98,17.98Z"/><path class="cls-7" d="M255.62,695.72H95.53l.79-1.09c5.53-7.68,5.21-18.12-.79-25.45H255.62c7.33,0,13.27,5.94,13.27,13.27h0c0,7.33-5.94,13.27-13.27,13.27Z"/><path class="cls-7" d="M279.81,687.09c-.83,0-1.5-.67-1.5-1.5s.67-1.5,1.5-1.5c8.26,0,14.98-6.72,14.98-14.98s-6.72-14.98-14.98-14.98c-1.05,0-2.1,.11-3.12,.33-.8,.16-1.61-.35-1.78-1.16-.17-.81,.35-1.61,1.16-1.78,1.22-.26,2.48-.39,3.74-.39,9.92,0,17.98,8.07,17.98,17.98s-8.07,17.98-17.98,17.98Z"/><path class="cls-7" d="M264.57,696.31c-.83,0-1.5-.67-1.5-1.5s.67-1.5,1.5-1.5c8.26,0,14.98-6.72,14.98-14.98s-6.72-14.98-14.98-14.98c-1.05,0-2.1,.11-3.12,.33-.8,.16-1.61-.35-1.78-1.16-.17-.81,.35-1.61,1.16-1.78,1.22-.26,2.48-.39,3.74-.39,9.92,0,17.98,8.07,17.98,17.98s-8.07,17.98-17.98,17.98Z"/><line class="cls-11" x1="99.2" y1="674.54" x2="265.51" y2="674.54"/><line class="cls-11" x1="99.2" y1="679.72" x2="268.05" y2="679.72"/><line class="cls-11" x1="99.2" y1="684.89" x2="268.61" y2="684.89"/><line class="cls-11" x1="99.2" y1="690.07" x2="265.51" y2="690.07"/></g><g><g><path class="cls-5" d="M504.38,285.74s-25.41,2.26-45.18,7.34c-19.76,5.08-55.91,23.15-55.91,23.15l16.38,121.41,9.6,196.52h306.07l26.54-185.79,2.82-147.95s-37.27-6.78-60.99-9.6c-23.72-2.82-37.84-1.69-37.84-1.69l-161.51-3.39Z"/><path class="cls-10" d="M632.56,252.99s5.65,17.51,14.68,26.54c9.04,9.04,18.64,9.6,18.64,9.6,0,0-15.81,63.25-86.96,62.12-62.72-1-74.54-65.51-74.54-65.51,0,0,20.33,.56,26.54-9.6,6.21-10.16,3.95-22.02,3.95-22.02l97.69-1.13Z"/><path class="cls-14" d="M496.47,286.31s1.13,42.35,41.79,65.51c40.66,23.15,91.81,6.14,107.29-7.91,24.28-22.02,29.93-55.34,29.93-55.34"/><path class="cls-17" d="M530.92,276.14s18.64,35.01,32.19,40.66c13.55,5.65,40.66,5.65,50.82-1.13,10.16-6.78,28.24-40.66,28.24-40.66l-9.6-22.02-97.69,1.13s1.13,7.34,0,12.99c-1.13,5.65-3.95,9.04-3.95,9.04Z"/><line class="cls-14" x1="498.17" y1="297.03" x2="506.64" y2="294.21"/><line class="cls-14" x1="501.55" y1="307.2" x2="510.02" y2="303.81"/><line class="cls-14" x1="507.2" y1="321.88" x2="517.37" y2="317.36"/><line class="cls-14" x1="518.49" y1="333.74" x2="525.27" y2="329.22"/><line class="cls-14" x1="528.09" y1="345.6" x2="534.87" y2="338.82"/><line class="cls-14" x1="539.95" y1="351.81" x2="546.73" y2="345.03"/><line class="cls-14" x1="558.02" y1="359.72" x2="561.98" y2="350.12"/><line class="cls-14" x1="572.71" y1="362.54" x2="573.27" y2="351.81"/><line class="cls-14" x1="590.78" y1="363.11" x2="589.65" y2="352.38"/><line class="cls-14" x1="606.02" y1="361.41" x2="602.07" y2="349.55"/><line class="cls-14" x1="622.96" y1="356.89" x2="618.45" y2="343.91"/><line class="cls-14" x1="634.82" y1="350.68" x2="628.05" y2="339.39"/><line class="cls-14" x1="646.12" y1="342.78" x2="638.21" y2="333.74"/><line class="cls-14" x1="654.59" y1="333.18" x2="646.12" y2="325.83"/><line class="cls-14" x1="660.8" y1="325.27" x2="652.89" y2="318.49"/><line class="cls-14" x1="667.01" y1="312.85" x2="659.11" y2="307.76"/><line class="cls-14" x1="672.09" y1="299.86" x2="661.93" y2="298.16"/></g><path class="cls-5" d="M764.71,300.42s37.84,27.11,57.04,60.42c19.2,33.32,36.14,68.89,36.14,68.89,0,0-35.01,23.15-57.6,31.06-22.59,7.91-41.79,9.04-41.79,9.04,0,0-4.52-50.82-2.82-92.05,1.69-41.22,9.04-77.36,9.04-77.36Z"/><g><path class="cls-5" d="M403.29,316.23s18.64,36.71,25.41,72.28c6.78,35.58-7.91,65.51-7.91,65.51l-36.14,66.64s-12.42-22.02-33.88-35.01c-21.46-12.99-48.56-14.68-48.56-14.68,0,0,22.59-62.12,42.92-97.13,20.33-35.01,58.16-57.6,58.16-57.6Z"/><path class="cls-10" d="M384.66,520.66s-26.54,47.44-45.74,68.33c-19.2,20.89-43.48,32.19-43.48,32.19,0,0,14.12-18.64,5.65-45.74-8.47-27.11-31.06-36.71-31.06-36.71l32.19-67.76s31.62,2.82,48.56,14.68c16.94,11.86,33.88,35.01,33.88,35.01Z"/><path class="cls-10" d="M197.74,626.07s33.88,6.4,59.48,3.76c25.6-2.64,38.21-8.66,38.21-8.66,0,0,13.15-23.23,5.65-45.74-9.22-27.67-31.06-36.71-31.06-36.71,0,0-15.06,1.13-26.73,9.04s-39.15,17.32-50.45,16.94c-11.29-.38-18.07-3.01-18.07-3.01,0,0-4.52,28.61,3.39,42.16,7.91,13.55,19.58,22.21,19.58,22.21Z"/><path class="cls-10" d="M196.99,571.86s17.32-6.4,23.72-4.52c6.4,1.88,9.79,13.18,10.92,19.58,1.13,6.4,9.79,22.59,7.53,24.85-2.26,2.26-7.91,1.51-13.18-1.51s-10.16-15.06-10.16-15.06l-18.82-23.34Z"/><path class="cls-2" d="M134,509.49l99.13,130.14,15.44,7.53-4.89-15.06-99.08-130.66c-2.09-2.75-5.94-3.45-8.86-1.6h0c-3.3,2.09-4.1,6.55-1.73,9.65Z"/><path class="cls-14" d="M306.73,464.19s26.54-2.26,48.56,12.42c22.02,14.68,32.19,35.01,32.19,35.01"/><path class="cls-10" d="M170.26,555.67s-9.79-.75-13.93,.75c-4.14,1.51-7.15,7.15-7.15,7.15,0,0-12.05,6.78-14.68,10.92-2.64,4.14-3.76,9.41-3.76,9.41,0,0-3.76,6.4-3.76,15.06s.75,16.94,.75,16.94l6.78,9.41s-3.39,6.4-1.13,13.93-.38,8.28,9.79,14.31c10.16,6.02,30.49,10.54,38.78,10.16,8.28-.38,42.92-10.92,44.42-13.93,1.51-3.01-1.51-7.91-1.51-7.91,0,0,3.39-.75,3.76-5.27,.38-4.52-4.52-10.54-4.52-10.54,0,0,3.39-3.39,3.39-9.04s-9.04-13.18-9.04-13.18l-9.79-9.04-38.4-39.15Z"/><path class="cls-1" d="M224.1,626.07s-50.07-19.58-57.98-30.87c-7.91-11.29-16.94-31.62-16.94-31.62"/><path class="cls-1" d="M224.85,641.88s-52.52-10.54-60.99-16.19c-8.47-5.65-33.13-41.79-33.13-41.79"/><path class="cls-1" d="M216.94,640.94s-29.36,10.73-42.92,6.78c-13.55-3.95-39.53-22.4-39.53-22.4"/></g><g><path class="cls-10" d="M497.04,129.88s6.21,80.19,19.76,112.38c13.55,32.19,40.66,60.71,49.13,63.25,8.47,2.54,37.84,3.39,46.31-5.08,8.47-8.47,36.71-37.55,46.87-85.84,10.16-48.28,6.49-95.72,6.49-95.72l-55.06-50.82-63.53,4.24-21.18,18.64-28.8,38.96Z"/><path class="cls-17" d="M500.42,164.33s-16.94-38.96-12.99-67.76c3.95-28.8,23.15-57.6,23.15-57.6l.56,14.12s23.15-22.02,49.69-32.19c26.54-10.16,54.21-11.86,54.21-11.86l-10.16,12.99s24.28,9.04,41.22,15.25c16.94,6.21,46.31,3.95,45.18,9.04-1.13,5.08-15.25,9.04-15.25,9.04,0,0,8.47,23.15,15.81,31.06,7.34,7.91,5.08,19.76,.56,18.64-4.52-1.13-17.51,2.26-17.51,2.26,0,0,18.64,14.12,11.29,17.51-7.34,3.39-79.62,1.13-79.62,1.13,0,0,14.12,7.91,8.47,9.6-5.65,1.69-55.91,3.39-73.98-3.39-18.07-6.78-29.93-10.16-29.93-10.16l-10.73,42.35Z"/><polygon class="cls-17" points="656.85 125.36 665.88 172.23 680.56 121.41 656.85 125.36"/><path class="cls-4" d="M497.6,136.66s-6.78-2.26-15.81,0c-9.04,2.26-16.94,9.6-16.94,9.6l11.29,83.01s11.86,7.34,20.33,6.21c8.47-1.13,16.38-4.52,16.38-4.52l-15.25-94.31Z"/><rect class="cls-4" x="457.79" y="172.8" width="12.99" height="38.96" transform="translate(-19.25 55.43) rotate(-6.69)"/><path class="cls-4" d="M671.71,136.66s6.78-2.26,15.81,0c9.04,2.26,16.94,9.6,16.94,9.6l-11.29,83.01s-11.86,7.34-20.33,6.21c-8.47-1.13-16.38-4.52-16.38-4.52l15.25-94.31Z"/><rect class="cls-4" x="698.54" y="172.8" width="12.99" height="38.96" transform="translate(1382.85 465.43) rotate(-173.31)"/><path class="cls-4" d="M481.79,136.66h7.41c3.72-49.42,45-88.36,95.37-88.36s90.94,38.29,95.26,87.11c2.46-.04,5.17,.25,7.7,1.24,.89,.35,1.73,.7,2.53,1.04-2.41-56.18-48.72-101-105.49-101s-102.71,44.44-105.47,100.3c.9-.21,1.8-.35,2.69-.35Z"/><polyline class="cls-14" points="589.27 222.12 596.42 245.83 577.98 243.2"/><path class="cls-14" d="M548.61,249.6s3.39,9.41,10.54,15.06c7.15,5.65,15.06,6.02,15.06,6.02"/><path class="cls-17" d="M520.38,187.48s12.8-9.41,24.47-7.91c8.25,1.06,14.43,4.95,17.34,7.14,1.14,.85,1.65,2.3,1.29,3.68h0c-.59,2.26-3.2,3.32-5.19,2.08-2.91-1.82-7.43-3.99-13.45-5-11.29-1.88-24.47,0-24.47,0Z"/><path class="cls-2" d="M524.52,205.55s10.87-5.32,19.58-4.14c13.93,1.88,19.58,10.16,19.58,10.16,0,0-8.28,4.89-21.46,1.88-13.18-3.01-17.69-7.91-17.69-7.91Z"/><path class="cls-12" d="M534.25,210.37s1.31-3.81,5.65-6.23c3.9-2.17,7.64-1.57,7.64-1.57,0,0,2.98,1.76,5.88,4.07,2.9,2.32,5.22,6.07,5.22,6.07,0,0-4.85,1.97-12.7,1.03s-11.69-3.38-11.69-3.38Z"/><path class="cls-17" d="M648.38,187.48s-12.8-9.41-24.47-7.91c-8.25,1.06-14.43,4.95-17.34,7.14-1.14,.85-1.65,2.3-1.29,3.68h0c.59,2.26,3.2,3.32,5.19,2.08,2.91-1.82,7.43-3.99,13.45-5,11.29-1.88,24.47,0,24.47,0Z"/><path class="cls-2" d="M644.24,205.55s-10.87-5.32-19.58-4.14c-13.93,1.88-19.58,10.16-19.58,10.16,0,0,8.28,4.89,21.46,1.88,13.18-3.01,17.69-7.91,17.69-7.91Z"/><path class="cls-12" d="M634.44,210.71s-1.2-3.84-5.48-6.38c-3.84-2.28-7.6-1.77-7.6-1.77,0,0-3.03,1.68-5.99,3.92s-5.38,5.93-5.38,5.93c0,0,4.79,2.1,12.67,1.37,7.87-.72,11.77-3.07,11.77-3.07Z"/><path class="cls-19" d="M558.59,121.41c18.52,4.98,32.19,5.08,32.19,5.08l-6.78-11.86s24.28,1.69,44.05-1.13c19.76-2.82,24.85-7.34,24.85-7.34,0,0-23.72,0-45.18-1.13-21.46-1.13-41.79-8.47-41.79-8.47l7.34,18.07s-12.99,.56-25.41-4.52c-12.42-5.08-28.24-14.68-28.24-14.68,0,0,9.6,18.07,38.96,25.98Z"/></g><path class="cls-21" d="M429.27,634.16l64.38-.56s49.69-20.33,38.4-66.64-47.44,3.39-60.99-36.14c-13.55-39.53,21.46-54.21,2.26-75.67-19.2-21.46-52.52-1.13-52.52-1.13l8.47,180.14Z"/><path class="cls-21" d="M302.21,470.96s24.56-72.56,47.44-103.91c22.87-31.34,53.65-50.82,53.65-50.82,0,0-1.98,39.81-18.07,69.46-16.09,29.65-34.73,11.01-41.51,31.34-6.78,20.33,16.94,20.33,5.93,38.12-11.01,17.79-47.44,15.81-47.44,15.81Z"/><path class="cls-21" d="M758.49,469.83s-3.95-38.4-3.11-73.13c.85-34.73,2.54-53.36,2.54-53.36,0,0,27.11,23.72,37.27,51.67,10.16,27.95-18.64,22.87-11.01,36.42,7.62,13.55,32.19,22.87,32.19,22.87,0,0-10.16,6.78-29.65,11.01-19.48,4.24-28.24,4.52-28.24,4.52Z"/></g><g><path class="cls-13" d="M976.05,399.25h-383.13c-9.92,0-17.96,8.04-17.96,17.96v252.26h404.05l14.96-251.19c.61-10.32-7.59-19.02-17.92-19.02Z"/><polygon class="cls-13" points="574.96 669.46 533.74 633.03 532.61 622.87 574.4 660.14 574.96 669.46"/><polygon class="cls-8" points="574.4 660.14 532.61 622.87 574.96 622.87 574.4 660.14"/><path class="cls-15" d="M872.28,399.25h98.72c11.67,0,20.91,9.87,20.15,21.52l-16.37,248.69s-66.07-24.56-70.31-67.76c-4.24-43.2,54.21-62.68,40.66-107.58-13.55-44.89-53.36,4.24-84.71-25.41-31.34-29.65,11.86-69.46,11.86-69.46Z"/><circle class="cls-16" cx="786.73" cy="542.4" r="29.65"/></g><circle class="cls-1" cx="813.48" cy="218.33" r="58.45" transform="translate(-23.11 315.94) rotate(-21.68)"/><circle class="cls-1" cx="859.65" cy="81.08" r="44.05"/><g><rect class="cls-1" x="787.65" y="185.43" width="51.67" height="65.79"/><line class="cls-1" x1="794.14" y1="202.38" x2="832.54" y2="202.38"/><line class="cls-1" x1="794.14" y1="209.43" x2="832.54" y2="209.43"/><line class="cls-1" x1="794.14" y1="216.49" x2="832.54" y2="216.49"/><line class="cls-1" x1="794.14" y1="223.55" x2="832.54" y2="223.55"/><line class="cls-1" x1="794.14" y1="230.61" x2="832.54" y2="230.61"/><rect class="cls-23" x="811.65" y="237.39" width="21.46" height="8.75"/><rect class="cls-23" x="794.24" y="191.08" width="38.01" height="4.8"/></g><g><polygon class="cls-3" points="839.17 55.21 841.52 59.97 846.78 60.73 842.97 64.44 843.87 69.67 839.17 67.2 834.47 69.67 835.37 64.44 831.57 60.73 836.82 59.97 839.17 55.21"/><polygon class="cls-3" points="839.17 73.84 841.52 78.61 846.78 79.37 842.97 83.08 843.87 88.31 839.17 85.84 834.47 88.31 835.37 83.08 831.57 79.37 836.82 78.61 839.17 73.84"/><polygon class="cls-3" points="839.17 92.48 841.52 97.24 846.78 98 842.97 101.71 843.87 106.94 839.17 104.47 834.47 106.94 835.37 101.71 831.57 98 836.82 97.24 839.17 92.48"/><line class="cls-1" x1="853.29" y1="64.05" x2="887.74" y2="64.05"/><line class="cls-1" x1="853.29" y1="83.25" x2="887.74" y2="83.25"/><line class="cls-1" x1="853.29" y1="102.45" x2="887.74" y2="102.45"/></g><circle class="cls-9" cx="265.79" cy="269.65" r="26.26"/><circle class="cls-9" cx="230.21" cy="186.63" r="14.4"/></g></g></g></g></svg>