<svg xmlns="http://www.w3.org/2000/svg" version="1.1" xmlns:xlink="http://www.w3.org/1999/xlink" xmlns:svgjs="http://svgjs.dev/svgjs" width="2000" height="363" viewBox="0 0 2000 363"><g transform="matrix(1,0,0,1,-1.2121212121212466,0.8593369260414363)"><svg viewBox="0 0 396 72" data-background-color="#f8f8f8" preserveAspectRatio="xMidYMid meet" height="363" width="2000" xmlns="http://www.w3.org/2000/svg" xmlns:xlink="http://www.w3.org/1999/xlink"><defs></defs><g id="tight-bounds" transform="matrix(1,0,0,1,0.2400000000000091,-0.17044699359499305)"><svg viewBox="0 0 395.52 72.34089398719" height="72.34089398719" width="395.52"><g><svg viewBox="0 0 574.8977768451937 105.14921907420451" height="72.34089398719" width="395.52"><g transform="matrix(1,0,0,1,179.37777684519364,1.8513972485327983)"><svg viewBox="0 0 395.52 101.44642457713891" height="101.44642457713891" width="395.52"><g><svg viewBox="0 0 395.52 101.44642457713891" height="101.44642457713891" width="395.52"><g><svg viewBox="0 0 395.52 62.10792018938112" height="62.10792018938112" width="395.52"><g transform="matrix(1,0,0,1,0,0)"><svg width="395.52" viewBox="0.30000001192092896 -34.18000030517578 221.75 34.83000183105469" height="62.10792018938112" data-palette-color="#61777f"><path d="M11.53-27.75L0.3-27.75 0.3-31.85 25.4-31.85 25.4-27.75 14.15-27.75 15.23-28.85 15.23 0 10.48 0 10.48-28.85 11.53-27.75ZM35.25 0.65L35.25 0.65Q32.15 0.65 29.65-0.95 27.15-2.55 25.68-5.4 24.22-8.25 24.22-12L24.22-12Q24.22-15.98 25.67-18.81 27.12-21.65 29.62-23.18 32.12-24.7 35.25-24.7L35.25-24.7Q38.05-24.7 40.05-23.56 42.05-22.43 43.27-20.51 44.5-18.6 44.96-16.18 45.42-13.75 45.12-11.18L45.12-11.18 28.02-11.18 28.02-13.93 41.87-13.93 40.72-13.18Q40.8-14.53 40.59-15.88 40.37-17.23 39.77-18.36 39.17-19.5 38.09-20.19 37-20.88 35.32-20.88L35.32-20.88Q33.22-20.88 31.81-19.83 30.4-18.78 29.67-17.01 28.95-15.25 28.95-13.15L28.95-13.15 28.95-11.23Q28.95-8.9 29.65-7.1 30.35-5.3 31.73-4.26 33.12-3.23 35.25-3.23L35.25-3.23Q37.32-3.23 38.69-4.2 40.05-5.18 40.37-7.13L40.37-7.13 45.22-7.13Q44.85-4.78 43.5-3.03 42.15-1.28 40.03-0.31 37.92 0.65 35.25 0.65ZM61.4 0.65L61.4 0.65Q58.45 0.65 55.9-0.93 53.35-2.5 51.8-5.35 50.25-8.2 50.25-12.05L50.25-12.05Q50.25-16.1 51.8-18.91 53.35-21.73 55.9-23.21 58.45-24.7 61.4-24.7L61.4-24.7Q63.57-24.7 65.27-24.01 66.97-23.33 68.2-22.16 69.42-21 70.18-19.55 70.95-18.1 71.25-16.55L71.25-16.55 66.42-16.3Q65.9-18.18 64.58-19.31 63.27-20.45 61.35-20.45L61.35-20.45Q59.72-20.45 58.28-19.54 56.85-18.63 55.96-16.76 55.07-14.9 55.07-12.05L55.07-12.05Q55.07-9.4 55.9-7.53 56.72-5.65 58.15-4.65 59.57-3.65 61.35-3.65L61.35-3.65Q63.9-3.65 65.16-4.89 66.42-6.13 66.42-8.3L66.42-8.3 71.25-8.3Q71.25-5.78 70.07-3.75 68.9-1.73 66.68-0.54 64.47 0.65 61.4 0.65ZM100.29 0L95.57 0 95.57-14.1Q95.57-17.23 94.08-18.84 92.59-20.45 90.07-20.45L90.07-20.45Q88.07-20.45 86.58-19.36 85.09-18.28 84.28-16.19 83.47-14.1 83.47-11.1L83.47-11.1 81.77-11.1Q81.77-15.53 82.91-18.55 84.04-21.58 86.17-23.14 88.29-24.7 91.27-24.7L91.27-24.7Q94.17-24.7 96.18-23.4 98.19-22.1 99.24-19.71 100.29-17.32 100.29-14.1L100.29-14.1 100.29 0ZM83.47 0L78.72 0 78.72-34.18 83.47-34.18 83.47 0ZM115.39-27.75L104.16-27.75 104.16-31.85 129.26-31.85 129.26-27.75 118.02-27.75 119.09-28.85 119.09 0 114.34 0 114.34-28.85 115.39-27.75ZM146.86 0L146.86-24.13 151.64-24.13 151.64 0 146.86 0ZM130.06-8.8L130.06-24.13 134.81-24.13 134.81-9.22Q134.81-6.5 136.15-5.1 137.49-3.7 139.91-3.7L139.91-3.7Q141.96-3.7 143.53-4.78 145.09-5.85 145.97-7.83 146.86-9.8 146.86-12.5L146.86-12.5 148.39-12.5Q148.39-8.28 147.24-5.4 146.09-2.53 144.01-1.04 141.94 0.45 139.16 0.45L139.16 0.45Q136.51 0.45 134.45-0.53 132.39-1.5 131.22-3.54 130.06-5.58 130.06-8.8L130.06-8.8ZM169.11 0.65L169.11 0.65Q167.06 0.65 165.41-0.13 163.76-0.9 162.8-2.46 161.83-4.03 161.83-6.4L161.83-6.4 161.83-30.6 166.56-30.6 166.56-6.55Q166.56-3.15 169.73-3.15L169.73-3.15Q170.71-3.15 171.63-3.36 172.56-3.58 173.73-4L173.73-4 174.41-0.63Q173.08-0.08 171.8 0.29 170.51 0.65 169.11 0.65ZM173.69-20.83L158.16-20.83 158.16-24.05 173.69-24.05 173.69-20.83ZM189.63 0.65L189.63 0.65Q186.36 0.65 183.77-0.78 181.18-2.2 179.68-5.03 178.18-7.85 178.18-12L178.18-12Q178.18-16.23 179.68-19.04 181.18-21.85 183.77-23.28 186.36-24.7 189.63-24.7L189.63-24.7Q192.86-24.7 195.43-23.28 198.01-21.85 199.49-19.04 200.98-16.23 200.98-12L200.98-12Q200.98-7.85 199.49-5.03 198.01-2.2 195.43-0.78 192.86 0.65 189.63 0.65ZM189.48-3.5L189.48-3.5Q191.56-3.5 193.07-4.5 194.58-5.5 195.39-7.41 196.21-9.33 196.21-12L196.21-12Q196.21-16.1 194.54-18.35 192.88-20.6 189.76-20.6L189.76-20.6Q187.66-20.6 186.14-19.59 184.63-18.57 183.82-16.66 183.01-14.75 183.01-12L183.01-12Q183.01-7.98 184.68-5.74 186.36-3.5 189.48-3.5ZM213.08 0L208.33 0 208.33-24.13 213.08-24.13 213.08 0ZM213.08-10.75L211.78-10.75Q211.78-15.38 212.74-18.44 213.7-21.5 215.44-23 217.18-24.5 219.53-24.5L219.53-24.5Q220.23-24.5 220.84-24.4 221.45-24.3 222.05-24.13L222.05-24.13 221.88-19.4Q221.2-19.58 220.42-19.71 219.63-19.85 218.98-19.85L218.98-19.85Q216.93-19.85 215.63-18.76 214.33-17.68 213.7-15.64 213.08-13.6 213.08-10.75L213.08-10.75Z" opacity="1" transform="matrix(1,0,0,1,0,0)" fill="#61777f" class="undefined-text-0" data-fill-palette-color="primary" id="text-0"></path></svg></g></svg></g><g transform="matrix(1,0,0,1,39.55199999999999,76.77010955600946)"><svg viewBox="0 0 316.416 24.676315021129465" height="24.676315021129465" width="316.416"><g transform="matrix(1,0,0,1,0,0)"><svg width="316.416" viewBox="3.799999952316284 -37.150001525878906 650.6799926757812 50.75" height="24.676315021129465" data-palette-color="#51bfa1"><path d="M12.6 0.5Q10.1 0.5 7.85 0.2L7.85 0.2Q6.85 0.1 5.6-0.18 4.35-0.45 3.8-0.65L3.8-0.65 3.8-36.35 7.9-36.35 7.9-23.45Q9.3-24.65 11.03-25.25 12.75-25.85 14.6-25.85L14.6-25.85Q17.8-25.85 20.28-24.15 22.75-22.45 24.1-19.45 25.45-16.45 25.45-12.7L25.45-12.7Q25.45-9.05 24.1-6.08 22.75-3.1 19.88-1.3 17 0.5 12.6 0.5L12.6 0.5ZM12.55-3.25Q17.25-3.25 19.3-5.85 21.35-8.45 21.35-12.65L21.35-12.65Q21.35-15.6 20.43-17.75 19.5-19.9 17.93-21.03 16.35-22.15 14.45-22.15L14.45-22.15Q12.35-22.15 10.25-20.65L10.25-20.65Q8.15-19.1 7.9-16.4L7.9-16.4 7.9-3.55 9.85-3.35Q10.85-3.25 12.55-3.25L12.55-3.25ZM47.3-3.05Q46.25-1.4 44-0.5 41.75 0.4 39.35 0.4L39.35 0.4Q35.55 0.4 33.2-1.53 30.85-3.45 30.75-7.25L30.75-7.25 30.75-17.45Q30.75-21.35 28.65-23.15L28.65-23.15 31.4-25.7Q32.65-25 33.72-23.2 34.8-21.4 34.85-19.35L34.85-19.35 34.85-8.55Q34.85-6 35.95-4.65 37.05-3.3 39.6-3.3L39.6-3.3Q41.85-3.3 43.4-4.35 44.95-5.4 46.8-7.85L46.8-7.85 46.85-25 50.95-25 50.95-4.65Q50.95-3.95 51.27-3.58 51.6-3.2 52.25-3.2L52.25-3.2Q53.1-3.2 53.6-4.05L53.6-4.05 56.4-2.2Q55.75-0.95 54.52-0.23 53.3 0.5 51.9 0.5L51.9 0.5Q50.05 0.5 48.72-0.58 47.4-1.65 47.3-3.1L47.3-3.1 47.3-3.05ZM64.65-4.45Q64.65-3.9 65-3.53 65.35-3.15 65.9-3.15L65.9-3.15Q66.7-3.15 67.15-4.05L67.15-4.05 70.1-2.2Q69.4-0.9 68.27-0.18 67.15 0.55 65.65 0.55L65.65 0.55Q63.3 0.55 61.92-0.83 60.55-2.2 60.55-4.6L60.55-4.6 60.55-25.05 64.65-25.05 64.65-4.45ZM62.55-29.9Q61.55-29.9 60.75-30.7 59.95-31.5 59.95-32.5L59.95-32.5Q59.95-33.55 60.75-34.35 61.55-35.15 62.55-35.15L62.55-35.15Q63.6-35.15 64.42-34.35 65.25-33.55 65.25-32.5L65.25-32.5Q65.25-31.5 64.42-30.7 63.6-29.9 62.55-29.9L62.55-29.9ZM78.34-4.45Q78.34-3.9 78.69-3.53 79.04-3.15 79.59-3.15L79.59-3.15Q80.39-3.15 80.84-4.05L80.84-4.05 83.79-2.2Q83.09-0.9 81.97-0.18 80.84 0.55 79.34 0.55L79.34 0.55Q76.99 0.55 75.62-0.83 74.24-2.2 74.24-4.6L74.24-4.6 74.24-36.35 78.34-36.35 78.34-4.45ZM96.39 0.5Q92.79 0.5 90.29-1.28 87.79-3.05 86.57-6.03 85.34-9 85.34-12.55L85.34-12.55Q85.34-16.35 86.87-19.38 88.39-22.4 91.22-24.13 94.04-25.85 97.79-25.85L97.79-25.85Q99.29-25.85 102.89-25.5L102.89-25.5 102.89-36.4 106.99-36.4 106.99-4.65Q106.99-3.95 107.32-3.58 107.64-3.2 108.29-3.2L108.29-3.2Q109.14-3.2 109.64-4.1L109.64-4.1 112.49-2.25Q111.84-0.95 110.57-0.23 109.29 0.5 107.84 0.5L107.84 0.5Q106.04 0.45 104.74-0.6 103.44-1.65 103.34-3.05L103.34-3.05Q102.39-1.35 100.44-0.43 98.49 0.5 96.39 0.5L96.39 0.5ZM96.39-3.2Q98.34-3.2 99.89-4.2 101.44-5.2 102.29-6.9L102.29-6.9Q102.89-8.2 102.89-9.7L102.89-9.7 102.89-21.55Q102.44-21.6 101.24-21.85 100.04-22.1 98.79-22.1L98.79-22.1Q94.14-22.1 91.79-19.55 89.44-17 89.44-12.85L89.44-12.85Q89.44-8.75 91.32-5.98 93.19-3.2 96.39-3.2L96.39-3.2ZM120.69-4.45Q120.69-3.9 121.04-3.53 121.39-3.15 121.94-3.15L121.94-3.15Q122.74-3.15 123.19-4.05L123.19-4.05 126.14-2.2Q125.44-0.9 124.31-0.18 123.19 0.55 121.69 0.55L121.69 0.55Q119.34 0.55 117.96-0.83 116.59-2.2 116.59-4.6L116.59-4.6 116.59-25.05 120.69-25.05 120.69-4.45ZM118.59-29.9Q117.59-29.9 116.79-30.7 115.99-31.5 115.99-32.5L115.99-32.5Q115.99-33.55 116.79-34.35 117.59-35.15 118.59-35.15L118.59-35.15Q119.64-35.15 120.46-34.35 121.29-33.55 121.29-32.5L121.29-32.5Q121.29-31.5 120.46-30.7 119.64-29.9 118.59-29.9L118.59-29.9ZM152.94-4.05L155.89-2.2Q155.19-0.9 154.06-0.18 152.94 0.55 151.44 0.55L151.44 0.55Q149.09 0.55 147.71-0.83 146.34-2.2 146.34-4.6L146.34-4.6 146.34-16.85Q146.34-19.35 145.29-20.68 144.24-22 141.69-22L141.69-22Q139.39-22 137.76-20.9 136.14-19.8 134.44-17.55L134.44-17.55 134.44 0.05 130.34 0.05 130.34-17.5Q130.34-21.4 128.24-23.2L128.24-23.2 130.99-25.75Q131.84-25.3 132.64-24.28 133.44-23.25 133.94-21.95L133.94-21.95Q137.04-25.7 141.94-25.7L141.94-25.7Q145.64-25.7 147.94-23.73 150.24-21.75 150.44-18.15L150.44-18.15 150.44-4.45Q150.44-3.9 150.79-3.53 151.14-3.15 151.69-3.15L151.69-3.15Q152.49-3.15 152.94-4.05L152.94-4.05ZM171.08 13.6Q168.93 13.6 167.13 12.58 165.33 11.55 164.26 9.78 163.18 8 163.18 5.9L163.18 5.9Q163.18 2.4 165.88 0L165.88 0Q161.78-1.2 159.56-4.4 157.33-7.6 157.33-12.25L157.33-12.25Q157.33-16.2 158.93-19.3 160.53-22.4 163.36-24.13 166.18-25.85 169.83-25.85L169.83-25.85 172.93-25.75 175.78-25.4 179.18-25.4 179.18 4.8Q179.18 8.75 176.93 11.18 174.68 13.6 171.08 13.6L171.08 13.6ZM168.18-3.35Q170.43-3.35 172.53-5.15L172.53-5.15Q173.68-6.1 174.38-7.25 175.08-8.4 175.08-9.3L175.08-9.3 175.08-22.1 171.18-22.15 169.63-22.15Q167.33-22.15 165.46-20.9 163.58-19.65 162.51-17.48 161.43-15.3 161.43-12.6L161.43-12.6Q161.43-10.1 162.36-7.98 163.28-5.85 164.83-4.6 166.38-3.35 168.18-3.35L168.18-3.35ZM171.28 9.9Q173.03 9.9 174.06 8.55 175.08 7.2 175.08 4.95L175.08 4.95 175.08-3.25Q174.98-3.1 174.58-2.58 174.18-2.05 173.73-1.6L173.73-1.6Q172.58-0.5 169.58 1.3L169.58 1.3Q167.18 2.75 167.18 5.9L167.18 5.9Q167.18 7.5 168.41 8.7 169.63 9.9 171.28 9.9L171.28 9.9ZM208.03 0.5Q204.53 0.5 202.75-1.63 200.98-3.75 200.98-7.55L200.98-7.55 200.98-31.45 205.08-31.45 205.08-25 212.73-25 212.73-21.3 205.08-21.3 205.08-7.55Q205.08-5.75 205.83-4.53 206.58-3.3 208.03-3.3L208.03-3.3Q209.48-3.3 210.48-4.13 211.48-4.95 212.03-6.35L212.03-6.35 215.23-4.3Q212.83 0.5 208.03 0.5L208.03 0.5ZM240.18-4.45Q240.18-3.9 240.53-3.53 240.88-3.15 241.43-3.15L241.43-3.15Q242.23-3.15 242.68-4.05L242.68-4.05 245.63-2.2Q244.93-0.9 243.8-0.18 242.68 0.55 241.18 0.55L241.18 0.55Q238.83 0.55 237.45-0.83 236.08-2.2 236.08-4.6L236.08-4.6 236.08-17.4Q236.08-22.15 231.23-22.15L231.23-22.15Q229.03-22.15 227.43-21.08 225.83-20 224.08-17.7L224.08-17.7 224.08-0.1 219.98-0.1 219.98-36.5 224.08-36.5 224.08-22.7Q227.33-25.95 231.58-25.95L231.58-25.95Q235.73-25.95 237.95-23.75 240.18-21.55 240.18-17.55L240.18-17.55 240.18-4.45ZM258.82 0.5Q255.12 0.5 252.5-1.13 249.87-2.75 248.52-5.53 247.17-8.3 247.17-11.75L247.17-11.75Q247.17-15.15 248.47-18.35 249.77-21.55 252.37-23.65 254.97-25.75 258.77-25.75L258.77-25.75Q261.27-25.75 263.42-24.78 265.57-23.8 266.85-21.98 268.12-20.15 268.12-17.75L268.12-17.75Q268.12-13.9 264.97-11.7 261.82-9.5 256.77-9.6L256.77-9.6 251.57-9.7Q252.12-6.6 254-4.93 255.87-3.25 258.97-3.25L258.97-3.25Q263.02-3.25 266.67-5.95L266.67-5.95 268.92-3.1Q264.17 0.5 258.82 0.5L258.82 0.5ZM256.77-13.2Q260.12-13.2 262.07-14.35 264.02-15.5 264.02-17.8L264.02-17.8Q264.02-19.85 262.55-20.95 261.07-22.05 259.02-22.05L259.02-22.05Q256.72-22.05 255.02-20.68 253.32-19.3 252.42-17.25 251.52-15.2 251.37-13.2L251.37-13.2 256.77-13.2ZM289.47-25.85Q289.47-31.55 291.59-34.35 293.72-37.15 298.02-37.15L298.02-37.15Q301.47-37.15 303.52-35 305.57-32.85 305.57-29.2L305.57-29.2Q305.57-26.5 304.42-24.4 303.27-22.3 301.17-21.13 299.07-19.95 296.37-19.95L296.37-19.95Q295.62-19.95 295.22-20L295.22-20 293.57-20.15 293.57-13.45 300.77-13.45 300.77-9.75 293.57-9.75 293.57 12.6 289.47 12.6 289.47-25.85ZM295.22-23.7Q298.12-23.7 299.79-25.18 301.47-26.65 301.47-29.25L301.47-29.25Q301.47-31.25 300.52-32.35 299.57-33.45 297.92-33.45L297.92-33.45Q295.72-33.45 294.64-31.35 293.57-29.25 293.57-24.85L293.57-24.85 293.57-23.7 295.22-23.7ZM325.97-3.05Q324.92-1.4 322.67-0.5 320.42 0.4 318.02 0.4L318.02 0.4Q314.22 0.4 311.87-1.53 309.52-3.45 309.42-7.25L309.42-7.25 309.42-17.45Q309.42-21.35 307.32-23.15L307.32-23.15 310.07-25.7Q311.32-25 312.39-23.2 313.47-21.4 313.52-19.35L313.52-19.35 313.52-8.55Q313.52-6 314.62-4.65 315.72-3.3 318.27-3.3L318.27-3.3Q320.52-3.3 322.07-4.35 323.62-5.4 325.47-7.85L325.47-7.85 325.52-25 329.62-25 329.62-4.65Q329.62-3.95 329.94-3.58 330.27-3.2 330.92-3.2L330.92-3.2Q331.77-3.2 332.27-4.05L332.27-4.05 335.07-2.2Q334.42-0.95 333.19-0.23 331.97 0.5 330.57 0.5L330.57 0.5Q328.72 0.5 327.39-0.58 326.07-1.65 325.97-3.1L325.97-3.1 325.97-3.05ZM345.56 0.5Q342.06 0.5 340.29-1.63 338.51-3.75 338.51-7.55L338.51-7.55 338.51-31.45 342.61-31.45 342.61-25 350.26-25 350.26-21.3 342.61-21.3 342.61-7.55Q342.61-5.75 343.36-4.53 344.11-3.3 345.56-3.3L345.56-3.3Q347.01-3.3 348.01-4.13 349.01-4.95 349.56-6.35L349.56-6.35 352.76-4.3Q350.36 0.5 345.56 0.5L345.56 0.5ZM374.01-3.05Q372.96-1.4 370.71-0.5 368.46 0.4 366.06 0.4L366.06 0.4Q362.26 0.4 359.91-1.53 357.56-3.45 357.46-7.25L357.46-7.25 357.46-17.45Q357.46-21.35 355.36-23.15L355.36-23.15 358.11-25.7Q359.36-25 360.44-23.2 361.51-21.4 361.56-19.35L361.56-19.35 361.56-8.55Q361.56-6 362.66-4.65 363.76-3.3 366.31-3.3L366.31-3.3Q368.56-3.3 370.11-4.35 371.66-5.4 373.51-7.85L373.51-7.85 373.56-25 377.66-25 377.66-4.65Q377.66-3.95 377.99-3.58 378.31-3.2 378.96-3.2L378.96-3.2Q379.81-3.2 380.31-4.05L380.31-4.05 383.11-2.2Q382.46-0.95 381.24-0.23 380.01 0.5 378.61 0.5L378.61 0.5Q376.76 0.5 375.44-0.58 374.11-1.65 374.01-3.1L374.01-3.1 374.01-3.05ZM397.61-25.85Q399.06-25.85 401.06-25.35L401.06-25.35 400.96-21.4Q398.96-21.95 397.71-21.95L397.71-21.95Q395.36-21.95 394.06-20.85L394.06-20.85Q392.56-19.65 391.46-17.65L391.46-17.65 391.46 0.05 387.36 0.05 387.36-17.65Q387.36-21.55 385.26-23.35L385.26-23.35 388.01-25.9Q388.76-25.45 389.53-24.55 390.31-23.65 390.81-22.5L390.81-22.5Q391.91-23.9 393.06-24.65L393.06-24.65Q394.96-25.85 397.61-25.85L397.61-25.85ZM414.61 0.5Q410.91 0.5 408.28-1.13 405.66-2.75 404.31-5.53 402.96-8.3 402.96-11.75L402.96-11.75Q402.96-15.15 404.26-18.35 405.56-21.55 408.16-23.65 410.76-25.75 414.56-25.75L414.56-25.75Q417.06-25.75 419.21-24.78 421.36-23.8 422.63-21.98 423.91-20.15 423.91-17.75L423.91-17.75Q423.91-13.9 420.76-11.7 417.61-9.5 412.56-9.6L412.56-9.6 407.36-9.7Q407.91-6.6 409.78-4.93 411.66-3.25 414.76-3.25L414.76-3.25Q418.81-3.25 422.46-5.95L422.46-5.95 424.71-3.1Q419.96 0.5 414.61 0.5L414.61 0.5ZM412.56-13.2Q415.91-13.2 417.86-14.35 419.81-15.5 419.81-17.8L419.81-17.8Q419.81-19.85 418.33-20.95 416.86-22.05 414.81-22.05L414.81-22.05Q412.51-22.05 410.81-20.68 409.11-19.3 408.21-17.25 407.31-15.2 407.16-13.2L407.16-13.2 412.56-13.2ZM444.6-20.45Q444.35-21.3 443.53-22.13 442.7-22.95 442.05-23.3L442.05-23.3 444.05-26.55Q447.3-24.6 448.65-20.55L448.65-20.55 453.15-7 459.15-25.45 462.8-25.45 468.85-7 474.85-25.45 479-25.45 470.7 0 467 0 461-18.45 454.95 0 451.25 0 444.6-20.45ZM487.65-4.45Q487.65-3.9 488-3.53 488.35-3.15 488.9-3.15L488.9-3.15Q489.7-3.15 490.15-4.05L490.15-4.05 493.1-2.2Q492.4-0.9 491.27-0.18 490.15 0.55 488.65 0.55L488.65 0.55Q486.3 0.55 484.92-0.83 483.55-2.2 483.55-4.6L483.55-4.6 483.55-25.05 487.65-25.05 487.65-4.45ZM485.55-29.9Q484.55-29.9 483.75-30.7 482.95-31.5 482.95-32.5L482.95-32.5Q482.95-33.55 483.75-34.35 484.55-35.15 485.55-35.15L485.55-35.15Q486.6-35.15 487.42-34.35 488.25-33.55 488.25-32.5L488.25-32.5Q488.25-31.5 487.42-30.7 486.6-29.9 485.55-29.9L485.55-29.9ZM503.6 0.5Q500.1 0.5 498.32-1.63 496.55-3.75 496.55-7.55L496.55-7.55 496.55-31.45 500.65-31.45 500.65-25 508.3-25 508.3-21.3 500.65-21.3 500.65-7.55Q500.65-5.75 501.4-4.53 502.15-3.3 503.6-3.3L503.6-3.3Q505.05-3.3 506.05-4.13 507.05-4.95 507.6-6.35L507.6-6.35 510.8-4.3Q508.4 0.5 503.6 0.5L503.6 0.5ZM535.74-4.45Q535.74-3.9 536.09-3.53 536.44-3.15 536.99-3.15L536.99-3.15Q537.79-3.15 538.24-4.05L538.24-4.05 541.19-2.2Q540.49-0.9 539.37-0.18 538.24 0.55 536.74 0.55L536.74 0.55Q534.39 0.55 533.02-0.83 531.64-2.2 531.64-4.6L531.64-4.6 531.64-17.4Q531.64-22.15 526.79-22.15L526.79-22.15Q524.59-22.15 522.99-21.08 521.39-20 519.64-17.7L519.64-17.7 519.64-0.1 515.54-0.1 515.54-36.5 519.64-36.5 519.64-22.7Q522.89-25.95 527.14-25.95L527.14-25.95Q531.29-25.95 533.52-23.75 535.74-21.55 535.74-17.55L535.74-17.55 535.74-4.45ZM566.69 0.5Q563.19 0.5 561.41-1.63 559.64-3.75 559.64-7.55L559.64-7.55 559.64-31.45 563.74-31.45 563.74-25 571.39-25 571.39-21.3 563.74-21.3 563.74-7.55Q563.74-5.75 564.49-4.53 565.24-3.3 566.69-3.3L566.69-3.3Q568.14-3.3 569.14-4.13 570.14-4.95 570.69-6.35L570.69-6.35 573.89-4.3Q571.49 0.5 566.69 0.5L566.69 0.5ZM587.43 0.5Q583.73 0.5 581.11-1.13 578.48-2.75 577.13-5.53 575.78-8.3 575.78-11.75L575.78-11.75Q575.78-15.15 577.08-18.35 578.38-21.55 580.98-23.65 583.58-25.75 587.38-25.75L587.38-25.75Q589.88-25.75 592.03-24.78 594.18-23.8 595.46-21.98 596.73-20.15 596.73-17.75L596.73-17.75Q596.73-13.9 593.58-11.7 590.43-9.5 585.38-9.6L585.38-9.6 580.18-9.7Q580.73-6.6 582.61-4.93 584.48-3.25 587.58-3.25L587.58-3.25Q591.63-3.25 595.28-5.95L595.28-5.95 597.53-3.1Q592.78 0.5 587.43 0.5L587.43 0.5ZM585.38-13.2Q588.73-13.2 590.68-14.35 592.63-15.5 592.63-17.8L592.63-17.8Q592.63-19.85 591.16-20.95 589.68-22.05 587.63-22.05L587.63-22.05Q585.33-22.05 583.63-20.68 581.93-19.3 581.03-17.25 580.13-15.2 579.98-13.2L579.98-13.2 585.38-13.2ZM613.83 0.3Q608.13 0.3 604.93-3 601.73-6.3 601.73-12.15L601.73-12.15Q601.73-16.15 603.21-19.28 604.68-22.4 607.33-24.13 609.98-25.85 613.43-25.85L613.43-25.85Q616.18-25.85 618.41-24.73 620.63-23.6 621.81-21.65 622.98-19.7 622.78-17.35L622.78-17.35 618.78-17.35Q618.98-19.4 617.53-20.78 616.08-22.15 613.63-22.15L613.63-22.15Q611.33-22.15 609.56-20.9 607.78-19.65 606.81-17.35 605.83-15.05 605.83-12.1L605.83-12.1Q605.83-7.9 607.91-5.65 609.98-3.4 613.83-3.4L613.83-3.4Q615.53-3.4 617.28-4 619.03-4.6 621.68-6.05L621.68-6.05 623.58-2.95Q619.18 0.3 613.83 0.3L613.83 0.3ZM649.03-4.45Q649.03-3.9 649.38-3.53 649.73-3.15 650.28-3.15L650.28-3.15Q651.08-3.15 651.53-4.05L651.53-4.05 654.48-2.2Q653.78-0.9 652.65-0.18 651.53 0.55 650.03 0.55L650.03 0.55Q647.68 0.55 646.3-0.83 644.93-2.2 644.93-4.6L644.93-4.6 644.93-17.4Q644.93-22.15 640.08-22.15L640.08-22.15Q637.88-22.15 636.28-21.08 634.68-20 632.93-17.7L632.93-17.7 632.93-0.1 628.83-0.1 628.83-36.5 632.93-36.5 632.93-22.7Q636.18-25.95 640.43-25.95L640.43-25.95Q644.58-25.95 646.8-23.75 649.03-21.55 649.03-17.55L649.03-17.55 649.03-4.45Z" opacity="1" transform="matrix(1,0,0,1,0,0)" fill="#51bfa1" class="undefined-text-1" data-fill-palette-color="secondary" id="text-1"></path></svg></g></svg></g></svg></g></svg></g><g><svg viewBox="0 0 164.7155874785653 105.14921907420451" height="105.14921907420451" width="164.7155874785653"><g><svg xmlns="http://www.w3.org/2000/svg" xmlns:xlink="http://www.w3.org/1999/xlink" version="1.1" x="0" y="0" viewBox="4 23.299999237060547 90.70000457763672 57.9000129699707" style="enable-background:new 0 0 100 100;" xml:space="preserve" height="105.14921907420451" width="164.7155874785653" class="icon-icon-0" data-fill-palette-color="accent" id="icon-0"><path d="M87.4 59.6V45.2l-11.6-3.5 18.9-6L49.3 23.3 4 35.8l20.4 6.4 3.3 17.7 0.2 0.4c0.2 0.4 6.2 8 21.4 8 15.2 0 21-7.8 21.4-8l0.5-0.4 2.9-14.8 9.6 2.9v11.6c-1.3 0.3-2.4 1-3.3 2-1.3 1.5-1.8 3.4-1.6 5.3l1.5 14.3h10.5l1.5-14.3c0.2-2-0.4-3.8-1.6-5.3C89.8 60.6 88.6 59.9 87.4 59.6zM67.8 58.3c-1.3 1.3-6.5 6.2-18.3 6.2-12 0-17.2-4.9-18.3-6.2l-2.8-14.8 20.9 6.6 20.3-6.4 1 0.3L67.8 58.3zM69.7 40l-20-6-0.9 3.4 14.8 4.4-14.2 4.4L15.4 35.8l33.9-8.7L83 35.8 69.7 40zM87.5 77.5h-4l-0.9-11.1c-0.2-0.9 0.2-1.6 0.7-2.4 1.1-1.3 3.3-1.3 4.5 0 0.5 0.5 0.7 1.5 0.7 2.4L87.5 77.5z" fill="#51bfa1" data-fill-palette-color="accent"></path></svg></g></svg></g></svg></g></svg><rect width="395.52" height="72.34089398719" fill="none" stroke="none" visibility="hidden"></rect></g></svg></g></svg>