<?xml version="1.0" encoding="UTF-8"?>
<svg id="icon-0" xmlns="http://www.w3.org/2000/svg" viewBox="0 0 1020.87 186.73">
  <g id="tight-bounds">
    <g>
      <g>
        <path id="text-0" d="M354.21,23.65h-35.56V10.67h79.48v12.98h-35.63l3.42-3.48V111.53h-15.04V20.17l3.33,3.48Zm75.11,89.93h0c-6.54,0-12.46-1.69-17.73-5.07-5.28-3.38-9.47-8.08-12.57-14.09-3.08-6.02-4.62-12.98-4.62-20.9h0c0-8.4,1.53-15.59,4.59-21.57,3.06-6,7.23-10.61,12.51-13.84,5.28-3.21,11.22-4.81,17.83-4.81h0c5.91,0,10.98,1.2,15.2,3.61,4.22,2.39,7.62,5.61,10.2,9.66,2.6,4.03,4.38,8.6,5.35,13.71,.97,5.13,1.14,10.41,.51,15.83h-54.15v-8.71h43.86l-3.64,2.38c.17-2.85,.03-5.7-.41-8.55-.46-2.85-1.33-5.47-2.6-7.85-1.27-2.41-3.04-4.34-5.32-5.8-2.3-1.46-5.23-2.19-8.77-2.19h0c-4.43,0-8.14,1.11-11.12,3.33-2.98,2.22-5.24,5.19-6.78,8.93-1.52,3.72-2.28,7.79-2.28,12.22h0v6.08c0,4.92,.74,9.28,2.22,13.08,1.48,3.8,3.67,6.8,6.59,8.99,2.93,2.17,6.65,3.26,11.15,3.26h0c4.37,0,8-1.02,10.89-3.07,2.87-2.07,4.64-5.16,5.32-9.28h15.36c-.78,4.96-2.6,9.29-5.45,12.98-2.85,3.69-6.51,6.57-10.99,8.61-4.45,2.03-9.5,3.04-15.14,3.04Zm82.81,0h0c-6.23,0-12.03-1.67-17.42-5-5.38-3.31-9.71-7.98-12.98-14-3.27-6.02-4.91-13.09-4.91-21.22h0c0-8.55,1.64-15.79,4.91-21.72,3.27-5.95,7.6-10.49,12.98-13.62,5.38-3.15,11.19-4.72,17.42-4.72h0c4.58,0,8.67,.73,12.26,2.19,3.59,1.44,6.68,3.39,9.28,5.86,2.58,2.45,4.67,5.2,6.27,8.27,1.63,3.06,2.76,6.23,3.39,9.5h0l-15.3,.79c-1.1-3.97-3.04-7.15-5.83-9.53-2.77-2.41-6.18-3.61-10.23-3.61h0c-3.44,0-6.68,.96-9.72,2.88-3.02,1.92-5.47,4.86-7.35,8.8-1.88,3.93-2.82,8.9-2.82,14.92h0c0,5.59,.88,10.37,2.63,14.31,1.73,3.97,4.11,7.01,7.13,9.12,3,2.11,6.38,3.17,10.13,3.17h0c5.38,0,9.41-1.31,12.07-3.93,2.66-2.62,3.99-6.22,3.99-10.8h15.3c0,5.32-1.25,10.12-3.74,14.41-2.47,4.26-6.05,7.65-10.74,10.17-4.67,2.51-10.24,3.77-16.72,3.77Zm123.15-2.06h-14.95v-44.65c0-6.61-1.57-11.61-4.72-15.01s-7.38-5.1-12.7-5.1h0c-4.22,0-7.91,1.15-11.05,3.45-3.15,2.28-5.57,5.63-7.28,10.04-1.71,4.41-2.57,9.79-2.57,16.12h-5.38c0-9.35,1.2-17.22,3.61-23.59,2.39-6.4,5.83-11.24,10.32-14.54,4.48-3.29,9.86-4.94,16.15-4.94h0c6.12,0,11.31,1.37,15.55,4.12,4.24,2.74,7.47,6.64,9.69,11.69,2.22,5.05,3.33,10.97,3.33,17.77h0v44.65Zm-53.26,0h-15.04V3.29h15.04V111.53Zm101.08-87.88h-35.56V10.67h79.48v12.98h-35.59l3.39-3.48V111.53h-15.04V20.17l3.33,3.48Zm99.66,87.88V35.11h15.14V111.53h-15.14Zm-53.2-27.87V35.11h15.04v47.22c0,5.74,1.41,10.09,4.24,13.05,2.83,2.96,6.8,4.43,11.91,4.43h0c4.33,0,8.15-1.14,11.46-3.42,3.29-2.26,5.87-5.48,7.73-9.66,1.88-4.16,2.82-9.09,2.82-14.79h4.85c0,8.91-1.21,16.4-3.64,22.48-2.43,6.06-5.84,10.66-10.23,13.81-4.37,3.15-9.49,4.72-15.36,4.72h0c-5.59,0-10.57-1.03-14.92-3.1-4.35-2.05-7.76-5.23-10.23-9.53-2.45-4.31-3.67-9.86-3.67-16.66h0Zm123.66,29.93h0c-4.33,0-8.23-.82-11.72-2.47-3.48-1.63-6.24-4.09-8.27-7.38-2.05-3.31-3.07-7.47-3.07-12.48h0V14.62h14.98V90.78c0,7.18,3.35,10.77,10.04,10.77h0c2.07,0,4.07-.22,6.02-.67,1.96-.46,4.18-1.14,6.65-2.03h0l2.15,10.67c-2.81,1.16-5.56,2.13-8.27,2.91-2.72,.76-5.56,1.14-8.52,1.14Zm14.5-68.02h-49.18v-10.2h49.18v10.2Zm50.48,68.02h0c-6.9,0-13.09-1.51-18.56-4.53-5.47-3-9.79-7.48-12.95-13.46-3.17-5.95-4.75-13.31-4.75-22.07h0c0-8.93,1.58-16.36,4.75-22.29,3.17-5.93,7.48-10.41,12.95-13.43,5.47-3,11.65-4.5,18.56-4.5h0c6.82,0,12.94,1.5,18.37,4.5,5.45,3.02,9.73,7.49,12.86,13.43,3.15,5.93,4.72,13.36,4.72,22.29h0c0,8.76-1.57,16.12-4.72,22.07-3.12,5.97-7.41,10.46-12.86,13.46-5.43,3.02-11.55,4.53-18.37,4.53Zm-.48-13.14h0c4.39,0,8.18-1.06,11.37-3.17,3.19-2.11,5.64-5.18,7.35-9.22,1.73-4.05,2.6-8.9,2.6-14.54h0c0-8.66-1.76-15.36-5.29-20.11-3.5-4.75-8.55-7.13-15.14-7.13h0c-4.43,0-8.25,1.07-11.46,3.2-3.19,2.15-5.64,5.25-7.35,9.28-1.71,4.03-2.57,8.95-2.57,14.76h0c0,8.49,1.76,15.09,5.29,19.82,3.55,4.73,8.61,7.09,15.2,7.09Zm74.73,11.08h-15.04V35.11h15.04V111.53Zm0-34.04h-4.12c0-9.77,1.01-17.89,3.04-24.35,2.03-6.46,4.88-11.27,8.55-14.44,3.67-3.17,7.99-4.75,12.95-4.75h0c1.48,0,2.86,.11,4.15,.32,1.29,.21,2.57,.5,3.83,.86h0l-.54,14.98c-1.44-.38-2.98-.71-4.62-.98-1.67-.3-3.19-.44-4.56-.44h0c-4.33,0-7.86,1.15-10.61,3.45-2.74,2.28-4.78,5.57-6.11,9.88-1.31,4.31-1.96,9.47-1.96,15.49h0Z" style="fill: #61777f;"/>
        <path id="text-1" d="M396.42,172.13c-1.44,0-2.81-.09-4.1-.26h0c-.58-.06-1.22-.17-1.94-.33-.72-.16-1.24-.29-1.55-.41h0v-30.83h3.54v11.14c.81-.69,1.71-1.21,2.7-1.55,.99-.35,2.02-.52,3.08-.52h0c1.84,0,3.48,.49,4.9,1.47,1.42,.98,2.52,2.33,3.3,4.06,.78,1.73,1.17,3.67,1.17,5.83h0c0,2.1-.39,4.01-1.17,5.72-.78,1.72-1.99,3.09-3.64,4.13-1.66,1.04-3.75,1.55-6.29,1.55h0Zm-.04-3.24c2.71,0,4.65-.75,5.83-2.25,1.18-1.5,1.77-3.45,1.77-5.87h0c0-1.7-.26-3.17-.79-4.4-.54-1.24-1.25-2.18-2.16-2.83-.91-.64-1.91-.97-3-.97h0c-1.21,0-2.42,.43-3.63,1.3h0c-1.21,.89-1.89,2.12-2.03,3.67h0v11.1l1.68,.17c.58,.06,1.35,.09,2.33,.09h0Zm30.01,.17c-.6,.95-1.55,1.68-2.85,2.2-1.3,.52-2.63,.78-4.02,.78h0c-2.19,0-3.96-.56-5.31-1.67-1.35-1.11-2.06-2.75-2.12-4.94h0v-8.81c0-2.25-.6-3.89-1.81-4.92h0l2.37-2.2c.72,.4,1.39,1.12,2,2.16,.62,1.04,.95,2.14,.98,3.32h0v9.33c0,1.47,.32,2.59,.95,3.37,.63,.78,1.68,1.17,3.15,1.17h0c1.3,0,2.39-.3,3.28-.91,.89-.6,1.87-1.61,2.94-3.02h0l.04-14.81h3.54v17.57c0,.4,.09,.71,.28,.92,.19,.22,.47,.33,.85,.33h0c.49,0,.88-.24,1.17-.73h0l2.42,1.6c-.37,.72-.92,1.29-1.62,1.7-.7,.42-1.46,.63-2.26,.63h0c-1.06,0-1.98-.31-2.75-.93-.76-.62-1.17-1.34-1.23-2.18h0v.04Zm14.98-1.21c0,.32,.1,.58,.3,.79,.2,.22,.46,.33,.78,.33h0c.46,0,.82-.26,1.08-.78h0l2.55,1.6c-.4,.75-.93,1.33-1.58,1.74-.64,.42-1.4,.63-2.26,.63h0c-1.35,0-2.43-.4-3.22-1.19-.79-.79-1.18-1.87-1.18-3.26h0v-17.66h3.54v17.79Zm-1.81-21.98c-.58,0-1.09-.23-1.55-.69-.46-.46-.69-.98-.69-1.55h0c0-.6,.23-1.14,.69-1.6,.46-.46,.98-.69,1.55-.69h0c.6,0,1.14,.23,1.61,.69,.48,.46,.72,.99,.72,1.6h0c0,.58-.24,1.09-.72,1.55-.47,.46-1.01,.69-1.61,.69h0Zm13.63,21.98c0,.32,.1,.58,.3,.79,.2,.22,.46,.33,.78,.33h0c.46,0,.82-.26,1.08-.78h0l2.55,1.6c-.4,.75-.93,1.33-1.57,1.74-.65,.42-1.41,.63-2.27,.63h0c-1.35,0-2.42-.4-3.21-1.19-.79-.79-1.19-1.87-1.19-3.26h0v-27.42h3.54v27.55Zm15.59,4.27c-2.07,0-3.83-.51-5.27-1.54-1.44-1.02-2.51-2.39-3.21-4.1-.71-1.71-1.06-3.59-1.06-5.63h0c0-2.19,.44-4.15,1.32-5.9,.88-1.74,2.13-3.11,3.76-4.1,1.62-.99,3.51-1.49,5.67-1.49h0c.86,0,2.33,.1,4.4,.3h0v-9.41h3.54v27.42c0,.4,.09,.71,.28,.92,.18,.22,.46,.33,.84,.33h0c.49,0,.88-.26,1.17-.78h0l2.46,1.6c-.37,.75-.93,1.33-1.66,1.74-.74,.42-1.52,.63-2.36,.63h0c-1.04-.03-1.93-.35-2.68-.95-.75-.6-1.15-1.31-1.21-2.12h0c-.55,.98-1.38,1.73-2.5,2.26-1.12,.54-2.29,.8-3.5,.8h0Zm0-3.19c1.12,0,2.13-.29,3.02-.86,.89-.58,1.58-1.35,2.07-2.33h0c.35-.75,.52-1.55,.52-2.42h0v-10.23c-.26-.03-.73-.12-1.42-.26-.69-.14-1.4-.22-2.12-.22h0c-2.68,0-4.69,.73-6.04,2.2-1.35,1.47-2.03,3.4-2.03,5.79h0c0,2.36,.54,4.34,1.62,5.93,1.08,1.6,2.54,2.4,4.38,2.4h0Zm20.98-1.08c0,.32,.1,.58,.3,.79,.2,.22,.46,.33,.78,.33h0c.46,0,.82-.26,1.08-.78h0l2.55,1.6c-.4,.75-.93,1.33-1.58,1.74-.64,.42-1.4,.63-2.26,.63h0c-1.35,0-2.43-.4-3.22-1.19-.79-.79-1.18-1.87-1.18-3.26h0v-17.66h3.54v17.79Zm-1.81-21.98c-.58,0-1.09-.23-1.55-.69-.46-.46-.69-.98-.69-1.55h0c0-.6,.23-1.14,.69-1.6,.46-.46,.98-.69,1.55-.69h0c.6,0,1.14,.23,1.61,.69,.48,.46,.72,.99,.72,1.6h0c0,.58-.24,1.09-.72,1.55-.47,.46-1.01,.69-1.61,.69h0Zm29.66,22.32l2.55,1.6c-.4,.75-.93,1.33-1.58,1.74-.64,.42-1.4,.63-2.26,.63h0c-1.35,0-2.43-.4-3.22-1.19-.79-.79-1.18-1.87-1.18-3.26h0v-10.58c0-1.44-.3-2.54-.91-3.31-.6-.76-1.64-1.14-3.11-1.14h0c-1.32,0-2.46,.32-3.39,.95-.93,.63-1.89,1.6-2.87,2.89h0v15.2h-3.54v-15.15c0-2.25-.6-3.89-1.81-4.92h0l2.37-2.2c.49,.26,.96,.68,1.42,1.27,.46,.59,.83,1.26,1.12,2.01h0c1.78-2.16,4.09-3.24,6.91-3.24h0c2.13,0,3.86,.57,5.18,1.7,1.32,1.14,2.04,2.75,2.16,4.82h0v11.83c0,.32,.1,.58,.3,.79,.2,.22,.46,.33,.78,.33h0c.46,0,.82-.26,1.08-.78h0Zm15.66,15.24c-1.24,0-2.37-.29-3.41-.88-1.04-.59-1.86-1.4-2.48-2.42-.62-1.02-.93-2.14-.93-3.35h0c0-2.01,.78-3.71,2.33-5.09h0c-2.36-.69-4.18-1.96-5.46-3.8-1.28-1.84-1.93-4.1-1.93-6.78h0c0-2.27,.46-4.3,1.38-6.09,.92-1.78,2.2-3.17,3.83-4.17,1.62-.99,3.49-1.49,5.59-1.49h0l2.68,.09,2.46,.3h2.94v26.08c0,2.27-.65,4.11-1.94,5.51-1.3,1.39-2.98,2.09-5.05,2.09h0Zm-2.5-14.64c1.3,0,2.55-.52,3.76-1.55h0c.66-.55,1.19-1.15,1.6-1.81s.6-1.25,.6-1.77h0v-11.05l-3.37-.04h-1.34c-1.32,0-2.52,.36-3.6,1.08-1.08,.72-1.93,1.7-2.55,2.95-.62,1.25-.93,2.66-.93,4.21h0c0,1.44,.27,2.77,.8,3.99,.53,1.23,1.24,2.2,2.13,2.92,.89,.72,1.86,1.08,2.89,1.08h0Zm2.68,11.44c1.01,0,1.81-.39,2.4-1.17,.59-.78,.88-1.81,.88-3.11h0v-7.08c-.06,.09-.2,.28-.43,.58-.23,.31-.47,.59-.73,.85h0c-.66,.63-1.86,1.47-3.58,2.5h0c-1.38,.83-2.07,2.16-2.07,3.97h0c0,.92,.35,1.73,1.06,2.42,.7,.69,1.53,1.04,2.48,1.04h0Zm31.73-8.12c-2.01,0-3.53-.61-4.56-1.84-1.02-1.22-1.53-2.92-1.53-5.11h0v-20.64h3.54v5.57h6.61v3.19h-6.61v11.87c0,1.04,.22,1.91,.65,2.61,.43,.71,1.06,1.06,1.9,1.06h0c.83,0,1.54-.24,2.12-.72,.58-.47,1.02-1.11,1.34-1.92h0l2.76,1.77c-1.38,2.76-3.45,4.14-6.22,4.14h0Zm27.76-4.27c0,.32,.1,.58,.3,.79,.2,.22,.46,.33,.78,.33h0c.46,0,.82-.26,1.08-.78h0l2.55,1.6c-.4,.75-.93,1.33-1.58,1.74-.64,.42-1.4,.63-2.26,.63h0c-1.35,0-2.43-.4-3.22-1.19-.79-.79-1.18-1.87-1.18-3.26h0v-11.05c0-2.73-1.4-4.1-4.19-4.1h0c-1.27,0-2.36,.31-3.28,.92-.92,.62-1.89,1.59-2.89,2.92h0v15.2h-3.54v-31.43h3.54v11.92c1.87-1.87,4.03-2.81,6.48-2.81h0c2.39,0,4.22,.63,5.5,1.9,1.28,1.27,1.93,3.05,1.93,5.35h0v11.31Zm16.1,4.27c-2.13,0-3.95-.47-5.46-1.41-1.51-.93-2.66-2.2-3.44-3.8-.78-1.59-1.17-3.38-1.17-5.37h0c0-1.96,.37-3.86,1.12-5.7,.75-1.84,1.87-3.37,3.37-4.58,1.5-1.21,3.34-1.81,5.53-1.81h0c1.44,0,2.78,.28,4.02,.84,1.24,.56,2.22,1.37,2.96,2.42,.73,1.05,1.1,2.27,1.1,3.65h0c0,2.22-.91,3.96-2.72,5.22-1.81,1.27-4.17,1.87-7.08,1.81h0l-4.49-.09c.32,1.78,1.02,3.16,2.1,4.12,1.08,.97,2.51,1.45,4.29,1.45h0c2.33,0,4.55-.78,6.65-2.33h0l1.94,2.46c-2.73,2.07-5.64,3.11-8.72,3.11h0Zm-1.77-11.83c1.93,0,3.45-.33,4.58-.99,1.12-.66,1.68-1.66,1.68-2.98h0c0-1.18-.42-2.09-1.27-2.72-.85-.63-1.87-.95-3.05-.95h0c-1.32,0-2.48,.39-3.45,1.18-.98,.79-1.73,1.78-2.25,2.96-.52,1.18-.82,2.35-.91,3.5h4.66Zm28.24-10.92c0-3.28,.61-5.73,1.83-7.34,1.23-1.61,3.08-2.42,5.55-2.42h0c1.99,0,3.57,.62,4.75,1.86,1.18,1.24,1.77,2.91,1.77,5.01h0c0,1.55-.33,2.94-.99,4.14-.66,1.21-1.6,2.15-2.81,2.82-1.21,.68-2.59,1.02-4.14,1.02h0c-.43,0-.76-.01-.99-.04h0l-1.42-.13v5.79h6.22v3.19h-6.22v19.3h-3.54v-33.2Zm4.97,1.86c1.67,0,2.98-.43,3.95-1.28,.97-.85,1.45-2.02,1.45-3.51h0c0-1.15-.27-2.04-.82-2.68-.55-.63-1.3-.95-2.25-.95h0c-1.27,0-2.21,.6-2.83,1.81-.62,1.21-.92,3.08-.92,5.61h0v.99h1.42Zm26.55,17.83c-.6,.95-1.55,1.68-2.85,2.2-1.3,.52-2.63,.78-4.02,.78h0c-2.19,0-3.96-.56-5.31-1.67-1.35-1.11-2.06-2.75-2.12-4.94h0v-8.81c0-2.25-.6-3.89-1.81-4.92h0l2.37-2.2c.72,.4,1.39,1.12,2,2.16,.62,1.04,.95,2.14,.98,3.32h0v9.33c0,1.47,.32,2.59,.95,3.37,.63,.78,1.68,1.17,3.15,1.17h0c1.3,0,2.39-.3,3.28-.91,.89-.6,1.87-1.61,2.94-3.02h0l.04-14.81h3.54v17.57c0,.4,.09,.71,.28,.92,.19,.22,.47,.33,.85,.33h0c.49,0,.88-.24,1.17-.73h0l2.42,1.6c-.37,.72-.92,1.29-1.62,1.7-.7,.42-1.46,.63-2.26,.63h0c-1.06,0-1.98-.31-2.75-.93-.76-.62-1.17-1.34-1.23-2.18h0v.04Zm16.92,3.07c-2.01,0-3.53-.61-4.55-1.84-1.02-1.22-1.54-2.92-1.54-5.11h0v-20.64h3.54v5.57h6.61v3.19h-6.61v11.87c0,1.04,.22,1.91,.65,2.61,.43,.71,1.07,1.06,1.9,1.06h0c.83,0,1.54-.24,2.12-.72,.58-.47,1.02-1.11,1.34-1.92h0l2.76,1.77c-1.38,2.76-3.45,4.14-6.22,4.14h0Zm24.57-3.07c-.6,.95-1.55,1.68-2.85,2.2-1.3,.52-2.63,.78-4.02,.78h0c-2.19,0-3.96-.56-5.31-1.67-1.35-1.11-2.06-2.75-2.12-4.94h0v-8.81c0-2.25-.6-3.89-1.81-4.92h0l2.37-2.2c.72,.4,1.39,1.12,2.01,2.16,.62,1.04,.94,2.14,.97,3.32h0v9.33c0,1.47,.32,2.59,.95,3.37,.63,.78,1.68,1.17,3.15,1.17h0c1.3,0,2.39-.3,3.28-.91,.89-.6,1.87-1.61,2.94-3.02h0l.04-14.81h3.54v17.57c0,.4,.09,.71,.28,.92,.18,.22,.46,.33,.84,.33h0c.49,0,.88-.24,1.17-.73h0l2.42,1.6c-.37,.72-.91,1.29-1.61,1.7-.71,.42-1.47,.63-2.27,.63h0c-1.06,0-1.98-.31-2.74-.93-.77-.62-1.18-1.34-1.23-2.18h0v.04Zm20.38-19.69c.83,0,1.83,.14,2.98,.43h0l-.09,3.41c-1.15-.32-2.09-.47-2.81-.47h0c-1.35,0-2.4,.32-3.15,.95h0c-.86,.69-1.61,1.61-2.25,2.76h0v15.28h-3.54v-15.28c0-2.25-.6-3.89-1.81-4.92h0l2.37-2.2c.43,.26,.87,.65,1.31,1.17,.45,.52,.82,1.11,1.11,1.77h0c.63-.81,1.28-1.42,1.94-1.86h0c1.09-.69,2.4-1.04,3.93-1.04h0Zm14.68,22.75c-2.13,0-3.95-.47-5.47-1.41-1.51-.93-2.65-2.2-3.43-3.8-.78-1.59-1.17-3.38-1.17-5.37h0c0-1.96,.37-3.86,1.12-5.7,.75-1.84,1.87-3.37,3.37-4.58,1.5-1.21,3.34-1.81,5.53-1.81h0c1.44,0,2.78,.28,4.02,.84,1.24,.56,2.22,1.37,2.95,2.42,.74,1.05,1.11,2.27,1.11,3.65h0c0,2.22-.91,3.96-2.72,5.22-1.81,1.27-4.17,1.87-7.08,1.81h0l-4.49-.09c.32,1.78,1.01,3.16,2.09,4.12,1.08,.97,2.52,1.45,4.3,1.45h0c2.33,0,4.55-.78,6.65-2.33h0l1.94,2.46c-2.73,2.07-5.64,3.11-8.72,3.11h0Zm-1.77-11.83c1.93,0,3.45-.33,4.58-.99,1.12-.66,1.68-1.66,1.68-2.98h0c0-1.18-.43-2.09-1.28-2.72-.85-.63-1.86-.95-3.04-.95h0c-1.32,0-2.48,.39-3.45,1.18-.98,.79-1.73,1.78-2.25,2.96-.52,1.18-.82,2.35-.91,3.5h4.66Zm27.67-6.26c-.14-.49-.45-.97-.92-1.45-.48-.47-.9-.81-1.28-1.01h0l1.73-2.81c1.87,1.12,3.19,2.85,3.97,5.18h0l3.89,11.7,5.18-15.93h3.15l5.22,15.93,5.18-15.93h3.58l-7.17,21.98h-3.19l-5.18-15.93-5.22,15.93h-3.19l-5.74-17.66Zm37.17,13.82c0,.32,.1,.58,.3,.79,.2,.22,.46,.33,.78,.33h0c.46,0,.82-.26,1.08-.78h0l2.55,1.6c-.4,.75-.93,1.33-1.58,1.74-.64,.42-1.4,.63-2.26,.63h0c-1.35,0-2.43-.4-3.22-1.19-.79-.79-1.18-1.87-1.18-3.26h0v-17.66h3.54v17.79Zm-1.81-21.98c-.58,0-1.09-.23-1.55-.69-.46-.46-.69-.98-.69-1.55h0c0-.6,.23-1.14,.69-1.6,.46-.46,.98-.69,1.55-.69h0c.6,0,1.14,.23,1.61,.69,.48,.46,.72,.99,.72,1.6h0c0,.58-.24,1.09-.72,1.55-.47,.46-1.01,.69-1.61,.69h0Zm15.59,26.25c-2.01,0-3.53-.61-4.56-1.84-1.02-1.22-1.53-2.92-1.53-5.11h0v-20.64h3.54v5.57h6.61v3.19h-6.61v11.87c0,1.04,.22,1.91,.65,2.61,.43,.71,1.06,1.06,1.9,1.06h0c.83,0,1.54-.24,2.12-.72,.58-.47,1.02-1.11,1.34-1.92h0l2.76,1.77c-1.38,2.76-3.45,4.14-6.22,4.14h0Zm27.75-4.27c0,.32,.1,.58,.3,.79,.2,.22,.46,.33,.78,.33h0c.46,0,.82-.26,1.08-.78h0l2.55,1.6c-.4,.75-.93,1.33-1.57,1.74-.65,.42-1.41,.63-2.27,.63h0c-1.35,0-2.42-.4-3.21-1.19-.79-.79-1.19-1.87-1.19-3.26h0v-11.05c0-2.73-1.4-4.1-4.19-4.1h0c-1.27,0-2.36,.31-3.28,.92-.92,.62-1.89,1.59-2.89,2.92h0v15.2h-3.54v-31.43h3.54v11.92c1.87-1.87,4.03-2.81,6.48-2.81h0c2.39,0,4.23,.63,5.51,1.9,1.28,1.27,1.92,3.05,1.92,5.35h0v11.31Zm26.73,4.27c-2.01,0-3.53-.61-4.56-1.84-1.02-1.22-1.53-2.92-1.53-5.11h0v-20.64h3.54v5.57h6.61v3.19h-6.61v11.87c0,1.04,.22,1.91,.65,2.61,.43,.71,1.06,1.06,1.9,1.06h0c.83,0,1.54-.24,2.12-.72,.58-.47,1.02-1.11,1.34-1.92h0l2.76,1.77c-1.38,2.76-3.45,4.14-6.22,4.14h0Zm17.91,0c-2.13,0-3.95-.47-5.46-1.41-1.51-.93-2.66-2.2-3.44-3.8-.78-1.59-1.17-3.38-1.17-5.37h0c0-1.96,.37-3.86,1.12-5.7,.75-1.84,1.87-3.37,3.37-4.58,1.5-1.21,3.34-1.81,5.53-1.81h0c1.44,0,2.78,.28,4.02,.84,1.24,.56,2.22,1.37,2.96,2.42,.73,1.05,1.1,2.27,1.1,3.65h0c0,2.22-.91,3.96-2.72,5.22-1.81,1.27-4.17,1.87-7.08,1.81h0l-4.49-.09c.32,1.78,1.02,3.16,2.1,4.12,1.08,.97,2.51,1.45,4.29,1.45h0c2.33,0,4.55-.78,6.65-2.33h0l1.94,2.46c-2.73,2.07-5.64,3.11-8.72,3.11h0Zm-1.77-11.83c1.93,0,3.45-.33,4.58-.99,1.12-.66,1.68-1.66,1.68-2.98h0c0-1.18-.42-2.09-1.27-2.72-.85-.63-1.87-.95-3.05-.95h0c-1.32,0-2.48,.39-3.45,1.18-.98,.79-1.73,1.78-2.25,2.96-.52,1.18-.82,2.35-.91,3.5h4.66Zm24.57,11.66c-3.28,0-5.84-.95-7.69-2.85-1.84-1.9-2.76-4.53-2.76-7.9h0c0-2.3,.43-4.35,1.28-6.16,.85-1.8,2.03-3.19,3.56-4.19,1.53-.99,3.28-1.49,5.27-1.49h0c1.58,0,3.02,.32,4.3,.97,1.28,.65,2.26,1.54,2.94,2.66,.67,1.12,.95,2.36,.84,3.71h-3.45c.12-1.18-.24-2.17-1.08-2.96-.83-.79-1.96-1.18-3.37-1.18h0c-1.32,0-2.5,.36-3.51,1.08-1.02,.72-1.82,1.74-2.37,3.07-.56,1.32-.85,2.84-.85,4.53h0c0,2.42,.6,4.27,1.8,5.57,1.19,1.3,2.9,1.94,5.11,1.94h0c.98,0,1.97-.17,2.98-.52,1.01-.35,2.27-.94,3.8-1.77h0l1.64,2.68c-2.53,1.87-5.34,2.81-8.42,2.81h0Zm30.4-4.1c0,.32,.1,.58,.3,.79,.2,.22,.46,.33,.78,.33h0c.46,0,.82-.26,1.08-.78h0l2.55,1.6c-.4,.75-.93,1.33-1.58,1.74-.64,.42-1.4,.63-2.26,.63h0c-1.35,0-2.43-.4-3.22-1.19-.79-.79-1.18-1.87-1.18-3.26h0v-11.05c0-2.73-1.4-4.1-4.19-4.1h0c-1.27,0-2.36,.31-3.28,.92-.92,.62-1.89,1.59-2.89,2.92h0v15.2h-3.54v-31.43h3.54v11.92c1.87-1.87,4.03-2.81,6.48-2.81h0c2.39,0,4.22,.63,5.5,1.9,1.28,1.27,1.93,3.05,1.93,5.35h0v11.31Z" style="fill: #51bfa1;"/>
      </g>
      <path d="M268.97,117.07v-46.44l-37.41-11.29,60.95-19.35L146.1,0,0,40.31l65.79,20.64,10.64,57.08,.65,1.29c.65,1.29,20,25.8,69.02,25.8s67.73-25.16,69.02-25.8l1.61-1.29,9.35-47.73,30.96,9.35v37.41c-4.19,.97-7.74,3.23-10.64,6.45-4.19,4.84-5.81,10.97-5.16,17.09l4.84,46.12h33.86l4.84-46.12c.65-6.45-1.29-12.26-5.16-17.09-2.9-3.23-6.77-5.48-10.64-6.45Zm-63.21-4.19c-4.19,4.19-20.96,20-59.02,20s-55.47-15.8-59.02-20l-9.03-47.73,67.4,21.29,65.47-20.64,3.23,.97-9.03,46.12Zm6.13-59.02l-64.5-19.35-2.9,10.97,47.73,14.19-45.8,14.19L36.77,40.31,146.1,12.26l108.69,28.06-42.89,13.55Zm57.41,120.94h-12.9l-2.9-35.8c-.65-2.9,.65-5.16,2.26-7.74,3.55-4.19,10.64-4.19,14.51,0,1.61,1.61,2.26,4.84,2.26,7.74l-3.23,35.8Z" style="fill: #51bfa1;"/>
    </g>
  </g>
</svg>