<svg xmlns="http://www.w3.org/2000/svg" version="1.1" xmlns:xlink="http://www.w3.org/1999/xlink" xmlns:svgjs="http://svgjs.dev/svgjs" width="2000" height="383" viewBox="0 0 2000 383"><g transform="matrix(1,0,0,1,-1.2121191263103128,-1.0482691515913984)"><svg viewBox="0 0 396 76" data-background-color="#f8f8f8" preserveAspectRatio="xMidYMid meet" height="383" width="2000" xmlns="http://www.w3.org/2000/svg" xmlns:xlink="http://www.w3.org/1999/xlink"><defs></defs><g id="tight-bounds" transform="matrix(1,0,0,1,0.2399995870094358,0.2080131261696181)"><svg viewBox="0 0 395.52 75.58397315800012" height="75.58397315800012" width="395.52"><g><svg viewBox="0 0 512.3261404359698 97.90565646959482" height="75.58397315800012" width="395.52"><g><rect width="5.582482381975727" height="94.93023130915849" x="410.1338282250673" y="1.4877125802181652" fill="#61777f" opacity="1" stroke-width="0" stroke="transparent" fill-opacity="1" class="rect-o-0" data-fill-palette-color="primary" rx="1%" id="o-0" data-palette-color="#61777f"></rect></g><g transform="matrix(1,0,0,1,0,1.7238574342210455)"><svg viewBox="0 0 395.52 94.45794160115273" height="94.45794160115273" width="395.52"><g><svg viewBox="0 0 395.52 94.45794160115273" height="94.45794160115273" width="395.52"><g><svg viewBox="0 0 395.52 61.90306606799229" height="61.90306606799229" width="395.52"><g transform="matrix(1,0,0,1,0,0)"><svg width="395.52" viewBox="1.399999976158142 -36 241.48001098632812 36.599998474121094" height="61.90306606799229" data-palette-color="#61777f"><g class="undefined-text-0" data-fill-palette-color="primary" id="text-0"><path d="M17.05 0L11.75 0 11.75-30.7 1.4-30.7 1.4-35 27.35-35 27.35-30.7 17.05-30.7 17.05 0ZM43.7 0.6L43.7 0.6Q40.05 0.6 37.22-1.03 34.4-2.65 32.8-5.55 31.2-8.45 31.2-12.3L31.2-12.3Q31.2-16.2 32.77-19.15 34.35-22.1 37.17-23.75 40-25.4 43.75-25.4L43.75-25.4Q47.4-25.4 50.1-23.78 52.8-22.15 54.3-19.45 55.8-16.75 55.8-13.5L55.8-13.5Q55.8-13 55.77-12.43 55.75-11.85 55.7-11.15L55.7-11.15 36.4-11.15Q36.65-7.55 38.77-5.68 40.9-3.8 43.7-3.8L43.7-3.8Q45.95-3.8 47.47-4.83 49-5.85 49.75-7.6L49.75-7.6 55.05-7.6Q54.05-4.1 51.07-1.75 48.1 0.6 43.7 0.6ZM43.7-21.05L43.7-21.05Q41.05-21.05 39-19.48 36.95-17.9 36.5-14.75L36.5-14.75 50.5-14.75Q50.35-17.65 48.45-19.35 46.55-21.05 43.7-21.05ZM73.05 0.6L73.05 0.6Q69.4 0.6 66.52-1.05 63.65-2.7 62.02-5.63 60.4-8.55 60.4-12.4L60.4-12.4Q60.4-16.25 62.02-19.18 63.65-22.1 66.52-23.75 69.4-25.4 73.05-25.4L73.05-25.4Q77.65-25.4 80.77-23 83.9-20.6 84.8-16.5L84.8-16.5 79.25-16.5Q78.75-18.55 77.05-19.7 75.35-20.85 73.05-20.85L73.05-20.85Q71.1-20.85 69.45-19.88 67.8-18.9 66.8-17.03 65.8-15.15 65.8-12.4L65.8-12.4Q65.8-9.65 66.8-7.78 67.8-5.9 69.45-4.9 71.1-3.9 73.05-3.9L73.05-3.9Q75.35-3.9 77.05-5.05 78.75-6.2 79.25-8.3L79.25-8.3 84.8-8.3Q83.95-4.3 80.8-1.85 77.65 0.6 73.05 0.6ZM95.84 0L90.54 0 90.54-36 95.84-36 95.84-20.8Q97.09-22.95 99.32-24.18 101.54-25.4 104.24-25.4L104.24-25.4Q108.69-25.4 111.24-22.6 113.79-19.8 113.79-14.25L113.79-14.25 113.79 0 108.54 0 108.54-13.7Q108.54-20.9 102.79-20.9L102.79-20.9Q99.79-20.9 97.82-18.8 95.84-16.7 95.84-12.8L95.84-12.8 95.84 0ZM133.74 0L128.44 0 128.44-30.7 118.09-30.7 118.09-35 144.04-35 144.04-30.7 133.74-30.7 133.74 0ZM157.94 0.6L157.94 0.6Q153.44 0.6 150.86-2.2 148.29-5 148.29-10.55L148.29-10.55 148.29-24.8 153.59-24.8 153.59-11.1Q153.59-3.9 159.49-3.9L159.49-3.9Q162.44-3.9 164.34-6 166.24-8.1 166.24-12L166.24-12 166.24-24.8 171.54-24.8 171.54 0 166.84 0 166.44-4.35Q165.29-2.05 163.06-0.73 160.84 0.6 157.94 0.6ZM192.78 0L188.69 0Q185.03 0 182.88-1.78 180.74-3.55 180.74-8.1L180.74-8.1 180.74-20.35 176.49-20.35 176.49-24.8 180.74-24.8 181.38-31.1 186.03-31.1 186.03-24.8 193.03-24.8 193.03-20.35 186.03-20.35 186.03-8.1Q186.03-6.05 186.91-5.28 187.78-4.5 189.94-4.5L189.94-4.5 192.78-4.5 192.78 0ZM210.08 0.6L210.08 0.6Q206.53 0.6 203.71-1.03 200.88-2.65 199.23-5.58 197.58-8.5 197.58-12.4L197.58-12.4Q197.58-16.3 199.26-19.23 200.93-22.15 203.78-23.78 206.63-25.4 210.13-25.4L210.13-25.4Q213.68-25.4 216.51-23.78 219.33-22.15 221.01-19.23 222.68-16.3 222.68-12.4L222.68-12.4Q222.68-8.5 221.01-5.58 219.33-2.65 216.48-1.03 213.63 0.6 210.08 0.6ZM210.08-3.95L210.08-3.95Q211.98-3.95 213.61-4.9 215.23-5.85 216.23-7.73 217.23-9.6 217.23-12.4L217.23-12.4Q217.23-15.2 216.26-17.07 215.28-18.95 213.66-19.9 212.03-20.85 210.13-20.85L210.13-20.85Q208.23-20.85 206.61-19.9 204.98-18.95 203.98-17.07 202.98-15.2 202.98-12.4L202.98-12.4Q202.98-9.6 203.98-7.73 204.98-5.85 206.58-4.9 208.18-3.95 210.08-3.95ZM233.73 0L228.43 0 228.43-24.8 233.18-24.8 233.63-20.1Q234.93-22.55 237.25-23.98 239.58-25.4 242.88-25.4L242.88-25.4 242.88-19.85 241.43-19.85Q239.23-19.85 237.5-19.13 235.78-18.4 234.75-16.68 233.73-14.95 233.73-11.9L233.73-11.9 233.73 0Z" fill="#61777f" data-fill-palette-color="primary"></path></g></svg></g></svg></g><g transform="matrix(1,0,0,1,94.9248,76.51689429305964)"><svg viewBox="0 0 300.5952 17.941047308093086" height="17.941047308093086" width="300.5952"><g transform="matrix(1,0,0,1,0,0)"><svg width="300.5952" viewBox="2.799999952316284 -40.45000076293945 863.6300048828125 51.55000305175781" height="17.941047308093086" data-palette-color="#51bfa1"><path d="M28.55-10.15Q28.55-4.6 24.63-2.3 20.7 0 14.3 0L14.3 0 2.8 0 2.8-34.65 13.8-34.65Q19.75-34.65 23.4-32.58 27.05-30.5 27.05-25.8L27.05-25.8Q27.05-22.85 25.25-20.95 23.45-19.05 20.7-18.35L20.7-18.35Q24-17.8 26.28-15.88 28.55-13.95 28.55-10.15L28.55-10.15ZM18.8-24.95Q18.8-27 17.53-27.93 16.25-28.85 13.5-28.85L13.5-28.85 11-28.85 11-20.8 13.8-20.8Q16.4-20.8 17.6-21.78 18.8-22.75 18.8-24.95L18.8-24.95ZM20.1-10.5Q20.1-13.1 18.63-14.2 17.15-15.3 14.35-15.3L14.35-15.3 11-15.3 11-6 14-6Q16.85-6 18.48-6.95 20.1-7.9 20.1-10.5L20.1-10.5ZM41.4-26.55L41.4-8.4Q41.4-6.55 42.07-5.78 42.75-5 44.1-5L44.1-5Q45.3-5 46.55-5.78 47.8-6.55 48.6-7.9L48.6-7.9 48.6-26.55 56.5-26.55 56.5 0 49.6 0 49.25-3.1Q47.95-1.2 45.75-0.18 43.55 0.85 41.1 0.85L41.1 0.85Q37.35 0.85 35.42-1.33 33.5-3.5 33.5-7.4L33.5-7.4 33.5-26.55 41.4-26.55ZM74.95-40.45Q77-40.45 78.3-39.18 79.59-37.9 79.59-36L79.59-36Q79.59-34.05 78.3-32.8 77-31.55 74.95-31.55L74.95-31.55Q72.9-31.55 71.57-32.83 70.25-34.1 70.25-36L70.25-36Q70.25-37.9 71.57-39.18 72.9-40.45 74.95-40.45L74.95-40.45ZM79.7-26.55L79.7-5.4 86.5-5.4 86.5 0 64.3 0 64.3-5.4 71.8-5.4 71.8-21.15 64.55-21.15 64.55-26.55 79.7-26.55ZM107.34-37.1L107.34-8.35Q107.34-5.4 110.74-5.4L110.74-5.4Q112.59-5.4 114.54-6.2L114.54-6.2 116.39-0.9Q113.19 0.85 108.74 0.85L108.74 0.85Q104.09 0.85 101.77-1.83 99.44-4.5 99.44-9.35L99.44-9.35 99.44-31.7 91.64-31.7 91.64-37.1 107.34-37.1ZM138.59-37.95L146.49-37.1 146.49 0 139.49 0 139.09-2.9Q137.89-1.2 136.04-0.18 134.19 0.85 131.74 0.85L131.74 0.85Q126.94 0.85 124.47-2.95 121.99-6.75 121.99-13.35L121.99-13.35Q121.99-17.45 123.29-20.65 124.59-23.85 126.99-25.65 129.39-27.45 132.59-27.45L132.59-27.45Q136.19-27.45 138.59-24.95L138.59-24.95 138.59-37.95ZM134.69-21.65Q132.54-21.65 131.34-19.63 130.14-17.6 130.14-13.3L130.14-13.3Q130.14-8.7 131.22-6.83 132.29-4.95 134.24-4.95L134.24-4.95Q136.74-4.95 138.59-8L138.59-8 138.59-19.45Q137.74-20.55 136.81-21.1 135.89-21.65 134.69-21.65L134.69-21.65ZM164.94-40.45Q166.99-40.45 168.29-39.18 169.59-37.9 169.59-36L169.59-36Q169.59-34.05 168.29-32.8 166.99-31.55 164.94-31.55L164.94-31.55Q162.89-31.55 161.56-32.83 160.24-34.1 160.24-36L160.24-36Q160.24-37.9 161.56-39.18 162.89-40.45 164.94-40.45L164.94-40.45ZM169.69-26.55L169.69-5.4 176.49-5.4 176.49 0 154.29 0 154.29-5.4 161.79-5.4 161.79-21.15 154.54-21.15 154.54-26.55 169.69-26.55ZM183.49 0L183.49-26.55 190.39-26.55 190.94-23.5Q192.74-25.5 194.71-26.48 196.69-27.45 199.19-27.45L199.19-27.45Q202.64-27.45 204.56-25.35 206.49-23.25 206.49-19.5L206.49-19.5 206.49 0 198.59 0 198.59-17.2Q198.59-19.7 198.04-20.65 197.49-21.6 196.04-21.6L196.04-21.6Q194.84-21.6 193.71-20.83 192.59-20.05 191.39-18.55L191.39-18.55 191.39 0 183.49 0ZM237.08-30.8L238.88-25Q236.28-23.95 231.23-23.95L231.23-23.95Q233.83-22.8 235.11-21.2 236.38-19.6 236.38-17.1L236.38-17.1Q236.38-14.55 234.98-12.53 233.58-10.5 231.03-9.35 228.48-8.2 225.13-8.2L225.13-8.2Q223.48-8.2 222.03-8.5L222.03-8.5Q221.63-8.3 221.41-7.88 221.18-7.45 221.18-7L221.18-7Q221.18-6.25 221.76-5.83 222.33-5.4 224.08-5.4L224.08-5.4 228.48-5.4Q231.48-5.4 233.78-4.4 236.08-3.4 237.33-1.65 238.58 0.1 238.58 2.3L238.58 2.3Q238.58 6.45 234.96 8.78 231.33 11.1 224.38 11.1L224.38 11.1Q219.43 11.1 216.61 10.08 213.78 9.05 212.66 7.2 211.53 5.35 211.53 2.55L211.53 2.55 218.53 2.55Q218.53 3.8 219.01 4.5 219.48 5.2 220.78 5.55 222.08 5.9 224.58 5.9L224.58 5.9Q228.08 5.9 229.41 5.1 230.73 4.3 230.73 2.85L230.73 2.85Q230.73 1.65 229.76 0.93 228.78 0.2 226.88 0.2L226.88 0.2 222.68 0.2Q218.58 0.2 216.53-1.28 214.48-2.75 214.48-5.05L214.48-5.05Q214.48-6.55 215.26-7.88 216.03-9.2 217.43-10.1L217.43-10.1Q214.93-11.45 213.83-13.28 212.73-15.1 212.73-17.7L212.73-17.7Q212.73-20.65 214.23-22.85 215.73-25.05 218.43-26.23 221.13-27.4 224.58-27.4L224.58-27.4Q228.58-27.3 231.38-28.18 234.18-29.05 237.08-30.8L237.08-30.8ZM224.78-22.25Q222.88-22.25 221.81-21.05 220.73-19.85 220.73-17.8L220.73-17.8Q220.73-15.65 221.83-14.45 222.93-13.25 224.78-13.25L224.78-13.25Q226.73-13.25 227.78-14.43 228.83-15.6 228.83-17.9L228.83-17.9Q228.83-22.25 224.78-22.25L224.78-22.25ZM297.38-1.55Q293.63 0.85 288.68 0.85L288.68 0.85Q283.58 0.85 281-1.75 278.43-4.35 278.43-9.05L278.43-9.05 278.43-21.1 272.88-21.1 272.88-26.55 278.43-26.55 278.43-32.3 286.33-33.25 286.33-26.55 294.88-26.55 294.08-21.1 286.33-21.1 286.33-9.05Q286.33-7.1 287.23-6.25 288.13-5.4 290.13-5.4L290.13-5.4Q292.63-5.4 294.78-6.6L294.78-6.6 297.38-1.55ZM311.38-37.9L311.38-23.9Q314.73-27.45 319.18-27.45L319.18-27.45Q322.68-27.45 324.58-25.38 326.48-23.3 326.48-19.5L326.48-19.5 326.48 0 318.58 0 318.58-17.3Q318.58-19.7 318.03-20.65 317.48-21.6 316.03-21.6L316.03-21.6Q314.83-21.6 313.7-20.78 312.58-19.95 311.38-18.35L311.38-18.35 311.38 0 303.48 0 303.48-37.1 311.38-37.9ZM340.32-10.95Q341.07-4.9 346.72-4.9L346.72-4.9Q350.12-4.9 353.52-7.1L353.52-7.1 356.67-2.8Q354.72-1.1 352.02-0.13 349.32 0.85 346.07 0.85L346.07 0.85Q341.62 0.85 338.52-0.93 335.42-2.7 333.85-5.88 332.27-9.05 332.27-13.25L332.27-13.25Q332.27-17.25 333.8-20.48 335.32-23.7 338.25-25.58 341.17-27.45 345.22-27.45L345.22-27.45Q349.02-27.45 351.82-25.83 354.62-24.2 356.15-21.13 357.67-18.05 357.67-13.8L357.67-13.8Q357.67-12.15 357.52-10.95L357.52-10.95 340.32-10.95ZM345.22-22.15Q343.07-22.15 341.77-20.58 340.47-19 340.22-15.75L340.22-15.75 349.97-15.75Q349.87-22.15 345.22-22.15L345.22-22.15ZM403.62-28.8L403.62-19.65 415.72-19.65 415.72-13.75 403.62-13.75 403.62 0 395.37 0 395.37-34.65 418.12-34.65 417.32-28.8 403.62-28.8ZM431.37-26.55L431.37-8.4Q431.37-6.55 432.04-5.78 432.72-5 434.07-5L434.07-5Q435.27-5 436.52-5.78 437.77-6.55 438.57-7.9L438.57-7.9 438.57-26.55 446.47-26.55 446.47 0 439.57 0 439.22-3.1Q437.92-1.2 435.72-0.18 433.52 0.85 431.07 0.85L431.07 0.85Q427.32 0.85 425.39-1.33 423.47-3.5 423.47-7.4L423.47-7.4 423.47-26.55 431.37-26.55ZM477.36-1.55Q473.61 0.85 468.66 0.85L468.66 0.85Q463.56 0.85 460.99-1.75 458.41-4.35 458.41-9.05L458.41-9.05 458.41-21.1 452.86-21.1 452.86-26.55 458.41-26.55 458.41-32.3 466.31-33.25 466.31-26.55 474.86-26.55 474.06-21.1 466.31-21.1 466.31-9.05Q466.31-7.1 467.21-6.25 468.11-5.4 470.11-5.4L470.11-5.4Q472.61-5.4 474.76-6.6L474.76-6.6 477.36-1.55ZM491.36-26.55L491.36-8.4Q491.36-6.55 492.04-5.78 492.71-5 494.06-5L494.06-5Q495.26-5 496.51-5.78 497.76-6.55 498.56-7.9L498.56-7.9 498.56-26.55 506.46-26.55 506.46 0 499.56 0 499.21-3.1Q497.91-1.2 495.71-0.18 493.51 0.85 491.06 0.85L491.06 0.85Q487.31 0.85 485.39-1.33 483.46-3.5 483.46-7.4L483.46-7.4 483.46-26.55 491.36-26.55ZM533.71-27.35Q536.11-27.35 538.11-26.55L538.11-26.55 536.66-15.45 531.66-15.45 531.66-20.35Q529.46-19.95 527.76-17.95 526.06-15.95 525.11-12.9L525.11-12.9 525.11-5.3 530.36-5.3 530.36 0 513.71 0 513.71-5.3 517.21-5.3 517.21-21.3 513.71-21.3 513.71-26.55 523.26-26.55 524.66-20.6Q526.11-24 528.31-25.68 530.51-27.35 533.71-27.35L533.71-27.35ZM550.3-10.95Q551.05-4.9 556.7-4.9L556.7-4.9Q560.1-4.9 563.5-7.1L563.5-7.1 566.65-2.8Q564.7-1.1 562-0.13 559.3 0.85 556.05 0.85L556.05 0.85Q551.6 0.85 548.5-0.93 545.4-2.7 543.83-5.88 542.25-9.05 542.25-13.25L542.25-13.25Q542.25-17.25 543.78-20.48 545.3-23.7 548.23-25.58 551.15-27.45 555.2-27.45L555.2-27.45Q559-27.45 561.8-25.83 564.6-24.2 566.13-21.13 567.65-18.05 567.65-13.8L567.65-13.8Q567.65-12.15 567.5-10.95L567.5-10.95 550.3-10.95ZM555.2-22.15Q553.05-22.15 551.75-20.58 550.45-19 550.2-15.75L550.2-15.75 559.95-15.75Q559.85-22.15 555.2-22.15L555.2-22.15ZM626 0L617.3 0 615-17.85 612.6 0 604.05 0 600.1-26.55 607.35-26.55 609.1-4.95 611.85-23.2 618.55-23.2 621-4.95 622.8-26.55 629.8-26.55 626 0ZM644.9-40.45Q646.95-40.45 648.25-39.18 649.55-37.9 649.55-36L649.55-36Q649.55-34.05 648.25-32.8 646.95-31.55 644.9-31.55L644.9-31.55Q642.85-31.55 641.52-32.83 640.2-34.1 640.2-36L640.2-36Q640.2-37.9 641.52-39.18 642.85-40.45 644.9-40.45L644.9-40.45ZM649.65-26.55L649.65-5.4 656.45-5.4 656.45 0 634.25 0 634.25-5.4 641.75-5.4 641.75-21.15 634.5-21.15 634.5-26.55 649.65-26.55ZM687.34-1.55Q683.59 0.85 678.64 0.85L678.64 0.85Q673.54 0.85 670.97-1.75 668.39-4.35 668.39-9.05L668.39-9.05 668.39-21.1 662.84-21.1 662.84-26.55 668.39-26.55 668.39-32.3 676.29-33.25 676.29-26.55 684.84-26.55 684.04-21.1 676.29-21.1 676.29-9.05Q676.29-7.1 677.19-6.25 678.09-5.4 680.09-5.4L680.09-5.4Q682.59-5.4 684.74-6.6L684.74-6.6 687.34-1.55ZM701.34-37.9L701.34-23.9Q704.69-27.45 709.14-27.45L709.14-27.45Q712.64-27.45 714.54-25.38 716.44-23.3 716.44-19.5L716.44-19.5 716.44 0 708.54 0 708.54-17.3Q708.54-19.7 707.99-20.65 707.44-21.6 705.99-21.6L705.99-21.6Q704.79-21.6 703.67-20.78 702.54-19.95 701.34-18.35L701.34-18.35 701.34 0 693.44 0 693.44-37.1 701.34-37.9ZM768.99-28.35L768.99 0 760.79 0 760.79-28.35 751.04-28.35 751.04-34.65 779.09-34.65 778.29-28.35 768.99-28.35ZM790.28-10.95Q791.03-4.9 796.68-4.9L796.68-4.9Q800.08-4.9 803.48-7.1L803.48-7.1 806.63-2.8Q804.68-1.1 801.98-0.13 799.28 0.85 796.03 0.85L796.03 0.85Q791.58 0.85 788.48-0.93 785.38-2.7 783.81-5.88 782.23-9.05 782.23-13.25L782.23-13.25Q782.23-17.25 783.76-20.48 785.28-23.7 788.21-25.58 791.13-27.45 795.18-27.45L795.18-27.45Q798.98-27.45 801.78-25.83 804.58-24.2 806.11-21.13 807.63-18.05 807.63-13.8L807.63-13.8Q807.63-12.15 807.48-10.95L807.48-10.95 790.28-10.95ZM795.18-22.15Q793.03-22.15 791.73-20.58 790.43-19 790.18-15.75L790.18-15.75 799.93-15.75Q799.83-22.15 795.18-22.15L795.18-22.15ZM827.53-5.4Q829.03-5.4 830.43-5.98 831.83-6.55 833.43-7.65L833.43-7.65 836.93-2.65Q835.03-1.05 832.53-0.1 830.03 0.85 827.08 0.85L827.08 0.85Q822.83 0.85 819.76-0.9 816.68-2.65 815.03-5.8 813.38-8.95 813.38-13.1L813.38-13.1Q813.38-17.25 815.08-20.5 816.78-23.75 819.91-25.6 823.03-27.45 827.23-27.45L827.23-27.45Q830.18-27.45 832.53-26.63 834.88-25.8 836.93-24.1L836.93-24.1 833.53-19.35Q830.63-21.35 827.58-21.35L827.58-21.35Q821.63-21.35 821.63-13.1L821.63-13.1Q821.63-8.95 823.18-7.18 824.73-5.4 827.53-5.4L827.53-5.4ZM851.33-37.9L851.33-23.9Q854.68-27.45 859.13-27.45L859.13-27.45Q862.63-27.45 864.53-25.38 866.43-23.3 866.43-19.5L866.43-19.5 866.43 0 858.53 0 858.53-17.3Q858.53-19.7 857.98-20.65 857.43-21.6 855.98-21.6L855.98-21.6Q854.78-21.6 853.65-20.78 852.53-19.95 851.33-18.35L851.33-18.35 851.33 0 843.43 0 843.43-37.1 851.33-37.9Z" opacity="1" transform="matrix(1,0,0,1,0,0)" fill="#51bfa1" class="undefined-text-1" data-fill-palette-color="secondary" id="text-1"></path></svg></g></svg></g></svg></g></svg></g><g transform="matrix(1,0,0,1,430.3301388321104,0)"><svg viewBox="0 0 81.99600160385948 97.90565646959482" height="97.90565646959482" width="81.99600160385948"><g><svg xmlns="http://www.w3.org/2000/svg" xmlns:xlink="http://www.w3.org/1999/xlink" version="1.1" x="0" y="0" viewBox="6.224973678588867 1.028977394104004 53.55028533935547 63.94062805175781" enable-background="new 0 0 66 66" xml:space="preserve" height="97.90565646959482" width="81.99600160385948" class="icon-icon-0" data-fill-palette-color="accent" id="icon-0"><g fill="#51bfa1" data-fill-palette-color="accent"><path d="M59.773 56.778C59.773 56.778 59.773 56.778 59.773 56.778c-0.128-7.057-5.393-13.625-12.246-15.28-4.075-0.986-6.992-0.859-7.066-5.494 3.053-2.198 4.7-5.61 5.6-9.258 0.93 0.077 1.693-0.168 2.262-0.581 1.02-0.738 1.148-1.98 0.608-2.82 0.361-0.543 0.644-1.075 0.814-1.61 0.722-2.232-0.395-4.424-2.466-4.585 0.098-2.677 0.116-6.758-0.816-9.267-1.676-4.512-5.734-5.008-7.777-3.927-1.355-4.061-8.984-3.355-12.829-1.145-5.565 3.201-6.431 8.415-5.571 14.284 0.107 0.72 0.239 1.441 0.378 2.164-1.049 1.27-0.977 3.847-0.742 5.38 0.328 2.207 1.608 2.869 2.989 2.41 0.927 2.445 2.45 5.931 4.157 7.915 0.484 7.154-2.767 7.311-7.763 8.671C10.077 46.157 3.794 55.669 7.132 61.203c1.271 2.109 3.658 3.24 6.143 3.615 2.534 0.404 39.26-0.102 40.742-0.33 0 0 0 0 0 0C58.155 63.862 59.846 60.902 59.773 56.778zM44.107 41.776c-1.043 2.746-2.542 5.408-5.744 5.644-1.628 0.118-3.297-0.801-3.949-2.105 2.603-1.298 4.798-3.22 6.22-5.453C41.587 40.933 42.809 41.436 44.107 41.776zM33.775 44.507c-0.353-0.17-0.697-0.353-1.033-0.547l0.152-0.152 0.456 0.456c0.097 0.097 0.255 0.098 0.354 0 0.098-0.098 0.098-0.256 0-0.354l-0.456-0.455 0.678-0.678 1.054 1.054c0.008 0.008 0.02 0.005 0.028 0.012C34.608 44.08 34.198 44.303 33.775 44.507zM28.118 36.04c3.419 2.937 8.855 2.002 11.359 0.605 0.012 0.231 0.034 0.465 0.065 0.7-0.09-0.036-0.191-0.036-0.264 0.037l-0.531 0.531-0.023-0.023c-0.097-0.097-0.255-0.098-0.354 0-0.098 0.098-0.098 0.256 0 0.354l0.023 0.023-0.622 0.622c-0.067 0.067-0.071 0.158-0.046 0.243-0.025 0.085-0.021 0.176 0.046 0.243l1.052 1.052c0.034 0.034 0.08 0.041 0.123 0.051-0.639 0.788-1.384 1.52-2.216 2.179-0.059-0.114-0.119-0.16-0.225-0.266l0.777-0.777 0.127 0.127c0.097 0.097 0.255 0.098 0.354 0 0.098-0.098 0.098-0.256 0-0.354l-0.127-0.127 0.529-0.53c0.098-0.098 0.098-0.256 0-0.354-0.098-0.098-0.256-0.098-0.354 0l-0.529 0.53-0.489-0.489c-0.098-0.098-0.256-0.098-0.354 0-0.098 0.098-0.098 0.256 0 0.354l0.489 0.489-0.777 0.777-0.745-0.744 0.4-0.4c0.098-0.098 0.098-0.256 0-0.354-0.098-0.098-0.256-0.098-0.354 0l-1.531 1.531-0.056-0.056c-0.098-0.098-0.256-0.098-0.354 0-0.098 0.098-0.098 0.256 0 0.354l0.056 0.056-0.678 0.678-0.622-0.621c-0.098-0.098-0.256-0.098-0.353 0-0.098 0.098-0.098 0.256 0 0.354l0.622 0.622-0.242 0.242c-1.883-1.165-3.467-2.68-4.551-4.392C28.052 38.26 28.137 37.141 28.118 36.04zM39.211 40.154c-0.012-0.027-0.011-0.058-0.033-0.081l-0.941-0.942 0.511-0.511 0.422 0.422c0.099 0.099 0.257 0.096 0.354 0 0.098-0.098 0.098-0.256 0-0.354l-0.422-0.422 0.504-0.504c0.119 0.609 0.274 0.957 0.482 1.331-0.11 0.034-0.212 0.1-0.279 0.205C39.624 39.59 39.423 39.874 39.211 40.154zM35.39 43.616c-0.025-0.151-0.995-1.076-1.112-1.192l0.777-0.777 1.294 1.294c0.004 0.004 0.011 0.003 0.016 0.007C36.051 43.181 35.725 43.404 35.39 43.616zM39.863 35.192c0.034-0.089 0.033-0.188-0.039-0.26L39.3 34.408l1.243-1.243 0.443 0.443c0.099 0.099 0.257 0.096 0.354 0 0.098-0.098 0.098-0.256 0-0.354l-0.443-0.443 1.243-1.243 0.489 0.489c0.036 0.036 0.083 0.044 0.129 0.053C41.934 33.361 40.957 34.406 39.863 35.192zM47.737 25.356c-0.914 0.66-2.774 0.611-2.671-0.571 0.042-0.486 0.447-1.046 1.33-1.298 0.484-0.128 1.21-0.108 1.579 0.246C48.37 24.122 48.36 24.904 47.737 25.356zM48.794 21.43c0 0-0.001 0.001-0.001 0.002-0.131 0.41-0.328 0.82-0.599 1.246-0.348-0.178-0.823-0.29-1.345-0.268 0.125-0.917 0.324-2.846 0.396-4.269C48.548 18.272 49.338 19.746 48.794 21.43zM26.355 3.679c4.021-2.311 11.351-2.381 11.485 1.143 0.017 0.422 0.52 0.634 0.836 0.351 1.366-1.238 5.27-1.192 6.85 3.06 0.906 2.44 0.857 6.928 0.742 9.395 0 0.002-0.001 0.003-0.001 0.004-0.029 0.731-0.086 1.462-0.148 2.193-0.193-0.526-0.14-1.873-0.114-2.433 0.017-0.319-0.272-0.569-0.578-0.517-4.048 0.652-7.347-3.08-7.189-6.161 0.029-0.553-0.735-0.732-0.956-0.227-0.331 0.749-0.744 1.455-1.215 2.12-0.002-0.003-0.001-0.007-0.004-0.009l-0.46-0.46 0.568-0.568c0.098-0.098 0.098-0.256 0-0.354-0.099-0.098-0.257-0.097-0.354 0l-0.568 0.568-0.139-0.139c-0.098-0.098-0.256-0.098-0.354 0-0.098 0.098-0.098 0.256 0 0.354l0.139 0.139-1.013 1.013-0.314-0.314c-0.098-0.097-0.256-0.099-0.354 0-0.098 0.098-0.098 0.256 0 0.353l0.314 0.314-1.118 1.118-0.768-0.768 0.383-0.384c0.098-0.098 0.098-0.256 0-0.354-0.098-0.098-0.256-0.098-0.354 0l-1.575 1.575-0.243-0.243c-0.098-0.098-0.256-0.098-0.354 0-0.098 0.098-0.098 0.256 0 0.353l0.243 0.243-1.223 1.223-0.699-0.699c-0.098-0.098-0.256-0.098-0.354 0-0.098 0.098-0.098 0.256 0 0.354l0.699 0.699-0.279 0.279c-0.098 0.098-0.098 0.256 0 0.353 0.097 0.097 0.255 0.098 0.353 0l0.279-0.279 0.391 0.391c-0.647 0.127-1.319 0.208-2.009 0.236 0.01-0.075-0.002-0.151-0.06-0.208l-0.666-0.666 2.697-2.697c0.098-0.098 0.098-0.256 0-0.354-0.098-0.098-0.256-0.098-0.354 0l-2.697 2.696-0.173-0.174c-0.098-0.097-0.256-0.098-0.354 0-0.098 0.098-0.098 0.256 0 0.354l0.173 0.173-0.792 0.792c-0.308-0.035-0.616-0.073-0.924-0.128-0.417-0.071-0.727 0.373-0.521 0.739 0.599 1.059 0.858 2.307 0.731 3.514-0.042 0.4-0.12 0.692-0.245 0.917-0.31 0.552-0.846 0.578-0.998 0.298-0.05-0.093-0.13-0.156-0.218-0.2-0.311-1.107-0.587-2.229-0.818-3.363 0-0.001-0.001-0.001-0.001-0.001-0.153-0.782-0.295-1.564-0.409-2.345C20.467 11.455 21.183 6.654 26.355 3.679zM29.46 17.242c-0.068-0.12-0.483-0.519-0.584-0.619l1.223-1.223 1.208 1.208C30.73 16.87 30.111 17.082 29.46 17.242zM31.788 16.381l-1.335-1.335 0.838-0.838 0.768 0.768-0.524 0.524c-0.098 0.098-0.098 0.256 0 0.353 0.097 0.097 0.255 0.098 0.354 0l0.524-0.524 0.314 0.314c0.047 0.047 0.107 0.068 0.168 0.07C32.511 15.972 32.196 16.167 31.788 16.381zM33.079 15.29l-0.314-0.314 1.118-1.118 0.59 0.59c-0.425 0.402-0.88 0.77-1.358 1.108C33.153 15.466 33.153 15.364 33.079 15.29zM34.828 14.096l-0.591-0.591 1.013-1.013 0.46 0.46c0.023 0.023 0.056 0.023 0.084 0.035C35.495 13.376 35.171 13.745 34.828 14.096zM26.352 17.609c-0.338 0.001-0.677-0.011-1.02-0.035l0.493-0.493L26.352 17.609zM20.911 24.491c-0.232-1.507-0.114-3.093 0.069-3.733 0.417 1.794 1.065 3.937 1.577 5.366C21.496 26.438 21.072 25.575 20.911 24.491zM22.91 24.012c0.734 0.083 1.342-0.353 1.684-0.963 0.254-0.457 0.33-0.961 0.365-1.3 0.115-1.092-0.041-2.212-0.44-3.236 5.7 0.663 10.28-1.787 12.904-6.136 0.75 2.882 3.702 5.836 7.562 5.554-0.014 0.528-0.009 1.089 0.052 1.61 0.082 0.702 0.291 1.221 0.964 1.464-0.059 0.542-0.121 1.084-0.198 1.621-1.05 0.396-1.662 1.243-1.733 2.073-0.048 0.544 0.141 1.101 0.53 1.473-2.088 3.767-6.575 5.33-10.483 3.827-0.019-0.96-0.77-1.768-1.568-1.995-1.515-0.428-2.959 1.058-2.236 2.526 0 0 0 0 0 0 0.569 1.15 2.185 1.513 3.182 0.759 0.13-0.099 0.24-0.212 0.331-0.334 3.846 1.444 8.289 0.283 10.91-3.153-0.52 1.703-1.072 2.862-1.736 3.944-0.009-0.013-0.006-0.031-0.018-0.043l-0.489-0.489 1.253-1.254c0.098-0.098 0.098-0.256 0-0.354-0.098-0.098-0.256-0.098-0.354 0l-1.254 1.254-0.089-0.089c-0.098-0.098-0.256-0.098-0.354 0-0.098 0.098-0.098 0.256 0 0.354l0.089 0.089-1.243 1.243-0.156-0.156c-0.097-0.097-0.255-0.099-0.353 0-0.098 0.098-0.098 0.256 0 0.354l0.156 0.156-1.243 1.243-0.246-0.246 0.266-0.266c0.098-0.098 0.098-0.256 0-0.354-0.098-0.098-0.256-0.098-0.354 0l-0.266 0.266-0.089-0.089c-0.098-0.098-0.256-0.098-0.354 0-0.098 0.098-0.098 0.256 0 0.354l0.089 0.089-1.11 1.11-1.029-1.029c-0.008-0.011-0.005-0.026-0.015-0.036s-0.025-0.007-0.036-0.015l-0.207-0.207c-0.098-0.098-0.256-0.098-0.354 0-0.098 0.098-0.098 0.256 0 0.354l0.056 0.056-1.243 1.243-0.588-0.588c-0.099-0.099-0.257-0.097-0.354 0-0.098 0.098-0.098 0.256 0 0.354l0.589 0.588-0.721 0.721c-0.098 0.098-0.098 0.256 0 0.354 0.097 0.097 0.255 0.098 0.354 0l0.721-0.722 0.622 0.622c0.096 0.096 0.255 0.099 0.354 0 0.098-0.098 0.098-0.256 0-0.354l-0.622-0.622 1.243-1.243 0.877 0.877-0.422 0.422c-0.098 0.098-0.098 0.256 0 0.354 0.097 0.097 0.255 0.098 0.354 0l0.422-0.422 0.604 0.604c0.097 0.097 0.255 0.098 0.354 0 0.098-0.098 0.098-0.256 0-0.354l-0.604-0.604 1.11-1.11 0.291 0.292c-0.006 0.071 0.01 0.143 0.065 0.197 0.049 0.049 0.112 0.073 0.177 0.073 0.007 0 0.013-0.008 0.02-0.008l0.57 0.57c0.049 0.049 0.112 0.073 0.177 0.073 0.003 0 0.005-0.003 0.009-0.004-0.174 0.119-0.359 0.239-0.543 0.346-2.454 1.433-6.328 1.56-8.303 0.81l0.487-0.487 0.498 0.498c0.096 0.096 0.255 0.099 0.354 0 0.098-0.098 0.098-0.256 0-0.354l-0.498-0.498 1.371-1.371c0.098-0.098 0.098-0.256 0-0.354-0.098-0.098-0.256-0.098-0.354 0l-1.371 1.371-0.09-0.089c-0.099-0.099-0.257-0.097-0.354 0-0.098 0.098-0.098 0.256 0 0.354l0.089 0.089-0.617 0.617c-0.965-0.466-1.816-1.155-2.384-1.834l0 0c-0.003-0.004-0.006-0.006-0.008-0.01C25.829 32.081 23.861 27.042 22.91 24.012zM33.118 29.897c0.047 0.25-0.027 0.444-0.228 0.595-0.496 0.377-1.389 0.185-1.682-0.405-0.337-0.684 0.384-1.314 1.066-1.121C32.665 29.077 33.043 29.494 33.118 29.897zM27.307 40.43c1.419 1.989 3.45 3.699 5.828 4.884-0.652 1.305-2.327 2.221-3.949 2.105-2.335-0.172-4.032-1.799-5.103-4.1C25.53 42.705 26.598 41.841 27.307 40.43zM13.707 63.864c-0.794-2.204-0.857-5.139-0.808-7.744 0.067-4.137 1.659-4.911 5.293-4.957l28.8-0.415c3.112-0.036 5.651 0.191 6.635 3.152l-0.762 0.762c-0.094-0.047-0.205-0.049-0.283 0.029s-0.076 0.19-0.029 0.283l-0.056 0.056c-0.098 0.098-0.098 0.256 0 0.354 0.097 0.097 0.255 0.098 0.354 0l0.035-0.035 0.686 0.685-0.643 0.643-0.374-0.374c-0.098-0.098-0.256-0.098-0.354 0-0.098 0.098-0.098 0.256 0 0.354l0.374 0.374-0.587 0.587c-0.098 0.098-0.098 0.256 0 0.354 0.097 0.097 0.255 0.098 0.354 0l0.587-0.587 0.831 0.831c0.097 0.097 0.255 0.098 0.354 0 0.034-0.034 0.04-0.079 0.051-0.122 0.066 1.584 0.079 3.012-0.284 4.482-0.01-0.044-0.017-0.09-0.051-0.124l-0.546-0.546 0.499-0.499c0.098-0.098 0.098-0.256 0-0.354-0.098-0.098-0.256-0.098-0.354 0l-0.499 0.499-0.961-0.96 1.003-1.003 0.761 0.761c0.234 0.234 0.586-0.121 0.354-0.354l-0.92-0.92c-0.006-0.007-0.004-0.018-0.01-0.025-0.007-0.007-0.018-0.005-0.025-0.011l-0.957-0.957c-0.098-0.098-0.256-0.098-0.354 0-0.098 0.098-0.098 0.256 0 0.354l0.798 0.798-1.003 1.003-0.629-0.629c-0.098-0.098-0.256-0.098-0.354 0-0.098 0.098-0.098 0.256 0 0.354l0.629 0.629-1.173 1.173-1.046-1.046 0.875-0.875c0.098-0.098 0.098-0.256 0-0.354-0.098-0.098-0.256-0.098-0.354 0l-0.875 0.875-0.077-0.078c-0.098-0.098-0.256-0.098-0.354 0-0.098 0.098-0.098 0.256 0 0.354l0.078 0.077-1.257 1.257-1.003-1.003 0.392-0.392c0.098-0.098 0.098-0.256 0-0.353-0.098-0.098-0.256-0.098-0.354 0l-1.854 1.854-0.6-0.6 0.076-0.076c0.098-0.098 0.098-0.256 0-0.354-0.098-0.098-0.256-0.098-0.354 0l-0.114 0.114c-0.08-0.016-0.162-0.008-0.223 0.054-0.062 0.062-0.07 0.144-0.054 0.223l-1.042 1.041-0.798-0.798c-0.098-0.098-0.256-0.098-0.354 0-0.098 0.098-0.098 0.256 0 0.354l0.798 0.798-0.756 0.756c-0.051 0.051-0.072 0.117-0.07 0.184l-2.186 0.024 0.843-0.844 0.588 0.588c0.097 0.097 0.255 0.098 0.354 0 0.098-0.098 0.098-0.256 0-0.354l-0.588-0.588 1.13-1.13c0.098-0.098 0.098-0.256 0-0.353-0.098-0.098-0.256-0.098-0.354 0l-1.13 1.13-0.268-0.268c-0.098-0.098-0.256-0.098-0.354 0-0.098 0.098-0.098 0.256 0 0.354l0.268 0.268-0.579 0.579-0.664-0.664 0.731-0.731c0.098-0.098 0.098-0.256 0-0.353-0.098-0.097-0.256-0.099-0.354 0l-0.76 0.76c-0.088-0.031-0.183-0.029-0.253 0.042-0.07 0.07-0.072 0.166-0.042 0.253l-0.587 0.587-0.544-0.544c-0.098-0.097-0.256-0.099-0.354 0-0.098 0.098-0.098 0.256 0 0.354l0.544 0.544c-0.133 0.133-0.284 0.235-0.271 0.4C15.546 64.059 15.632 64.127 13.707 63.864zM51.967 63.643l-0.226-0.226c0.016-0.01 0.036-0.007 0.05-0.021l1.138-1.138 0.546 0.546c0.094 0.094 0.249 0.101 0.351 0.001-0.069 0.249-0.147 0.49-0.236 0.721C53.111 63.587 52.524 63.628 51.967 63.643zM51.417 63.093l-0.975-0.975 1.173-1.173 0.961 0.961-1.138 1.138C51.424 63.057 51.427 63.077 51.417 63.093zM54.136 57.422c0.009 0.191 0.015 0.366 0.023 0.549-0.043-0.143-0.771-0.836-0.876-0.941l0.778-0.778C54.093 56.64 54.118 57.032 54.136 57.422zM53.963 55.718l-0.723-0.722 0.549-0.549c0.098 0.403 0.165 0.825 0.215 1.254C53.989 55.701 53.977 55.715 53.963 55.718zM48.332 63.694l-2.29 0.025 1.036-1.036 0.812 0.812c0.097 0.097 0.255 0.098 0.354 0 0.098-0.098 0.098-0.256 0-0.354l-0.812-0.812 1.257-1.257 1.045 1.045-1.35 1.349C48.322 63.529 48.315 63.613 48.332 63.694zM42.721 63.257l-0.419-0.419 1.003-1.003 0.6 0.6-1.074 1.074c-0.068 0.068-0.071 0.16-0.045 0.246l-1.418 0.016 0.579-0.579 0.419 0.419c0.097 0.097 0.255 0.098 0.354 0C42.819 63.513 42.819 63.355 42.721 63.257zM44.259 62.789l0.756 0.756c0.099 0.099 0.257 0.096 0.354 0 0.098-0.098 0.098-0.256 0-0.354l-0.756-0.756 1.109-1.109 1.003 1.003-1.095 1.095c-0.083 0.083-0.08 0.203-0.022 0.299l-2.309 0.026L44.259 62.789zM36.996 63.51l-0.078-0.078 0.558-0.558 0.693 0.694c-0.028 0.083-0.025 0.17 0.036 0.239l-1.191 0.013C37.079 63.723 37.082 63.596 36.996 63.51zM36.603 63.824l-0.078 0.001 0.04-0.04L36.603 63.824zM48.871 63.688l1.217-1.217 1.188 1.188C51.276 63.659 51.36 63.66 48.871 63.688zM54.708 63.331c0.599-1.944 0.527-3.918 0.426-5.957-0.267-6.032-2.266-7.699-8.154-7.626l-28.8 0.415c-4.08 0.051-6.2 1.146-6.28 5.94-0.049 2.617 0.012 5.316 0.691 7.56-1.887-0.433-3.633-1.366-4.603-2.976-2.922-4.845 2.884-13.711 11.581-16.086 1.144-0.313 2.387-0.543 3.576-0.927 1.454 3.161 3.688 4.576 5.968 4.743 1.88 0.138 3.724-0.817 4.661-2.244 0.938 1.427 2.782 2.382 4.661 2.244 3.632-0.266 5.414-3.129 6.652-6.405 1.286 0.265 1.667 0.328 2.204 0.458 6.426 1.551 11.362 7.71 11.481 14.326C58.827 59.934 57.777 62.551 54.708 63.331z" fill="#51bfa1" data-fill-palette-color="accent"></path><path d="M33.233 56.71c-1.043-0.267-2.081 0.041-2.848 0.851-1.199 1.268-0.828 2.742 0.071 3.642 1.014 1.012 2.802 1.414 4.125 0.161C36.433 59.608 35.229 57.224 33.233 56.71zM32.304 57.674l-0.036-0.036c0.027-0.004 0.053-0.005 0.08-0.007L32.304 57.674zM30.807 58.68l0.632 0.632-0.652 0.652C30.603 59.583 30.568 59.135 30.807 58.68zM33.894 60.638c-0.861 0.816-2.05 0.536-2.73-0.143-0.035-0.035-0.065-0.074-0.097-0.111 0.004-0.004 0.01-0.002 0.014-0.006l0.76-0.76c0.005 0 0.009 0.006 0.015 0.006 0.134 0 0.254-0.103 0.244-0.265l0.133-0.133c0.098-0.098 0.098-0.256 0-0.354-0.098-0.098-0.256-0.098-0.354 0l-0.085 0.086-0.694-0.694c0.005-0.005 0.008-0.011 0.013-0.016 0.202-0.214 0.409-0.349 0.614-0.446l0.225 0.225-0.296 0.296c-0.098 0.098-0.098 0.256 0 0.354 0.099 0.099 0.257 0.096 0.353 0l0.296-0.296 0.255 0.255c0.099 0.099 0.257 0.096 0.354 0 0.098-0.098 0.098-0.256 0-0.354l-0.255-0.255L33 57.685C34.191 58.003 35.18 59.418 33.894 60.638z" fill="#51bfa1" data-fill-palette-color="accent"></path><path d="M22.245 54.261l-1.53 1.529-1.034-1.034 1.077-1.077c0.098-0.098 0.098-0.256 0-0.354-0.098-0.098-0.256-0.098-0.354 0l-1.077 1.077-0.549-0.549c-0.098-0.098-0.256-0.098-0.354 0-0.098 0.098-0.098 0.256 0 0.354l0.549 0.549-0.735 0.735-0.906-0.906 0.594-0.594c0.098-0.098 0.098-0.256 0-0.354-0.098-0.098-0.256-0.098-0.354 0l-0.594 0.594-0.293-0.293c-0.098-0.098-0.256-0.098-0.354 0-0.098 0.098-0.098 0.256 0 0.354l0.293 0.293-0.592 0.591c-0.098 0.098-0.098 0.256 0 0.354 0.097 0.097 0.255 0.098 0.354 0l0.592-0.592 0.906 0.906-1.211 1.21c-0.098 0.098-0.098 0.256 0 0.354 0.097 0.097 0.255 0.098 0.354 0l1.211-1.211 0.865 0.865c0.097 0.097 0.255 0.098 0.354 0 0.098-0.098 0.098-0.256 0-0.354l-0.865-0.865 0.735-0.735 1.034 1.034-0.399 0.399c-0.098 0.098-0.098 0.256 0 0.354 0.097 0.097 0.255 0.098 0.354 0l0.399-0.399 0.398 0.398c0.097 0.097 0.255 0.098 0.354 0 0.098-0.098 0.098-0.256 0-0.354l-0.398-0.398 1.53-1.529c0.098-0.098 0.098-0.256 0-0.354C22.501 54.164 22.343 54.164 22.245 54.261z" fill="#51bfa1" data-fill-palette-color="accent"></path></g></svg></g></svg></g></svg></g></svg><rect width="395.52" height="75.58397315800012" fill="none" stroke="none" visibility="hidden"></rect></g></svg></g></svg>