<?xml version="1.0" encoding="UTF-8"?><svg id="icon-0" xmlns="http://www.w3.org/2000/svg" viewBox="0 0 792.81 151.51"><defs><style>.cls-1{fill:#61777f;}.cls-2{fill:#51bfa1;}</style></defs><g id="tight-bounds"><g><path id="o-0" class="cls-1" d="M638.99,2.3h0c2.39,0,4.32,3.55,4.32,7.93V141.28c0,4.38-1.93,7.93-4.32,7.93h0c-2.39,0-4.32-3.55-4.32-7.93V10.23c0-4.38,1.93-7.93,4.32-7.93Z"/><g><g id="text-0"><path class="cls-1" d="M39.67,95.43h-13.43V17.61H0V6.72H65.77v10.9h-26.11V95.43Zm67.55,1.52h0c-6.17,0-11.64-1.38-16.42-4.13-4.77-2.74-8.5-6.56-11.2-11.46-2.7-4.9-4.06-10.6-4.06-17.11h0c0-6.59,1.33-12.38,3.98-17.36,2.67-4.98,6.39-8.87,11.15-11.66,4.78-2.79,10.34-4.18,16.68-4.18h0c6.17,0,11.53,1.37,16.09,4.11,4.56,2.75,8.11,6.41,10.65,10.97,2.53,4.56,3.8,9.59,3.8,15.08h0c0,.84-.03,1.75-.08,2.71-.03,.98-.09,2.06-.18,3.24h-48.92c.42,6.08,2.42,10.7,6.01,13.86,3.6,3.18,7.76,4.77,12.5,4.77h0c3.8,0,6.99-.87,9.56-2.61,2.59-1.72,4.51-4.06,5.78-7.02h13.43c-1.69,5.91-5.05,10.86-10.09,14.83-5.02,3.97-11.25,5.96-18.68,5.96Zm0-54.87h0c-4.48,0-8.45,1.33-11.91,3.98-3.46,2.67-5.58,6.67-6.34,11.99h35.48c-.25-4.9-1.99-8.79-5.2-11.66-3.21-2.87-7.22-4.31-12.04-4.31Zm74.39,54.87h0c-6.17,0-11.68-1.39-16.55-4.18-4.85-2.79-8.65-6.66-11.41-11.61-2.74-4.93-4.11-10.65-4.11-17.16h0c0-6.51,1.37-12.23,4.11-17.18,2.75-4.93,6.56-8.8,11.41-11.58,4.87-2.79,10.38-4.18,16.55-4.18h0c7.77,0,14.3,2.03,19.57,6.08,5.29,4.06,8.69,9.55,10.21,16.47h-14.07c-.84-3.46-2.7-6.17-5.58-8.11-2.87-1.94-6.25-2.91-10.14-2.91h0c-3.29,0-6.34,.82-9.12,2.46-2.79,1.66-5.03,4.06-6.72,7.22-1.69,3.18-2.53,7.09-2.53,11.74h0c0,4.65,.84,8.55,2.53,11.71,1.69,3.18,3.93,5.61,6.72,7.3,2.79,1.69,5.83,2.53,9.12,2.53h0c3.89,0,7.27-.97,10.14-2.91,2.87-1.94,4.73-4.69,5.58-8.24h14.07c-1.44,6.76-4.82,12.21-10.14,16.35-5.32,4.14-11.87,6.21-19.64,6.21Zm57.76-1.52h-13.43V4.18h13.43V42.71c2.11-3.63,5.05-6.49,8.82-8.57,3.75-2.06,7.91-3.09,12.47-3.09h0c7.52,0,13.43,2.37,17.74,7.1,4.31,4.73,6.46,11.79,6.46,21.16h0v36.12h-13.31V60.7c0-12.17-4.86-18.25-14.57-18.25h0c-5.07,0-9.27,1.77-12.6,5.32-3.35,3.55-5.02,8.62-5.02,15.21h0v32.44Zm96.06,0h-13.43V17.61h-26.23V6.72h65.77v10.9h-26.11V95.43Zm61.34,1.52h0c-7.6,0-13.59-2.37-17.94-7.1-4.34-4.73-6.51-11.79-6.51-21.16h0V32.57h13.43v34.72c0,12.17,4.98,18.25,14.95,18.25h0c4.98,0,9.08-1.77,12.29-5.32,3.21-3.55,4.82-8.62,4.82-15.21h0V32.57h13.43v62.86h-11.91l-1.01-11.03c-1.94,3.89-4.8,6.94-8.57,9.18-3.75,2.25-8.08,3.37-12.98,3.37Zm88.31-1.52h-10.37c-6.18,0-11.09-1.5-14.73-4.51-3.62-2.99-5.42-8.33-5.42-16.02h0v-31.05h-10.77v-11.28h10.77l1.62-15.97h11.79v15.97h17.74v11.28h-17.74v31.05c0,3.46,.74,5.85,2.23,7.15,1.47,1.32,4.03,1.98,7.68,1.98h7.2v11.41Zm43.85,1.52h0c-6,0-11.38-1.38-16.15-4.13-4.78-2.74-8.57-6.58-11.36-11.53-2.79-4.93-4.18-10.7-4.18-17.29h0c0-6.59,1.42-12.36,4.26-17.31,2.82-4.93,6.64-8.78,11.46-11.53,4.82-2.74,10.18-4.11,16.09-4.11h0c6,0,11.39,1.37,16.17,4.11,4.77,2.75,8.57,6.6,11.41,11.53,2.82,4.95,4.23,10.72,4.23,17.31h0c0,6.59-1.41,12.35-4.23,17.29-2.84,4.95-6.67,8.8-11.48,11.53-4.82,2.75-10.22,4.13-16.22,4.13Zm0-11.53h0c3.21,0,6.19-.8,8.95-2.41,2.74-1.61,4.95-4,6.64-7.17,1.69-3.16,2.53-7.11,2.53-11.84h0c0-4.73-.82-8.68-2.46-11.84-1.66-3.18-3.85-5.57-6.59-7.17-2.75-1.61-5.74-2.41-8.95-2.41h0c-3.21,0-6.18,.8-8.92,2.41-2.75,1.61-4.98,4-6.67,7.17-1.69,3.16-2.53,7.11-2.53,11.84h0c0,4.73,.84,8.68,2.53,11.84,1.69,3.18,3.89,5.57,6.59,7.17,2.7,1.61,5.66,2.41,8.87,2.41Zm59.94,10.01h-13.43V32.57h12.04l1.14,11.91c2.2-4.14,5.26-7.42,9.18-9.83,3.94-2.4,8.69-3.6,14.27-3.6h0v14.07h-3.68c-3.72,0-7.04,.61-9.96,1.82-2.91,1.23-5.23,3.3-6.97,6.21-1.72,2.92-2.59,6.96-2.59,12.12h0v30.16Z"/></g><path id="text-1" class="cls-2" d="M160.78,137.39c0,1.99-.7,3.4-2.11,4.23-1.41,.83-3.27,1.24-5.56,1.24h-6.19v-18.66h5.92c2.14,0,3.86,.37,5.17,1.11,1.31,.75,1.97,1.96,1.97,3.65h0c0,1.06-.32,1.93-.97,2.61-.65,.68-1.46,1.15-2.45,1.4h0c1.18,.2,2.19,.64,3.01,1.33,.82,.69,1.22,1.72,1.22,3.09h0Zm-5.25-7.97c0-.74-.23-1.27-.68-1.6-.46-.33-1.18-.5-2.17-.5h-1.35v4.34h1.51c.93,0,1.62-.18,2.05-.53,.43-.35,.65-.92,.65-1.71h0Zm.7,7.78c0-.93-.26-1.6-.79-1.99-.53-.39-1.3-.59-2.31-.59h-1.8v5.01h1.62c1.02,0,1.83-.17,2.41-.51,.58-.34,.87-.98,.87-1.91h0Zm11.47-8.64v9.78c0,.66,.12,1.13,.36,1.41,.24,.28,.61,.42,1.09,.42h0c.43,0,.87-.14,1.32-.42,.45-.28,.82-.66,1.1-1.14h0v-10.04h4.25v14.3h-3.72l-.19-1.67c-.47,.68-1.1,1.21-1.88,1.57-.79,.37-1.62,.55-2.5,.55h0c-1.35,0-2.37-.39-3.06-1.17-.69-.78-1.03-1.87-1.03-3.27h0v-10.31h4.25Zm18.07-7.49c.74,0,1.34,.23,1.8,.68,.46,.46,.69,1.03,.69,1.71h0c0,.7-.23,1.27-.69,1.72-.47,.45-1.07,.67-1.8,.67h0c-.74,0-1.34-.23-1.82-.69-.47-.46-.71-1.03-.71-1.71h0c0-.68,.24-1.25,.71-1.71,.48-.46,1.08-.68,1.82-.68h0Zm2.56,7.49v11.39h3.66v2.91h-11.96v-2.91h4.04v-8.48h-3.9v-2.91h8.16Zm14.89-5.68v15.48c0,1.06,.61,1.59,1.83,1.59h0c.66,0,1.35-.14,2.05-.43h0l1,2.85c-1.15,.63-2.52,.94-4.12,.94h0c-1.67,0-2.92-.48-3.75-1.44-.84-.96-1.25-2.31-1.25-4.05h0v-12.04h-4.2v-2.91h8.46Zm16.83-.46l4.25,.46v19.98h-3.77l-.22-1.56c-.43,.61-.98,1.1-1.64,1.46-.66,.37-1.44,.55-2.32,.55h0c-1.72,0-3.03-.68-3.92-2.05-.89-1.36-1.34-3.23-1.34-5.6h0c0-1.47,.23-2.78,.7-3.93,.47-1.15,1.13-2.05,1.99-2.69,.86-.65,1.87-.97,3.02-.97h0c1.29,0,2.37,.45,3.23,1.35h0v-7Zm-2.1,8.78c-.77,0-1.37,.36-1.8,1.09-.43,.73-.65,1.87-.65,3.41h0c0,1.65,.19,2.81,.58,3.48,.38,.68,.93,1.01,1.63,1.01h0c.9,0,1.68-.55,2.34-1.64h0v-6.17c-.31-.39-.62-.69-.96-.89-.33-.2-.71-.3-1.14-.3h0Zm16.29-10.13c.74,0,1.34,.23,1.8,.68,.47,.46,.7,1.03,.7,1.71h0c0,.7-.23,1.27-.7,1.72-.47,.45-1.07,.67-1.8,.67h0c-.74,0-1.34-.23-1.82-.69-.47-.46-.71-1.03-.71-1.71h0c0-.68,.24-1.25,.71-1.71,.48-.46,1.08-.68,1.82-.68h0Zm2.56,7.49v11.39h3.66v2.91h-11.96v-2.91h4.04v-8.48h-3.9v-2.91h8.16Zm7.43,14.3v-14.3h3.72l.3,1.64c.65-.72,1.32-1.25,2.03-1.6,.71-.35,1.52-.52,2.41-.52h0c1.24,0,2.2,.38,2.89,1.13,.69,.75,1.04,1.8,1.04,3.15h0v10.5h-4.25v-9.26c0-.9-.1-1.52-.3-1.86-.2-.34-.56-.51-1.08-.51h0c-.43,0-.85,.14-1.25,.41-.4,.28-.82,.69-1.25,1.23h0v9.99h-4.25Zm28.86-16.59l.97,3.12c-.93,.38-2.31,.57-4.12,.57h0c.93,.41,1.63,.91,2.09,1.48,.46,.57,.68,1.31,.68,2.21h0c0,.92-.25,1.74-.75,2.46-.5,.73-1.21,1.3-2.13,1.71-.92,.41-1.97,.62-3.18,.62h0c-.59,0-1.15-.05-1.67-.16h0c-.14,.07-.25,.18-.33,.33-.08,.15-.12,.31-.12,.47h0c0,.27,.1,.48,.31,.63,.2,.15,.62,.23,1.25,.23h2.37c1.08,0,2.03,.18,2.85,.54,.83,.36,1.46,.85,1.91,1.48,.45,.63,.67,1.34,.67,2.13h0c0,1.49-.65,2.65-1.95,3.49-1.3,.83-3.2,1.25-5.7,1.25h0c-1.78,0-3.17-.18-4.18-.55-1.02-.37-1.73-.89-2.13-1.55-.41-.66-.61-1.5-.61-2.5h3.77c0,.45,.09,.8,.26,1.05,.17,.25,.49,.44,.95,.57,.47,.13,1.15,.19,2.05,.19h0c1.26,0,2.12-.14,2.6-.43,.47-.29,.71-.69,.71-1.21h0c0-.43-.17-.78-.52-1.03-.35-.26-.87-.39-1.55-.39h-2.26c-1.47,0-2.58-.27-3.31-.8-.74-.53-1.1-1.2-1.1-2.03h0c0-.54,.14-1.05,.42-1.52,.28-.47,.67-.87,1.17-1.2h0c-.9-.48-1.54-1.06-1.94-1.71-.39-.65-.59-1.45-.59-2.38h0c0-1.06,.27-1.98,.81-2.77,.54-.79,1.29-1.4,2.26-1.82,.97-.42,2.07-.63,3.31-.63h0c1.44,.04,2.66-.1,3.66-.42,1.01-.31,2.03-.78,3.07-1.41h0Zm-6.62,4.6c-.68,0-1.22,.22-1.6,.65-.39,.43-.58,1.01-.58,1.75h0c0,.77,.2,1.37,.59,1.8,.39,.43,.92,.65,1.59,.65h0c.7,0,1.24-.21,1.62-.64,.38-.42,.57-1.04,.57-1.87h0c0-1.56-.73-2.34-2.18-2.34h0Zm39.1,11.15c-1.35,.86-2.91,1.29-4.69,1.29h0c-1.83,0-3.21-.47-4.14-1.4-.92-.93-1.38-2.24-1.38-3.93h0v-6.49h-2.99v-2.94h2.99v-3.1l4.25-.51v3.61h4.6l-.43,2.94h-4.17v6.49c0,.7,.16,1.2,.48,1.51,.32,.31,.84,.46,1.56,.46h0c.9,0,1.73-.22,2.5-.65h0l1.4,2.72Zm7.54-19.58v7.54c1.2-1.27,2.6-1.91,4.2-1.91h0c1.26,0,2.23,.37,2.91,1.11,.68,.75,1.02,1.8,1.02,3.17h0v10.5h-4.25v-9.32c0-.86-.1-1.46-.3-1.8-.2-.34-.56-.51-1.08-.51h0c-.43,0-.85,.15-1.25,.44-.4,.3-.82,.73-1.25,1.31h0v9.88h-4.25v-19.98l4.25-.43Zm15.59,14.51c.27,2.17,1.42,3.26,3.45,3.26h0c1.22,0,2.44-.39,3.66-1.18h0l1.7,2.32c-.7,.61-1.53,1.09-2.5,1.44-.97,.35-2.04,.53-3.2,.53h0c-1.6,0-2.95-.32-4.07-.96-1.11-.64-1.95-1.52-2.52-2.67-.57-1.14-.85-2.46-.85-3.97h0c0-1.44,.27-2.73,.82-3.89,.55-1.16,1.34-2.07,2.4-2.75,1.05-.67,2.3-1.01,3.75-1.01h0c1.36,0,2.55,.29,3.55,.87,1.01,.59,1.78,1.43,2.33,2.53,.55,1.11,.82,2.42,.82,3.95h0c0,.59-.03,1.1-.08,1.53h-9.26Zm2.64-6.03c-.77,0-1.39,.28-1.86,.85-.47,.57-.75,1.43-.83,2.6h5.25c-.04-2.3-.89-3.45-2.56-3.45h0Zm31.45-3.58v4.93h6.52v3.18h-6.52v7.41h-4.44v-18.66h12.25l-.43,3.15h-7.38Zm14.95,1.21v9.78c0,.66,.12,1.13,.36,1.41,.24,.28,.61,.42,1.09,.42h0c.43,0,.87-.14,1.32-.42,.45-.28,.82-.66,1.1-1.14h0v-10.04h4.25v14.3h-3.72l-.19-1.67c-.47,.68-1.1,1.21-1.88,1.57-.79,.37-1.62,.55-2.5,.55h0c-1.35,0-2.37-.39-3.06-1.17-.69-.78-1.03-1.87-1.03-3.27h0v-10.31h4.25Zm24.77,13.46c-1.35,.86-2.91,1.29-4.69,1.29h0c-1.83,0-3.21-.47-4.13-1.4-.93-.93-1.39-2.24-1.39-3.93h0v-6.49h-2.99v-2.94h2.99v-3.1l4.25-.51v3.61h4.6l-.43,2.94h-4.17v6.49c0,.7,.16,1.2,.48,1.51,.32,.31,.84,.46,1.56,.46h0c.9,0,1.73-.22,2.5-.65h0l1.4,2.72Zm7.54-13.46v9.78c0,.66,.12,1.13,.37,1.41,.24,.28,.6,.42,1.09,.42h0c.43,0,.87-.14,1.32-.42,.45-.28,.82-.66,1.1-1.14h0v-10.04h4.25v14.3h-3.72l-.19-1.67c-.47,.68-1.1,1.21-1.88,1.57-.79,.37-1.62,.55-2.5,.55h0c-1.35,0-2.36-.39-3.05-1.17-.69-.78-1.04-1.87-1.04-3.27h0v-10.31h4.25Zm22.81-.43c.86,0,1.65,.14,2.37,.43h0l-.78,5.98h-2.69v-2.64c-.79,.14-1.49,.57-2.1,1.29s-1.09,1.62-1.43,2.72h0v4.09h2.83v2.85h-8.97v-2.85h1.88v-8.62h-1.88v-2.83h5.14l.75,3.2c.52-1.22,1.18-2.13,1.97-2.74,.79-.6,1.76-.9,2.91-.9h0Zm8.93,8.83c.27,2.17,1.42,3.26,3.45,3.26h0c1.22,0,2.44-.39,3.66-1.18h0l1.7,2.32c-.7,.61-1.53,1.09-2.5,1.44-.97,.35-2.04,.53-3.2,.53h0c-1.6,0-2.95-.32-4.07-.96-1.11-.64-1.95-1.52-2.52-2.67-.57-1.14-.85-2.46-.85-3.97h0c0-1.44,.27-2.73,.82-3.89,.55-1.16,1.34-2.07,2.4-2.75,1.05-.67,2.3-1.01,3.75-1.01h0c1.36,0,2.55,.29,3.55,.87,1.01,.59,1.78,1.43,2.33,2.53,.55,1.11,.82,2.42,.82,3.95h0c0,.59-.03,1.1-.08,1.53h-9.26Zm2.64-6.03c-.77,0-1.39,.28-1.86,.85-.47,.57-.75,1.43-.83,2.6h5.25c-.04-2.3-.89-3.45-2.56-3.45h0Zm38.13,11.93h-4.69l-1.24-9.61-1.29,9.61h-4.6l-2.13-14.3h3.9l.94,11.63,1.48-9.83h3.61l1.32,9.83,.97-11.63h3.77l-2.05,14.3Zm10.18-21.79c.74,0,1.34,.23,1.8,.68,.47,.46,.7,1.03,.7,1.71h0c0,.7-.23,1.27-.7,1.72-.47,.45-1.07,.67-1.8,.67h0c-.74,0-1.34-.23-1.82-.69-.47-.46-.71-1.03-.71-1.71h0c0-.68,.24-1.25,.71-1.71,.48-.46,1.08-.68,1.82-.68h0Zm2.56,7.49v11.39h3.66v2.91h-11.96v-2.91h4.04v-8.48h-3.9v-2.91h8.16Zm20.3,13.46c-1.35,.86-2.91,1.29-4.69,1.29h0c-1.83,0-3.21-.47-4.13-1.4-.93-.93-1.39-2.24-1.39-3.93h0v-6.49h-2.99v-2.94h2.99v-3.1l4.25-.51v3.61h4.6l-.43,2.94h-4.17v6.49c0,.7,.16,1.2,.48,1.51,.32,.31,.84,.46,1.56,.46h0c.9,0,1.73-.22,2.5-.65h0l1.4,2.72Zm7.54-19.58v7.54c1.2-1.27,2.6-1.91,4.2-1.91h0c1.26,0,2.23,.37,2.91,1.11,.68,.75,1.02,1.8,1.02,3.17h0v10.5h-4.25v-9.32c0-.86-.1-1.46-.3-1.8-.2-.34-.56-.51-1.08-.51h0c-.43,0-.85,.15-1.25,.44-.41,.3-.82,.73-1.25,1.31h0v9.88h-4.25v-19.98l4.25-.43Zm36.43,5.14v15.27h-4.42v-15.27h-5.25v-3.39h15.11l-.43,3.39h-5.01Zm11.47,9.37c.27,2.17,1.42,3.26,3.45,3.26h0c1.22,0,2.44-.39,3.66-1.18h0l1.7,2.32c-.7,.61-1.53,1.09-2.5,1.44-.97,.35-2.04,.53-3.2,.53h0c-1.6,0-2.95-.32-4.07-.96-1.11-.64-1.95-1.52-2.52-2.67-.57-1.14-.85-2.46-.85-3.97h0c0-1.44,.27-2.73,.82-3.89,.55-1.16,1.34-2.07,2.4-2.75,1.05-.67,2.3-1.01,3.75-1.01h0c1.36,0,2.55,.29,3.55,.87,1.01,.59,1.78,1.43,2.33,2.53,.55,1.11,.82,2.42,.82,3.95h0c0,.59-.03,1.1-.08,1.53h-9.26Zm2.64-6.03c-.77,0-1.39,.28-1.86,.85-.47,.57-.75,1.43-.83,2.6h5.25c-.04-2.3-.89-3.45-2.56-3.45h0Zm17.42,9.02c.54,0,1.06-.1,1.56-.31,.5-.2,1.04-.5,1.62-.9h0l1.88,2.69c-.68,.57-1.47,1.03-2.37,1.37-.9,.34-1.88,.51-2.94,.51h0c-1.53,0-2.84-.31-3.94-.94-1.11-.63-1.95-1.51-2.55-2.64-.59-1.13-.89-2.44-.89-3.93h0c0-1.49,.31-2.82,.92-3.99,.61-1.17,1.48-2.08,2.6-2.75,1.12-.66,2.43-1,3.94-1h0c1.06,0,2.01,.15,2.85,.44,.84,.3,1.63,.75,2.37,1.36h0l-1.83,2.56c-1.04-.72-2.11-1.08-3.2-1.08h0c-2.14,0-3.2,1.48-3.2,4.44h0c0,1.49,.28,2.55,.83,3.19,.56,.64,1.34,.96,2.34,.96h0Zm12.82-17.5v7.54c1.2-1.27,2.6-1.91,4.2-1.91h0c1.26,0,2.23,.37,2.91,1.11,.68,.75,1.02,1.8,1.02,3.17h0v10.5h-4.25v-9.32c0-.86-.1-1.46-.3-1.8-.2-.34-.56-.51-1.08-.51h0c-.43,0-.85,.15-1.25,.44-.4,.3-.82,.73-1.25,1.31h0v9.88h-4.25v-19.98l4.25-.43Z"/></g><g><path class="cls-2" d="M792.8,132.1h0c-.3-16.72-12.78-32.28-29.02-36.21-9.66-2.34-16.57-2.04-16.74-13.02,7.23-5.21,11.14-13.29,13.27-21.94,2.2,.18,4.01-.4,5.36-1.38,2.42-1.75,2.72-4.69,1.44-6.68,.86-1.29,1.53-2.55,1.93-3.81,1.71-5.29-.94-10.48-5.84-10.86,.23-6.34,.27-16.01-1.93-21.96-3.97-10.69-13.59-11.87-18.43-9.3-3.21-9.62-21.29-7.95-30.4-2.71-13.19,7.58-15.24,19.94-13.2,33.85,.25,1.71,.57,3.41,.9,5.13-2.49,3.01-2.31,9.12-1.76,12.75,.78,5.23,3.81,6.8,7.08,5.71,2.2,5.79,5.81,14.05,9.85,18.75,1.15,16.95-6.56,17.32-18.39,20.55-21.87,5.98-36.75,28.51-28.84,41.63,3.01,5,8.67,7.68,14.56,8.57,6,.96,93.03-.24,96.54-.78h0c9.8-1.48,13.81-8.5,13.64-18.27Zm-37.12-35.55c-2.47,6.51-6.02,12.81-13.61,13.37-3.86,.28-7.81-1.9-9.36-4.99,6.17-3.08,11.37-7.63,14.74-12.92,2.26,2.54,5.15,3.73,8.23,4.54Zm-24.48,6.47c-.84-.4-1.65-.84-2.45-1.3l.36-.36,1.08,1.08c.23,.23,.6,.23,.84,0,.23-.23,.23-.61,0-.84l-1.08-1.08,1.61-1.61,2.5,2.5s.05,.01,.07,.03c-.95,.56-1.92,1.09-2.92,1.57Zm-13.4-20.06c8.1,6.96,20.98,4.74,26.91,1.43,.03,.55,.08,1.1,.15,1.66-.21-.09-.45-.09-.63,.09l-1.26,1.26-.05-.05c-.23-.23-.6-.23-.84,0-.23,.23-.23,.61,0,.84l.05,.05-1.47,1.47c-.16,.16-.17,.37-.11,.58-.06,.2-.05,.42,.11,.58l2.49,2.49c.08,.08,.19,.1,.29,.12-1.51,1.87-3.28,3.6-5.25,5.16-.14-.27-.28-.38-.53-.63l1.84-1.84,.3,.3c.23,.23,.6,.23,.84,0,.23-.23,.23-.61,0-.84l-.3-.3,1.25-1.26c.23-.23,.23-.61,0-.84s-.61-.23-.84,0l-1.25,1.26-1.16-1.16c-.23-.23-.61-.23-.84,0s-.23,.61,0,.84l1.16,1.16-1.84,1.84-1.77-1.76,.95-.95c.23-.23,.23-.61,0-.84s-.61-.23-.84,0l-3.63,3.63-.13-.13c-.23-.23-.61-.23-.84,0s-.23,.61,0,.84l.13,.13-1.61,1.61-1.47-1.47c-.23-.23-.61-.23-.84,0-.23,.23-.23,.61,0,.84l1.47,1.47-.57,.57c-4.46-2.76-8.21-6.35-10.78-10.41,.73-2.48,.93-5.13,.89-7.74Zm26.28,9.75c-.03-.06-.03-.14-.08-.19l-2.23-2.23,1.21-1.21,1,1c.23,.23,.61,.23,.84,0,.23-.23,.23-.61,0-.84l-1-1,1.19-1.19c.28,1.44,.65,2.27,1.14,3.15-.26,.08-.5,.24-.66,.49-.44,.69-.91,1.36-1.42,2.03Zm-9.05,8.2c-.06-.36-2.36-2.55-2.63-2.82l1.84-1.84,3.07,3.07s.03,0,.04,.02c-.74,.55-1.52,1.08-2.31,1.58Zm10.6-19.96c.08-.21,.08-.45-.09-.62l-1.24-1.24,2.95-2.95,1.05,1.05c.23,.23,.61,.23,.84,0,.23-.23,.23-.61,0-.84l-1.05-1.05,2.95-2.95,1.16,1.16c.09,.09,.2,.1,.31,.13-1.95,2.96-4.27,5.44-6.86,7.3Zm18.66-23.31c-2.17,1.56-6.57,1.45-6.33-1.35,.1-1.15,1.06-2.48,3.15-3.08,1.15-.3,2.87-.26,3.74,.58,.94,.92,.91,2.77-.56,3.85Zm2.5-9.3s0,0,0,0c-.31,.97-.78,1.94-1.42,2.95-.82-.42-1.95-.69-3.19-.64,.3-2.17,.77-6.74,.94-10.12,3.09,.31,4.96,3.8,3.67,7.79Zm-53.17-42.06c9.53-5.48,26.9-5.64,27.21,2.71,.04,1,1.23,1.5,1.98,.83,3.24-2.93,12.49-2.82,16.23,7.25,2.15,5.78,2.03,16.42,1.76,22.26,0,0,0,0,0,0-.07,1.73-.2,3.46-.35,5.2-.46-1.25-.33-4.44-.27-5.76,.04-.76-.64-1.35-1.37-1.23-9.59,1.54-17.41-7.3-17.03-14.6,.07-1.31-1.74-1.73-2.27-.54-.78,1.77-1.76,3.45-2.88,5.02,0,0,0-.02,0-.02l-1.09-1.09,1.35-1.35c.23-.23,.23-.61,0-.84-.23-.23-.61-.23-.84,0l-1.35,1.35-.33-.33c-.23-.23-.61-.23-.84,0s-.23,.61,0,.84l.33,.33-2.4,2.4-.74-.74c-.23-.23-.61-.23-.84,0-.23,.23-.23,.61,0,.84l.74,.74-2.65,2.65-1.82-1.82,.91-.91c.23-.23,.23-.61,0-.84-.23-.23-.61-.23-.84,0l-3.73,3.73-.58-.58c-.23-.23-.61-.23-.84,0s-.23,.61,0,.84l.58,.58-2.9,2.9-1.66-1.66c-.23-.23-.61-.23-.84,0s-.23,.61,0,.84l1.66,1.66-.66,.66c-.23,.23-.23,.61,0,.84,.23,.23,.6,.23,.84,0l.66-.66,.93,.93c-1.53,.3-3.13,.49-4.76,.56,.02-.18,0-.36-.14-.49l-1.58-1.58,6.39-6.39c.23-.23,.23-.61,0-.84-.23-.23-.61-.23-.84,0l-6.39,6.39-.41-.41c-.23-.23-.61-.23-.84,0s-.23,.61,0,.84l.41,.41-1.88,1.88c-.73-.08-1.46-.17-2.19-.3-.99-.17-1.72,.88-1.23,1.75,1.42,2.51,2.03,5.47,1.73,8.33-.1,.95-.28,1.64-.58,2.17-.73,1.31-2,1.37-2.36,.71-.12-.22-.31-.37-.52-.47-.74-2.62-1.39-5.28-1.94-7.97,0,0,0,0,0,0-.36-1.85-.7-3.71-.97-5.56-1.91-13.02-.21-24.39,12.05-31.44Zm7.36,32.14c-.16-.28-1.14-1.23-1.38-1.47l2.9-2.9,2.86,2.86c-1.37,.62-2.83,1.12-4.38,1.5Zm5.52-2.04l-3.16-3.16,1.99-1.99,1.82,1.82-1.24,1.24c-.23,.23-.23,.61,0,.84,.23,.23,.6,.23,.84,0l1.24-1.24,.74,.74c.11,.11,.25,.16,.4,.17-.91,.61-1.66,1.08-2.62,1.58Zm3.06-2.59l-.74-.74,2.65-2.65,1.4,1.4c-1.01,.95-2.09,1.82-3.22,2.63,.09-.21,.09-.45-.09-.63Zm4.14-2.83l-1.4-1.4,2.4-2.4,1.09,1.09c.05,.05,.13,.05,.2,.08-.71,.92-1.48,1.8-2.29,2.63Zm-20.08,8.32c-.8,0-1.6-.03-2.42-.08l1.17-1.17,1.25,1.25Zm-12.89,16.31c-.55-3.57-.27-7.33,.16-8.85,.99,4.25,2.52,9.33,3.74,12.71-2.51,.74-3.52-1.3-3.9-3.87Zm4.74-1.13c1.74,.2,3.18-.84,3.99-2.28,.6-1.08,.78-2.28,.86-3.08,.27-2.59-.1-5.24-1.04-7.67,13.51,1.57,24.36-4.23,30.58-14.54,1.78,6.83,8.77,13.83,17.92,13.16-.03,1.25-.02,2.58,.12,3.81,.19,1.66,.69,2.89,2.28,3.47-.14,1.28-.29,2.57-.47,3.84-2.49,.94-3.94,2.95-4.11,4.91-.11,1.29,.33,2.61,1.26,3.49-4.95,8.93-15.58,12.63-24.84,9.07-.05-2.27-1.82-4.19-3.72-4.73-3.59-1.01-7.01,2.51-5.3,5.99h0c1.35,2.72,5.18,3.59,7.54,1.8,.31-.23,.57-.5,.78-.79,9.11,3.42,19.64,.67,25.85-7.47-1.23,4.04-2.54,6.78-4.11,9.35-.02-.03-.01-.07-.04-.1l-1.16-1.16,2.97-2.97c.23-.23,.23-.61,0-.84s-.61-.23-.84,0l-2.97,2.97-.21-.21c-.23-.23-.61-.23-.84,0s-.23,.61,0,.84l.21,.21-2.95,2.95-.37-.37c-.23-.23-.6-.23-.84,0-.23,.23-.23,.61,0,.84l.37,.37-2.95,2.95-.58-.58,.63-.63c.23-.23,.23-.61,0-.84s-.61-.23-.84,0l-.63,.63-.21-.21c-.23-.23-.61-.23-.84,0s-.23,.61,0,.84l.21,.21-2.63,2.63-2.44-2.44s-.01-.06-.04-.09-.06-.02-.09-.04l-.49-.49c-.23-.23-.61-.23-.84,0s-.23,.61,0,.84l.13,.13-2.95,2.95-1.39-1.39c-.23-.23-.61-.23-.84,0s-.23,.61,0,.84l1.4,1.39-1.71,1.71c-.23,.23-.23,.61,0,.84s.6,.23,.84,0l1.71-1.71,1.47,1.47c.23,.23,.6,.23,.84,0s.23-.61,0-.84l-1.47-1.47,2.95-2.95,2.08,2.08-1,1c-.23,.23-.23,.61,0,.84s.6,.23,.84,0l1-1,1.43,1.43c.23,.23,.6,.23,.84,0,.23-.23,.23-.61,0-.84l-1.43-1.43,2.63-2.63,.69,.69c-.01,.17,.02,.34,.15,.47,.12,.12,.27,.17,.42,.17,.02,0,.03-.02,.05-.02l1.35,1.35c.12,.12,.27,.17,.42,.17,0,0,.01,0,.02,0-.41,.28-.85,.57-1.29,.82-5.81,3.4-14.99,3.7-19.67,1.92l1.15-1.15,1.18,1.18c.23,.23,.6,.23,.84,0s.23-.61,0-.84l-1.18-1.18,3.25-3.25c.23-.23,.23-.61,0-.84s-.61-.23-.84,0l-3.25,3.25-.21-.21c-.23-.23-.61-.23-.84,0s-.23,.61,0,.84l.21,.21-1.46,1.46c-2.29-1.1-4.3-2.74-5.65-4.35h0s-.01-.01-.02-.02c-4.98-5.59-9.65-17.53-11.9-24.71Zm24.19,13.94c.11,.59-.06,1.05-.54,1.41-1.18,.89-3.29,.44-3.99-.96-.8-1.62,.91-3.11,2.53-2.66,.93,.26,1.82,1.25,2,2.21Zm-13.77,24.96c3.36,4.71,8.17,8.76,13.81,11.57-1.54,3.09-5.51,5.26-9.36,4.99-5.53-.41-9.55-4.26-12.09-9.71,3.43-1.45,5.96-3.5,7.64-6.85Zm-32.22,55.53c-1.88-5.22-2.03-12.18-1.91-18.35,.16-9.8,3.93-11.64,12.54-11.75l68.24-.98c7.37-.09,13.39,.45,15.72,7.47l-1.81,1.81c-.22-.11-.49-.12-.67,.07s-.18,.45-.07,.67l-.13,.13c-.23,.23-.23,.61,0,.84s.6,.23,.84,0l.08-.08,1.63,1.62-1.52,1.52-.89-.89c-.23-.23-.61-.23-.84,0s-.23,.61,0,.84l.89,.89-1.39,1.39c-.23,.23-.23,.61,0,.84s.6,.23,.84,0l1.39-1.39,1.97,1.97c.23,.23,.6,.23,.84,0,.08-.08,.09-.19,.12-.29,.16,3.75,.19,7.14-.67,10.62-.02-.1-.04-.21-.12-.29l-1.29-1.29,1.18-1.18c.23-.23,.23-.61,0-.84s-.61-.23-.84,0l-1.18,1.18-2.28-2.27,2.38-2.38,1.8,1.8c.55,.55,1.39-.29,.84-.84l-2.18-2.18s0-.04-.02-.06c-.02-.02-.04-.01-.06-.03l-2.27-2.27c-.23-.23-.61-.23-.84,0s-.23,.61,0,.84l1.89,1.89-2.38,2.38-1.49-1.49c-.23-.23-.61-.23-.84,0s-.23,.61,0,.84l1.49,1.49-2.78,2.78-2.48-2.48,2.07-2.07c.23-.23,.23-.61,0-.84s-.61-.23-.84,0l-2.07,2.07-.18-.18c-.23-.23-.61-.23-.84,0s-.23,.61,0,.84l.18,.18-2.98,2.98-2.38-2.38,.93-.93c.23-.23,.23-.61,0-.84-.23-.23-.61-.23-.84,0l-4.39,4.39-1.42-1.42,.18-.18c.23-.23,.23-.61,0-.84s-.61-.23-.84,0l-.27,.27c-.19-.04-.38-.02-.53,.13-.15,.15-.17,.34-.13,.53l-2.47,2.47-1.89-1.89c-.23-.23-.61-.23-.84,0s-.23,.61,0,.84l1.89,1.89-1.79,1.79c-.12,.12-.17,.28-.17,.44l-5.18,.06,2-2,1.39,1.39c.23,.23,.6,.23,.84,0,.23-.23,.23-.61,0-.84l-1.39-1.39,2.68-2.68c.23-.23,.23-.61,0-.84-.23-.23-.61-.23-.84,0l-2.68,2.68-.64-.64c-.23-.23-.61-.23-.84,0s-.23,.61,0,.84l.64,.64-1.37,1.37-1.57-1.57,1.73-1.73c.23-.23,.23-.61,0-.84s-.61-.23-.84,0l-1.8,1.8c-.21-.07-.43-.07-.6,.1-.17,.17-.17,.39-.1,.6l-1.39,1.39-1.29-1.29c-.23-.23-.61-.23-.84,0-.23,.23-.23,.61,0,.84l1.29,1.29c-.32,.32-.67,.56-.64,.95-48.32,.54-48.12,.7-52.68,.08Zm90.66-.52l-.54-.54s.09-.02,.12-.05l2.7-2.7,1.29,1.29c.22,.22,.59,.24,.83,0-.16,.59-.35,1.16-.56,1.71-1.13,.14-2.53,.24-3.85,.28Zm-1.3-1.3l-2.31-2.31,2.78-2.78,2.28,2.28-2.7,2.7s-.03,.08-.05,.12Zm6.44-13.44c.02,.45,.04,.87,.05,1.3-.1-.34-1.83-1.98-2.08-2.23l1.84-1.84c.08,.92,.14,1.85,.18,2.77Zm-.41-4.04l-1.71-1.71,1.3-1.3c.23,.95,.39,1.95,.51,2.97-.04,0-.06,.03-.1,.04Zm-13.34,18.9l-5.43,.06,2.45-2.45,1.92,1.92c.23,.23,.6,.23,.84,0,.23-.23,.23-.61,0-.84l-1.92-1.92,2.98-2.98,2.48,2.48-3.2,3.2c-.15,.15-.16,.35-.12,.54Zm-13.3-1.04l-.99-.99,2.38-2.38,1.42,1.42-2.54,2.54c-.16,.16-.17,.38-.11,.58l-3.36,.04,1.37-1.37,.99,.99c.23,.23,.6,.23,.84,0,.23-.23,.23-.61,0-.84Zm3.64-1.11l1.79,1.79c.23,.23,.61,.23,.84,0,.23-.23,.23-.61,0-.84l-1.79-1.79,2.63-2.63,2.38,2.38-2.59,2.59c-.2,.2-.19,.48-.05,.71l-5.47,.06,2.27-2.27Zm-17.21,1.71l-.18-.18,1.32-1.32,1.64,1.64c-.07,.2-.06,.4,.09,.57l-2.82,.03c.15-.23,.16-.53-.04-.73Zm-.93,.74h-.18s.09-.09,.09-.09l.09,.09Zm29.07-.32l2.88-2.88,2.81,2.81s.2,0-5.7,.07Zm13.83-.85c1.42-4.61,1.25-9.28,1.01-14.12-.63-14.29-5.37-18.24-19.32-18.07l-68.24,.98c-9.67,.12-14.69,2.72-14.88,14.07-.12,6.2,.03,12.6,1.64,17.91-4.47-1.03-8.61-3.24-10.91-7.05-6.92-11.48,6.83-32.49,27.44-38.12,2.71-.74,5.66-1.29,8.47-2.2,3.45,7.49,8.74,10.84,14.14,11.24,4.45,.33,8.82-1.94,11.04-5.32,2.22,3.38,6.59,5.64,11.04,5.32,8.61-.63,12.83-7.41,15.76-15.18,3.05,.63,3.95,.78,5.22,1.09,15.23,3.68,26.92,18.27,27.2,33.95,.13,7.44-2.36,13.64-9.63,15.48Z"/><path class="cls-2" d="M729.92,131.94c-2.47-.63-4.93,.1-6.75,2.02-2.84,3-1.96,6.5,.17,8.63,2.4,2.4,6.64,3.35,9.77,.38,4.39-4.16,1.54-9.81-3.19-11.03Zm-2.2,2.28l-.09-.09c.06,0,.13-.01,.19-.02l-.1,.1Zm-3.55,2.38l1.5,1.5-1.54,1.54c-.44-.9-.52-1.96,.05-3.04Zm7.31,4.64c-2.04,1.93-4.86,1.27-6.47-.34-.08-.08-.15-.18-.23-.26,0,0,.02,0,.03-.01l1.8-1.8s.02,.01,.04,.01c.32,0,.6-.24,.58-.63l.32-.32c.23-.23,.23-.61,0-.84s-.61-.23-.84,0l-.2,.2-1.64-1.64s.02-.03,.03-.04c.48-.51,.97-.83,1.45-1.06l.53,.53-.7,.7c-.23,.23-.23,.61,0,.84,.23,.23,.61,.23,.84,0l.7-.7,.6,.6c.23,.23,.61,.23,.84,0,.23-.23,.23-.61,0-.84l-.6-.6,.81-.81c2.82,.75,5.17,4.11,2.12,7Z"/><path class="cls-2" d="M703.88,126.13l-3.63,3.62-2.45-2.45,2.55-2.55c.23-.23,.23-.61,0-.84s-.61-.23-.84,0l-2.55,2.55-1.3-1.3c-.23-.23-.61-.23-.84,0s-.23,.61,0,.84l1.3,1.3-1.74,1.74-2.15-2.15,1.41-1.41c.23-.23,.23-.61,0-.84s-.61-.23-.84,0l-1.41,1.41-.69-.69c-.23-.23-.61-.23-.84,0s-.23,.61,0,.84l.69,.69-1.4,1.4c-.23,.23-.23,.61,0,.84s.6,.23,.84,0l1.4-1.4,2.15,2.15-2.87,2.87c-.23,.23-.23,.61,0,.84s.6,.23,.84,0l2.87-2.87,2.05,2.05c.23,.23,.6,.23,.84,0,.23-.23,.23-.61,0-.84l-2.05-2.05,1.74-1.74,2.45,2.45-.95,.95c-.23,.23-.23,.61,0,.84s.6,.23,.84,0l.95-.95,.94,.94c.23,.23,.6,.23,.84,0,.23-.23,.23-.61,0-.84l-.94-.94,3.63-3.62c.23-.23,.23-.61,0-.84-.23-.23-.61-.23-.84,0Z"/></g></g></g></svg>